<svg width="49" height="48" viewBox="0 0 49 48" fill="none" xmlns="http://www.w3.org/2000/svg">
<path d="M7.03955 21C6.21113 21 5.53955 21.6716 5.53955 22.5V27.1072C5.53953 30.7876 5.53951 33.6942 5.82813 35.9672C6.12395 38.297 6.74597 40.1874 8.16201 41.6868C9.58947 43.1982 11.4087 43.8732 13.6488 44.1922C15.8119 44.5 18.5711 44.5 22.0326 44.5H26.0464C29.5079 44.5 32.2672 44.5 34.4304 44.1922C36.6704 43.8732 38.4896 43.1982 39.9172 41.6868C41.3332 40.1874 41.9552 38.297 42.2509 35.9672C42.5396 33.6942 42.5396 30.7876 42.5396 27.1072V22.5C42.5396 21.6716 41.868 21 41.0396 21H7.03955Z" fill="#FFBC09"/>
<path d="M6.79767 11.6403C7.36357 11.4988 8.02453 11.4994 8.81681 11.5001H39.2586C40.0508 11.4994 40.7118 11.4988 41.2778 11.6403C42.8958 12.0447 44.2208 13.3116 44.4962 15.0025C44.5914 15.5872 44.4998 16.2398 44.4036 16.9255C44.1748 18.5717 44.0502 20.3102 43.413 21.8612C42.076 25.116 39.0594 27.4734 35.4598 28.236C34.411 28.4582 33.2344 28.4936 31.4814 28.4992C31.0814 28.5004 30.8814 28.5012 30.7638 28.3838C30.6462 28.2664 30.6464 28.0572 30.6468 27.6388C30.6472 27.269 30.6378 26.8988 30.6378 26.5308C30.6398 26.0752 30.6428 25.4146 30.4808 24.8098C30.0554 23.2224 28.8154 21.9824 27.228 21.557C26.6224 21.3948 25.9928 21.3984 25.3708 21.4004H22.7042C22.0822 21.3984 21.4524 21.3948 20.8468 21.557C19.2594 21.9824 18.0195 23.2224 17.5941 24.8098C17.4321 25.4146 17.435 26.0752 17.437 26.5308C17.4371 26.8988 17.4276 27.269 17.428 27.6388C17.4285 28.0572 17.4287 28.2664 17.3111 28.3838C17.1935 28.5012 16.9934 28.5004 16.5934 28.4992C14.8407 28.4936 13.6643 28.4582 12.6155 28.236C9.01591 27.4734 5.99937 25.116 4.66237 21.8612C4.02523 20.3102 3.90059 18.5717 3.67181 16.9255C3.57559 16.2398 3.48403 15.5872 3.57925 15.0025C3.85461 13.3116 5.17949 12.0447 6.79767 11.6403Z" fill="#15508B"/>
<path fill-rule="evenodd" clip-rule="evenodd" d="M23.6968 3.00002C23.9232 3.00008 24.15 3.00008 24.3758 3.00002C25.4764 2.99976 26.5414 2.99952 27.4378 3.15548C28.4944 3.3393 29.4676 3.75814 30.289 4.66026C31.0452 5.49072 31.4768 6.5195 31.8138 7.62368C32.1448 8.70754 32.4478 10.0936 32.8172 11.7824L32.9902 12.5726L29.0826 13.4274L28.928 12.721C28.5358 10.9277 28.266 9.70162 27.9882 8.79164C27.711 7.8841 27.4918 7.5295 27.3314 7.35324C27.2362 7.24864 27.1424 7.16414 26.7522 7.09628C26.2386 7.00694 25.5278 7.00004 24.241 7.00004H23.8316C22.545 7.00004 21.834 7.00694 21.3204 7.09628C20.9304 7.16414 20.8366 7.24864 20.7414 7.35324C20.5808 7.5295 20.3616 7.8841 20.0846 8.79164C19.8067 9.70162 19.5369 10.9277 19.1447 12.721L18.9901 13.4274L15.0825 12.5726L15.2554 11.7824C15.6248 10.0936 15.928 8.70756 16.2589 7.62368C16.596 6.5195 17.0275 5.49072 17.7837 4.66026C18.605 3.75814 19.5783 3.3393 20.635 3.15548C21.5314 2.99952 22.5962 2.99976 23.6968 3.00002Z" fill="#15508B"/>
<path d="M20.0396 26.6666C20.0396 26.0466 20.0395 25.7366 20.1077 25.4824C20.2925 24.7922 20.8318 24.253 21.522 24.0682C21.7762 24 22.0862 24 22.7062 24H25.373C25.993 24 26.3029 24 26.5571 24.0682C27.2473 24.253 27.7866 24.7922 27.9714 25.4824C28.0396 25.7366 28.0396 26.0466 28.0396 26.6666V28C28.0396 30.2092 26.2488 32 24.0396 32C21.8304 32 20.0396 30.2092 20.0396 28V26.6666Z" fill="#15508B"/>
</svg>
