<svg width="49" height="48" viewBox="0 0 49 48" fill="none" xmlns="http://www.w3.org/2000/svg">
<path d="M40.6797 20.7358C42.3377 20.9796 43.8179 21.523 44.7639 22.9142C45.7113 24.3072 45.6684 25.8818 45.2791 27.5084C44.9035 29.079 44.1205 31.0276 43.1619 33.4138C42.4549 35.174 41.2035 38.2886 40.6061 39.404C39.9823 40.5688 39.2727 41.5114 38.2329 42.2122C37.1936 42.913 36.0525 43.2184 34.7363 43.3622C33.4753 43.5002 31.9247 43.5002 30.0201 43.5H13.6908C11.1083 43.5002 9.00158 43.5002 7.39864 43.2644C5.74064 43.0206 4.26046 42.4772 3.31446 41.086C2.36718 39.693 2.41006 38.1184 2.79922 36.4918C3.17498 34.921 4.6329 31.2922 5.59166 28.906C6.29876 27.1458 6.87492 25.7116 7.47228 24.5962C8.09612 23.4314 8.80572 22.4888 9.84558 21.7878C10.885 21.0872 12.026 20.7818 13.342 20.638C14.6031 20.5 16.1537 20.5 18.0583 20.5H34.3875C36.9699 20.5 39.077 20.5 40.6797 20.7358Z" fill="#FFBC09"/>
<path d="M14.3236 4.50018C16.0935 4.50018 17.7682 5.29916 18.8787 6.67336L21.8366 10.3335H31.868C33.1664 10.3335 34.2574 10.3335 35.1502 10.4062C36.0838 10.4823 36.971 10.6474 37.813 11.0753C39.0971 11.7277 40.1413 12.7689 40.7957 14.0494C41.2248 14.8891 41.3904 15.7738 41.4668 16.7046C41.5396 17.5949 41.5396 18.6829 41.5396 19.9775V20.896C41.2598 20.8314 40.9726 20.779 40.6798 20.7358C39.077 20.5 36.9702 20.5002 34.3878 20.5002H18.0584C16.1538 20.5002 14.6031 20.5002 13.342 20.638C12.026 20.782 10.885 21.0874 9.84559 21.788C8.80573 22.489 8.09613 23.4314 7.47229 24.5962C6.87493 25.7116 6.29877 27.1458 5.59167 28.906C4.63291 31.2924 3.17499 34.9212 2.79923 36.4918C2.68787 36.9574 2.60485 37.4186 2.56529 37.8724C2.54835 37.7694 2.53955 37.6636 2.53955 37.5558V15.2211C2.53953 13.8759 2.53951 12.7654 2.60369 11.8571C2.67023 10.9151 2.81271 10.0445 3.17219 9.20956C3.96097 7.37756 5.42515 5.91756 7.26239 5.13102C8.09853 4.77306 8.96729 4.63064 9.91203 4.56416C10.8214 4.50016 11.9351 4.50016 13.2903 4.50018H14.3236Z" fill="#15508B"/>
</svg>
