<svg width="49" height="48" viewBox="0 0 49 48" fill="none" xmlns="http://www.w3.org/2000/svg">
<path d="M32.4938 4.74496C30.0338 4.49996 26.9704 4.49998 23.1422 4.5C18.7607 4.49998 15.1024 4.49996 12.4156 4.86118C9.66229 5.23136 7.47777 6.00544 5.76137 7.72182C4.04499 9.43822 3.27091 11.6227 2.90073 14.376C2.53951 17.0629 2.53953 20.733 2.53955 25.1144C2.53953 29.4958 2.53951 32.9372 2.90073 35.624C3.27091 38.3772 4.04499 40.5618 5.76137 42.2782C7.47777 43.9946 9.66229 44.7686 12.4156 45.1388C15.1024 45.5 18.7725 45.5 23.154 45.5C27.5354 45.5 30.9768 45.5 33.6636 45.1388C36.4168 44.7686 38.6013 43.9946 40.3177 42.2782C42.0341 40.5618 42.8082 38.3772 43.1784 35.624C43.5396 32.9372 43.5396 29.4958 43.5396 25.1144C43.5396 21.2828 43.5396 18.032 43.2939 15.5431C42.7077 15.7641 42.3041 15.9237 42.0708 16.0312C41.9228 16.3525 41.6762 16.9961 41.3068 17.9941L40.791 19.3881C40.2102 20.9578 38.7134 22 37.0396 22C35.3657 22 33.8689 20.9578 33.2882 19.3881L32.7724 17.9941C32.403 16.9961 32.1486 16.3525 32.0006 16.0313C31.6792 15.8833 31.0436 15.6366 30.0456 15.2673L28.6514 14.7514C27.0818 14.1706 26.0396 12.6738 26.0396 11C26.0396 9.32624 27.0818 7.82946 28.6514 7.2486L30.0456 6.73274C31.0436 6.36344 31.6714 6.11672 31.9928 5.96876C32.1002 5.73522 32.2682 5.33142 32.4938 4.74496Z" fill="#FFBC09"/>
<path d="M12.7372 33.7558C17.313 25.748 28.7661 25.748 33.3419 33.7558C33.6071 34.22 33.6054 34.7904 33.337 35.2528C33.0686 35.7154 32.5744 36 32.0396 36H14.0395C13.5048 36 13.0106 35.7154 12.7422 35.2528C12.4738 34.7904 12.4719 34.22 12.7372 33.7558Z" fill="#15508B"/>
<path d="M23.0227 25C25.7881 25 28.0299 22.7614 28.0299 20C28.0299 17.2386 25.7881 15 23.0227 15C20.2575 15 18.0156 17.2386 18.0156 20C18.0156 22.7614 20.2575 25 23.0227 25Z" fill="#15508B"/>
<path d="M37.0396 2.5C37.6672 2.5 38.2285 2.8908 38.4464 3.47944L38.9622 4.8735C39.6862 6.8302 39.9172 7.36182 40.2974 7.74212C40.6778 8.12242 41.2093 8.35334 43.1661 9.07738L44.5602 9.59322C45.1488 9.81104 45.5396 10.3723 45.5396 11C45.5396 11.6277 45.1488 12.189 44.5602 12.4068L43.1661 12.9226C41.2093 13.6467 40.6778 13.8776 40.2974 14.2579C39.9172 14.6382 39.6862 15.1698 38.9622 17.1265L38.4464 18.5206C38.2285 19.1092 37.6672 19.5 37.0396 19.5C36.412 19.5 35.8506 19.1092 35.6328 18.5206L35.117 17.1265C34.393 15.1698 34.1619 14.6382 33.7817 14.2579C33.4013 13.8776 32.8698 13.6467 30.913 12.9226L29.519 12.4068C28.9304 12.189 28.5396 11.6277 28.5396 11C28.5396 10.3723 28.9304 9.81104 29.519 9.59322L30.913 9.07738C32.8698 8.35334 33.4013 8.12242 33.7817 7.74212C34.1619 7.36182 34.393 6.8302 35.117 4.8735L35.6328 3.47944C35.8506 2.8908 36.412 2.5 37.0396 2.5Z" fill="#15508B"/>
</svg>
