<svg width="49" height="48" viewBox="0 0 49 48" fill="none" xmlns="http://www.w3.org/2000/svg">
<g clip-path="url(#clip0_26_3430)">
<path d="M38.9289 11.52H43.4842C45.6315 11.52 46.7053 11.52 47.3724 12.1526C48.0395 12.7853 48.0395 13.8035 48.0395 15.84V24.48C48.0395 26.5164 48.0395 27.5347 47.3724 28.1673C46.7053 28.8 45.6315 28.8 43.4842 28.8H42.1471C42.1149 28.057 41.8013 27.323 41.2066 26.7558L27.541 13.7186H25.2634L22.4524 16.4003C20.8112 17.9661 18.1983 18.1042 16.3859 16.7209L15.8522 16.3136C14.9295 15.6094 14.4681 15.2572 14.4407 14.7761C14.4134 14.2949 14.8321 13.8978 15.6697 13.1035L17.892 10.9959C19.8669 9.12298 20.8544 8.18651 22.1099 7.69325C23.3657 7.2 25.1657 7.2 27.9588 7.2C30.0124 7.2 31.0392 7.2 32.0076 7.47803C32.9757 7.75609 33.8303 8.29626 35.5389 9.37663L38.9289 11.52Z" fill="#FFBC09"/>
<path d="M4.72537 12H11.4347C11.2385 12.421 11.1462 12.887 11.1729 13.3594C11.2188 14.1744 11.6143 14.9319 12.2609 15.4437L14.8432 17.4873C17.8765 19.888 22.253 19.6465 24.997 16.9321L26.7118 15.2357L39.8691 28.2515C40.4808 28.8565 40.8032 29.6394 40.8367 30.432C40.8737 31.316 40.5513 32.2118 39.8691 32.8869C38.5751 34.1668 36.4772 34.1668 35.1833 32.8869L34.0118 31.728C35.3058 33.0081 35.3058 35.0833 34.0118 36.3634C32.7178 37.6435 30.62 37.6435 29.326 36.3634L26.9831 34.0456C28.2771 35.3257 28.2771 37.4011 26.9831 38.681C25.6891 39.9611 23.5912 39.9611 22.2972 38.681L18.7828 35.2045C20.0769 36.4846 20.0769 38.5601 18.7828 39.8399C17.4889 41.12 15.391 41.12 14.097 39.8399L6.10342 31.8153C5.46053 31.17 5.13908 30.8474 4.7409 30.6693C4.34273 30.4914 3.81382 30.4615 2.75599 30.4016C1.7834 30.3465 1.16783 30.1919 0.725766 29.7572C0.0395509 29.0823 0.0395508 27.9962 0.0395508 25.824V16.608C0.0395508 14.4358 0.0395509 13.3497 0.725766 12.6748C1.41198 12 2.51645 12 4.72537 12Z" fill="#15508B"/>
</g>
<defs>
<clipPath id="clip0_26_3430">
<rect width="48" height="48" fill="white" transform="translate(0.0395508)"/>
</clipPath>
</defs>
</svg>
