<svg width="49" height="48" viewBox="0 0 49 48" fill="none" xmlns="http://www.w3.org/2000/svg">
<path fill-rule="evenodd" clip-rule="evenodd" d="M20.0396 26C20.0396 24.8954 20.935 24 22.0396 24H32.0396C33.1441 24 34.0396 24.8954 34.0396 26C34.0396 27.1046 33.1441 28 32.0396 28H22.0396C20.935 28 20.0396 27.1046 20.0396 26ZM14.0396 26C14.0396 24.8954 14.935 24 16.0396 24H16.0575C17.1621 24 18.0575 24.8954 18.0575 26C18.0575 27.1046 17.1621 28 16.0575 28H16.0396C14.935 28 14.0396 27.1046 14.0396 26ZM14.0396 34C14.0396 32.8954 14.935 32 16.0396 32H26.0396C27.1442 32 28.0396 32.8954 28.0396 34C28.0396 35.1046 27.1442 36 26.0396 36H16.0396C14.935 36 14.0396 35.1046 14.0396 34ZM30.0216 34C30.0216 32.8954 30.917 32 32.0216 32H32.0396C33.1441 32 34.0396 32.8954 34.0396 34C34.0396 35.1046 33.1441 36 32.0396 36H32.0216C30.917 36 30.0216 35.1046 30.0216 34Z" fill="#15508B"/>
<path d="M14.0396 4C14.0396 2.89544 13.1441 2 12.0396 2C10.935 2 10.0396 2.89544 10.0396 4V4.8977C10.8002 4.65642 11.6106 4.48416 12.4702 4.35922C12.9661 4.28714 13.489 4.22952 14.0396 4.18346V4Z" fill="#15508B"/>
<path d="M38.0396 4.8977C37.279 4.65642 36.4686 4.48416 35.609 4.35922C35.113 4.28714 34.5902 4.22952 34.0396 4.18346V4C34.0396 2.89544 34.935 2 36.0396 2C37.1442 2 38.0396 2.89544 38.0396 4V4.8977Z" fill="#15508B"/>
<path fill-rule="evenodd" clip-rule="evenodd" d="M26.0972 4H21.982C18.0854 3.99994 14.9424 3.99988 12.4702 4.35922C9.89025 4.7342 7.75315 5.53562 6.07559 7.3492C4.41853 9.14062 3.70513 11.3854 3.36787 14.0973C3.03949 16.7379 3.03951 20.1082 3.03955 24.3478V25.6522C3.03951 29.8918 3.03949 33.2622 3.36787 35.9026C3.70513 38.6146 4.41853 40.8594 6.07559 42.6508C7.75315 44.4644 9.89025 45.2658 12.4702 45.6408C14.9424 46.0002 18.0854 46 21.982 46H26.0972C29.9938 46 33.1368 46.0002 35.609 45.6408C38.1889 45.2658 40.326 44.4644 42.0036 42.6508C43.6606 40.8594 44.374 38.6146 44.7112 35.9026C45.0396 33.2622 45.0396 29.8918 45.0396 25.6522V24.3478C45.0396 20.1082 45.0396 16.7379 44.7112 14.0973C44.374 11.3854 43.6606 9.14062 42.0036 7.3492C40.326 5.53562 38.1889 4.7342 35.609 4.35922C33.1368 3.99988 29.9938 3.99994 26.0972 4ZM9.03521 18C8.11797 18 7.65935 18 7.36725 18.2883C7.07517 18.5767 7.06929 19.0294 7.05755 19.935C7.04009 21.2814 7.03955 22.7884 7.03955 24.4864V25.5136C7.03955 29.9232 7.04319 33.0442 7.33729 35.409C7.62609 37.7312 8.16481 39.0188 9.01199 39.9346C9.83867 40.8284 10.969 41.3806 13.0456 41.6824C15.1967 41.995 18.0481 42 22.1396 42H25.9396C30.031 42 32.8824 41.995 35.0336 41.6824C37.1101 41.3806 38.2403 40.8284 39.0672 39.9346C39.9143 39.0188 40.453 37.7312 40.7418 35.409C41.036 33.0442 41.0396 29.9232 41.0396 25.5136V24.4864C41.0396 22.7884 41.0389 21.2814 41.0215 19.935C41.0098 19.0294 41.004 18.5767 40.712 18.2883C40.4198 18 39.9611 18 39.0439 18H9.03521Z" fill="#FFBC09"/>
</svg>
