<svg width="49" height="48" viewBox="0 0 49 48" fill="none" xmlns="http://www.w3.org/2000/svg">
<path fill-rule="evenodd" clip-rule="evenodd" d="M17.9356 2.49972H30.1436C31.9406 2.49966 33.439 2.4996 34.6286 2.65954C35.8842 2.82834 37.0178 3.19968 37.9286 4.11062C38.8396 5.02156 39.211 6.15516 39.3798 7.41076C39.5398 8.6003 39.5396 10.0988 39.5396 11.8957V45.4998H8.53955V11.8956C8.53949 10.0987 8.53945 8.60028 8.69939 7.41076C8.86819 6.15516 9.23953 5.02156 10.1505 4.11062C11.0614 3.19968 12.195 2.82834 13.4506 2.65954C14.6402 2.4996 16.1386 2.49966 17.9356 2.49972ZM34.0396 21.9998C34.0396 20.8952 33.1442 19.9997 32.0396 19.9997C30.935 19.9997 30.0396 20.8952 30.0396 21.9998V25.9998C30.0396 27.1042 30.935 27.9998 32.0396 27.9998C33.1442 27.9998 34.0396 27.1042 34.0396 25.9998V21.9998Z" fill="#15508B"/>
<path fill-rule="evenodd" clip-rule="evenodd" d="M4.03955 43.9998C4.03955 42.8952 4.93499 41.9998 6.03955 41.9998H42.0396C43.1441 41.9998 44.0396 42.8952 44.0396 43.9998C44.0396 45.1044 43.1441 45.9998 42.0396 45.9998H6.03955C4.93499 45.9998 4.03955 45.1044 4.03955 43.9998Z" fill="#FFBC09"/>
</svg>
