<svg width="49" height="48" viewBox="0 0 49 48" fill="none" xmlns="http://www.w3.org/2000/svg">
<path d="M22.8675 2.49982H25.2117C25.8173 2.4997 26.4243 2.49958 26.9403 2.55862C27.5299 2.6261 28.1921 2.78698 28.8173 3.23878C29.4423 3.69034 29.8033 4.2685 30.0531 4.8068L31.3167 8.40932C31.4639 8.77362 31.7167 9.08442 32.0419 9.30168L32.6057 9.62718C32.9935 9.81668 33.4329 9.87138 33.8547 9.78286L36.1819 9.12702L36.1841 9.12644C36.8115 8.94816 37.5195 8.74698 38.0651 8.6603C38.6875 8.56142 39.4143 8.54148 40.1765 8.85162C40.9383 9.16166 41.4451 9.68334 41.8219 10.1883C42.1527 10.6314 43.5273 13.0184 43.8533 13.5848C44.1587 14.1151 44.4645 14.6455 44.6723 15.1257C44.9097 15.6742 45.1017 16.3326 45.0207 17.1045C44.9397 17.8764 44.6149 18.4805 44.2687 18.9676C43.9655 19.3941 43.5565 19.8492 43.1475 20.304L41.1339 22.556C40.9625 22.8008 40.7365 23.4086 40.7365 23.9994C40.7365 24.591 40.9625 25.1986 41.1339 25.4434C41.5429 25.8982 43.9655 28.6054 44.2687 29.0318C44.6149 29.519 44.9397 30.123 45.0207 30.895C45.1017 31.6668 44.9097 32.3252 44.6723 32.8738C44.4645 33.354 44.1589 33.8844 43.8533 34.4146C43.8533 34.4146 42.1527 37.368 41.8219 37.8112C41.4451 38.316 40.9383 38.8378 40.1765 39.1478C39.4143 39.458 38.6875 39.438 38.0651 39.3392C37.5195 39.2524 36.8945 39.0748 36.2671 38.8966L33.8549 38.2166C33.4329 38.128 32.9933 38.1826 32.6055 38.3722L32.0417 38.6978C31.7167 38.915 31.4639 39.2258 31.3167 39.5902L30.6549 41.5682C30.6549 41.5682 30.2719 42.7214 30.0531 43.1928C29.8033 43.7312 29.4423 44.3092 28.8173 44.7608C28.1921 45.2126 27.5299 45.3736 26.9403 45.441C26.4243 45.5 25.8173 45.5 25.2117 45.4998H22.8675C22.2617 45.5 21.6547 45.5 21.1389 45.441C20.5493 45.3736 19.887 45.2126 19.2618 44.7608C18.6369 44.3092 18.2758 43.7312 18.026 43.1928C17.8073 42.7214 17.3979 41.4894 17.3979 41.4894C17.0573 40.465 17.6111 39.3584 18.6348 39.0178C19.6585 38.677 20.7645 39.231 21.1051 40.2554C21.3337 40.943 21.4563 41.3024 21.5697 41.5466C22.2929 41.5466 26.2299 41.5878 26.4961 41.5572L27.6561 38.2228C28.1039 37.0548 28.9129 36.0604 29.9657 35.3858L30.7845 34.9132C32.0129 34.2814 33.4247 34.1052 34.7707 34.4158C35.5181 34.628 38.3915 35.433 38.6779 35.4784L41.0847 31.2974C40.9275 31.0762 40.6741 30.7898 40.1863 30.247L38.0919 27.8986C37.2807 26.871 36.8297 25.3352 36.8297 23.9994C36.8297 22.6642 37.2807 21.1282 38.0919 20.1008L41.0847 16.7021C40.6965 16.0279 38.8657 12.7606 38.6917 12.5275L34.7705 13.5836C33.4249 13.8941 32.0133 13.7179 30.7849 13.0865L29.9661 12.614C28.9131 11.9392 28.1039 10.9448 27.6561 9.7767C27.4275 9.08902 26.6227 6.69732 26.5095 6.453C25.7861 6.453 21.8493 6.4119 21.5829 6.44238L20.4231 9.7767C19.9752 10.9448 19.166 11.9392 18.113 12.614L17.2941 13.0865C16.0658 13.7179 14.6542 13.8941 13.3086 13.5836C12.5612 13.3714 9.68769 12.5665 9.40133 12.521L6.99435 16.7021C7.15153 16.9233 9.49941 19.5581 9.98719 20.1008C10.7983 21.1282 11.2495 22.6642 11.2495 23.9994C11.2495 25.3352 10.7985 26.871 9.98725 27.8986L7.89615 30.2432L7.89273 30.247C7.40495 30.7898 7.09023 31.1684 6.93303 31.3896C6.77933 32.4184 5.84113 33.1528 4.79709 33.043C3.72413 32.9302 2.94569 31.9686 3.05841 30.895C3.13947 30.123 3.46421 29.519 3.81043 29.0318C4.11353 28.6054 4.52269 28.1504 4.93159 27.6956L6.94519 25.4434C7.11657 25.1986 7.34253 24.591 7.34253 23.9994C7.34253 23.4086 7.11651 22.8008 6.94513 22.556C6.53623 22.1012 4.11353 19.3941 3.81043 18.9676C3.46421 18.4805 3.13945 17.8764 3.05841 17.1045C2.97737 16.3327 3.16949 15.6742 3.40685 15.1257C3.61469 14.6455 3.92031 14.1151 4.22581 13.5849L5.27593 11.7614C5.60197 11.195 5.92643 10.6314 6.25717 10.1883C6.63411 9.68334 7.14079 9.16166 7.90263 8.85162C8.66477 8.54148 9.39163 8.56142 10.014 8.6603C10.5596 8.74698 11.268 8.94826 11.8954 9.12654L14.2243 9.78286C14.6462 9.87138 15.0856 9.8167 15.4734 9.62718L16.0372 9.30168C16.3623 9.08442 16.6152 8.77362 16.7624 8.40932L17.3979 6.51032C17.5894 5.93398 17.8073 5.27822 18.026 4.8068C18.2758 4.2685 18.6368 3.69034 19.2618 3.23878C19.887 2.78698 20.5493 2.6261 21.1389 2.55862C21.6547 2.49958 22.2617 2.4997 22.8675 2.49982Z" fill="#FFBC09"/>
<path d="M30.9774 30.8562C29.5496 32.2836 27.018 32.4104 23.2484 32.42C22.4268 32.422 22.0162 32.4232 21.65 32.5754C21.2838 32.7276 20.9956 33.0158 20.4194 33.5922L11.1469 42.866C9.63535 44.3776 7.18471 44.3776 5.67319 42.866C4.16167 41.3544 4.16167 38.9038 5.67319 37.3924L14.9473 28.1176C15.5236 27.5414 15.8117 27.2532 15.9639 26.8872C16.1161 26.521 16.1171 26.1104 16.1192 25.289C16.1288 21.5216 16.2556 18.9889 17.6832 17.5615C19.3109 15.9341 20.0298 16 27.2402 16C27.937 15.997 28.2876 16.8397 27.795 17.3324L24.0826 21.0452C23.1402 21.9876 23.1376 23.5154 24.08 24.4578C25.0224 25.4 26.5504 25.4002 27.493 24.458L31.2066 20.746C31.6992 20.2534 32.5422 20.6042 32.5392 21.3008C32.5392 28.51 32.605 29.2288 30.9774 30.8562Z" fill="#15508B"/>
</svg>
