<svg width="49" height="48" viewBox="0 0 49 48" fill="none" xmlns="http://www.w3.org/2000/svg">
<path fill-rule="evenodd" clip-rule="evenodd" d="M42.8577 27C44.0628 27 45.0396 27.9402 45.0396 29.1V33.0574C45.0396 35.0978 45.0396 36.7438 44.9377 38.0809C44.8327 39.4566 44.6113 40.6699 44.0785 41.8094C42.9845 44.1488 41.0383 46.022 38.6078 47.0749C37.4239 47.5878 36.1633 47.8009 34.734 47.9019C33.3448 48 31.6347 48 29.5148 48H23.2214C22.0164 48 21.0396 47.0598 21.0396 45.9C21.0396 44.7402 22.0164 43.8 23.2214 43.8H29.4313C31.6543 43.8 33.2038 43.7987 34.4145 43.7131C35.6034 43.6291 36.2922 43.4722 36.8167 43.245C38.2753 42.6133 39.443 41.4894 40.0993 40.0855C40.3353 39.5807 40.4983 38.9177 40.5856 37.7734C40.6746 36.6081 40.6759 35.1167 40.6759 32.977V29.1C40.6759 27.9402 41.6527 27 42.8577 27Z" fill="#FFBC09"/>
<path d="M9.05987 18.3659C8.26716 18.7523 7.87081 18.9455 7.66524 18.7711C7.45969 18.5966 7.55619 18.202 7.7492 17.4128C9.58725 9.89653 16.1837 4.33333 24.0396 4.33333C31.8954 4.33333 38.492 9.89655 40.3299 17.4128C40.5229 18.202 40.6195 18.5966 40.4139 18.7711C40.2083 18.9455 39.812 18.7523 39.0193 18.3659C37.6606 17.7037 36.1418 17.3333 34.5395 17.3333C31.0601 17.3333 28.2395 20.2434 28.2395 23.8333V32.5C28.2395 36.09 31.0601 39 34.5395 39C40.3385 39 45.0396 34.1497 45.0396 28.1667V21.6667C45.0396 9.70049 35.6374 0 24.0396 0C12.4416 0 3.03955 9.70049 3.03955 21.6667V28.1667C3.03955 34.1497 7.74057 39 13.5396 39C17.0189 39 19.8396 36.09 19.8396 32.5V23.8333C19.8396 20.2434 17.0189 17.3333 13.5396 17.3333C11.9371 17.3333 10.4186 17.7037 9.05987 18.3659Z" fill="#15508B"/>
</svg>
