<svg width="26" height="25" viewBox="0 0 26 25" fill="none" xmlns="http://www.w3.org/2000/svg">
<path fill-rule="evenodd" clip-rule="evenodd" d="M2.88243 0.774871C4.00859 -0.351298 5.9071 -0.0432122 6.61935 1.38128L9.0194 6.18139C9.46856 7.0797 9.29249 8.16464 8.58232 8.87482L4.71293 12.7441C6.45557 16.0033 9.13723 18.6849 12.3963 20.4276L16.2657 16.5582C16.9759 15.8481 18.0608 15.672 18.9592 16.1212L23.7593 18.5212C25.1838 19.2335 25.4918 21.1319 24.3657 22.2581L22.6937 23.9301C22.045 24.5788 21.1386 24.9776 20.1628 24.9308C9.37799 24.4133 0.727272 15.7625 0.209773 4.97769C0.162948 4.00192 0.561792 3.09551 1.21042 2.44688L2.88243 0.774871Z" fill="#15508B"/>
</svg>
