<svg width="20" height="20" viewBox="0 0 20 20" fill="none" xmlns="http://www.w3.org/2000/svg">
<path fill-rule="evenodd" clip-rule="evenodd" d="M17.2107 0.581597C17.7285 -0.0104444 18.6931 0.180181 18.9469 0.924681C18.9831 1.03081 19.0015 1.14214 19.0015 1.25426V4.00443H19.1063C19.6709 4.00443 20.0238 4.61564 19.7415 5.1046C19.6105 5.33151 19.3683 5.47131 19.1063 5.47131H19.0015V5.99522C19.0015 6.55981 18.3903 6.91268 17.9014 6.63039C17.6745 6.49939 17.5347 6.25722 17.5347 5.99522V5.47131H15.2199C14.4207 5.47126 13.9214 4.6061 14.321 3.91406C14.3548 3.85556 14.3942 3.80047 14.4387 3.74964L17.2107 0.581597ZM17.5347 4.00443V2.4391L16.165 4.00443H17.5347ZM5.0595 0.756347C2.39816 0.756347 0.239746 2.91435 0.239746 5.5761V6.13435C0.239746 6.16622 0.242246 6.19722 0.246871 6.22822C0.480746 13.6619 6.58 19.6162 14.0703 19.6162H14.2799C16.942 19.6162 19.0996 17.4582 19.0996 14.7965V14.558C19.0996 13.7869 18.6302 13.0935 17.9144 12.807L15.3302 11.7734C14.4741 11.4311 13.4964 11.6317 12.8444 12.2835L11.5548 13.5731C11.4978 13.6301 11.4337 13.6368 11.3947 13.6251C8.92187 12.8699 6.98645 10.9345 6.23133 8.46168C6.21916 8.42226 6.22629 8.35814 6.28287 8.30114L7.57246 7.01197C8.22458 6.35997 8.42541 5.38206 8.08291 4.52581L7.04858 1.94201C6.76225 1.2261 6.069 0.756597 5.29796 0.756347H5.0595ZM11.1432 0.232472C10.2993 0.232306 9.547 0.764181 9.26566 1.55981C9.08075 2.09326 9.54262 2.62685 10.0971 2.52026C10.3513 2.47139 10.561 2.2921 10.6487 2.04847C10.723 1.83906 10.9211 1.69918 11.1432 1.69935H12.0142C12.3923 1.6991 12.6289 2.10826 12.4401 2.43585C12.3876 2.52685 12.3074 2.59864 12.2111 2.64068L10.3453 3.4571C9.62079 3.7741 9.15262 4.48985 9.1525 5.28064V5.99522C9.1525 6.40006 9.48108 6.72864 9.88591 6.72864H13.2388C13.8034 6.72864 14.1563 6.11743 13.874 5.62847C13.743 5.40156 13.5008 5.26176 13.2388 5.26176H10.6194C10.6267 5.06056 10.7487 4.88131 10.9333 4.80076L12.7992 3.98476C14.1803 3.3811 14.3901 1.50868 13.1767 0.614347C12.84 0.366139 12.4325 0.232306 12.0142 0.232472H11.1432Z" fill="#15508B"/>
</svg>
