<svg width="49" height="48" viewBox="0 0 49 48" fill="none" xmlns="http://www.w3.org/2000/svg">
<g clip-path="url(#clip0_26_3064)">
<path fill-rule="evenodd" clip-rule="evenodd" d="M22.7957 27.7181L22.4806 32.2344C22.8219 32.2351 23.1678 32.2355 23.5183 32.2355C32.2851 32.2355 38.1457 32.0034 41.5229 31.8083C44.3332 31.646 46.7042 29.6215 47.0422 26.7136C47.3074 24.4312 47.5595 21.0369 47.5595 16.3785C47.5595 11.7201 47.3074 8.32578 47.0422 6.04338C46.7042 3.13558 44.3332 1.11098 41.5229 0.948684C38.1457 0.753584 32.2852 0.521484 23.5183 0.521484C21.1604 0.521484 19.0127 0.538284 17.0671 0.566684C19.7199 2.30198 21.4726 5.29918 21.4726 8.70578C21.4726 10.5993 20.931 12.3664 19.9944 13.8605C22.8283 13.9129 25.6464 14.017 28.3673 14.1731C29.9924 14.2663 32.4205 15.2689 33.017 17.9945C33.2716 19.1579 33.3522 20.6803 33.0049 22.5786C32.5419 25.1101 30.4519 26.677 28.3327 26.9652L22.7957 27.7181ZM11.7533 15.3555C8.0808 15.3555 5.1036 12.3784 5.1036 8.70578C5.1036 5.03318 8.0808 2.05608 11.7533 2.05608C15.4259 2.05608 18.403 5.03318 18.403 8.70578C18.403 12.3784 15.4259 15.3555 11.7533 15.3555ZM28.1913 17.2371C20.8376 16.8156 12.7568 16.778 5.6204 17.1244C3.5983 17.2226 1.8928 18.6682 1.546 20.6817C1.13 23.0972 0.626798 26.7469 0.520398 30.7309C0.490398 31.8537 1.2415 32.8615 2.4059 33.0196C2.863 33.0816 3.4333 33.1442 4.1323 33.1972C4.408 33.218 4.6174 33.4384 4.6271 33.6998L5.0126 44.0844C5.0747 45.7564 6.2967 47.1895 8.0006 47.3684C8.3034 47.4002 8.6264 47.4308 8.9651 47.4584C9.8337 47.5293 10.562 46.8531 10.5947 46.0003L10.9479 36.8195C10.9584 36.5448 11.1842 36.3276 11.459 36.3276H12.0477C12.3225 36.3276 12.5483 36.5448 12.5588 36.8195L12.9125 46.0154C12.9452 46.8648 13.6679 47.5398 14.5334 47.4743C14.9029 47.4463 15.2531 47.4146 15.5784 47.3817C17.2426 47.2129 18.4544 45.841 18.5679 44.2122L19.8784 25.4287C19.8953 25.1869 20.0795 24.9901 20.3197 24.9574L27.9188 23.9241C28.9129 23.7888 29.7941 23.0725 29.9856 22.0264C30.2642 20.503 30.1809 19.3924 30.0185 18.6508C29.8165 17.7281 28.9748 17.2821 28.1913 17.2371Z" fill="white"/>
</g>
<defs>
<clipPath id="clip0_26_3064">
<rect width="48" height="48" fill="white" transform="translate(0.0395508)"/>
</clipPath>
</defs>
</svg>
