<svg width="24" height="24" viewBox="0 0 24 24" fill="none" xmlns="http://www.w3.org/2000/svg">
<path d="M14.7923 23.1469C14.7958 23.1137 14.7976 23.08 14.7976 23.0459V14.9441H17.567C18.0111 14.9441 18.4108 14.6517 18.4757 14.2125C18.583 13.4858 18.5374 12.8251 18.468 12.3552C18.4042 11.9239 18.0198 11.6399 17.5838 11.6399H14.7976C14.7976 9.14317 15.2131 8.77987 17.555 8.73442C18.0044 8.72572 18.4077 8.42902 18.4729 7.98432C18.5826 7.23682 18.5389 6.58372 18.4701 6.12427C18.4065 5.69987 18.026 5.42322 17.5969 5.42697C13.4577 5.46307 11.1002 5.95247 11.1002 11.6399H8.9558C8.53905 11.6399 8.16905 11.9011 8.106 12.3131C8.0381 12.7569 7.99705 13.4003 8.1104 14.1828C8.1759 14.6348 8.5825 14.9441 9.0393 14.9441H11.1002V23.1713C7.8952 23.1502 5.60115 23.0237 4.1074 22.9024C2.46348 22.7688 1.19506 21.5004 1.0615 19.8565C0.928591 18.2207 0.789551 15.625 0.789551 11.9243C0.789551 8.22362 0.928591 5.62797 1.0615 3.99217C1.19506 2.34824 2.46348 1.07983 4.10741 0.946261C5.7432 0.813351 8.33885 0.674316 12.0396 0.674316C15.7403 0.674316 18.3359 0.813356 19.9717 0.946261C21.6156 1.07983 22.8841 2.34824 23.0176 3.99217C23.1505 5.62797 23.2896 8.22362 23.2896 11.9243C23.2896 15.625 23.1505 18.2207 23.0176 19.8565C22.8841 21.5004 21.6156 22.7688 19.9717 22.9024C18.7765 22.9995 17.0689 23.0999 14.7923 23.1469Z" fill="white"/>
</svg>
