<svg width="49" height="48" viewBox="0 0 49 48" fill="none" xmlns="http://www.w3.org/2000/svg">
<path d="M43.6506 20.083H42.0396V20H24.0396V28H35.3425C33.6935 32.657 29.2626 36 24.0396 36C17.4125 36 12.0396 30.627 12.0396 24C12.0396 17.373 17.4125 12 24.0396 12C27.0985 12 29.8816 13.154 32.0006 15.039L37.6576 9.382C34.0856 6.053 29.3076 4 24.0396 4C12.9946 4 4.03955 12.955 4.03955 24C4.03955 35.045 12.9946 44 24.0396 44C35.0846 44 44.0395 35.045 44.0395 24C44.0395 22.659 43.9016 21.35 43.6506 20.083Z" fill="#FFC107"/>
<path d="M6.3457 14.691L12.9167 19.51C14.6947 15.108 19.0007 12 24.0397 12C27.0987 12 29.8817 13.154 32.0007 15.039L37.6577 9.382C34.0857 6.053 29.3077 4 24.0397 4C16.3577 4 9.69571 8.337 6.3457 14.691Z" fill="#FF3D00"/>
<path d="M24.0394 44C29.2054 44 33.8994 42.023 37.4484 38.8079L31.2584 33.57C29.1829 35.1484 26.6468 36.002 24.0394 35.9999C18.8374 35.9999 14.4204 32.6829 12.7563 28.054L6.23438 33.0789C9.54437 39.556 16.2664 44 24.0394 44Z" fill="#4CAF50"/>
<path d="M43.6506 20.0831H42.0396V20H24.0396V28H35.3425C34.5537 30.2165 33.1329 32.1532 31.2555 33.5711L31.2585 33.5691L37.4486 38.807C37.0105 39.205 44.0396 34 44.0396 24.0001C44.0396 22.6591 43.9015 21.3501 43.6506 20.0831Z" fill="#1976D2"/>
</svg>
