<svg width="24" height="24" viewBox="0 0 24 24" fill="none" xmlns="http://www.w3.org/2000/svg">
<path d="M0.279785 5.20431C0.279785 2.42082 2.5363 0.164307 5.31979 0.164307H18.76C21.5433 0.164307 23.7998 2.42082 23.7998 5.20431V18.6443C23.7998 21.4278 21.5433 23.6843 18.76 23.6843H5.31979C2.5363 23.6843 0.279785 21.4278 0.279785 18.6443V5.20431Z" fill="white"/>
<path d="M19.9866 5.1314C19.9866 5.80751 19.4385 6.35574 18.7624 6.35574C18.0863 6.35574 17.5381 5.80751 17.5381 5.1314C17.5381 4.45528 18.0863 3.90723 18.7624 3.90723C19.4385 3.90723 19.9866 4.45528 19.9866 5.1314Z" fill="#2859C5"/>
<path fill-rule="evenodd" clip-rule="evenodd" d="M18.7589 6.66325C19.5605 6.66325 20.2105 6.01319 20.2105 5.21142C20.2105 4.40965 19.5606 3.75977 18.7589 3.75977C17.9571 3.75977 17.3072 4.40965 17.3072 5.21142C17.3072 6.01319 17.9571 6.66325 18.7589 6.66325ZM6.07812 11.9241C6.07812 8.63142 8.74744 5.96211 12.0401 5.96211C15.3327 5.96211 18.002 8.63142 18.002 11.9241C18.002 15.2167 15.3327 17.886 12.0401 17.886C8.74744 17.886 6.07812 15.2167 6.07812 11.9241Z" fill="#15508B"/>
</svg>
