<svg width="16" height="17" viewBox="0 0 16 17" fill="none" xmlns="http://www.w3.org/2000/svg">
<g clip-path="url(#clip0_1_3339)">
<path fill-rule="evenodd" clip-rule="evenodd" d="M1.31083 7.13582C1.31083 3.44149 4.30567 0.446655 8 0.446655C11.6943 0.446655 14.6892 3.44149 14.6892 7.13582C14.6892 9.53275 13.4523 11.549 12.1076 13.037C10.7586 14.5297 9.2513 15.5467 8.5957 15.9549C8.22797 16.1839 7.77203 16.1839 7.4043 15.9549C6.7487 15.5467 5.2414 14.5297 3.89243 13.037C2.54767 11.549 1.31083 9.53275 1.31083 7.13582ZM8 9.88012C9.51563 9.88012 10.7443 8.65145 10.7443 7.13582C10.7443 5.62019 9.51563 4.39156 8 4.39156C6.48437 4.39156 5.25573 5.62022 5.25573 7.13582C5.25573 8.65142 6.48437 9.88012 8 9.88012Z" fill="#15508B"/>
</g>
<defs>
<clipPath id="clip0_1_3339">
<rect width="16" height="16" fill="white" transform="translate(0 0.286621)"/>
</clipPath>
</defs>
</svg>
