<svg width="20" height="18" viewBox="0 0 20 18" fill="none" xmlns="http://www.w3.org/2000/svg">
<path fill-rule="evenodd" clip-rule="evenodd" d="M3.85944 16.8386C3.19123 16.7672 2.56661 16.4726 2.08653 16.0024C1.60645 15.5321 1.29895 14.9138 1.21373 14.2472C0.999442 12.5258 0.785156 10.7472 0.785156 8.92433C0.785156 7.5829 0.902299 6.26433 1.04801 4.97718C1.05519 4.91416 1.0791 4.85421 1.11725 4.80353C1.15539 4.75285 1.2064 4.7133 1.26498 4.68896C1.32355 4.66463 1.38757 4.6564 1.4504 4.66513C1.51323 4.67386 1.57258 4.69923 1.6223 4.73861L7.71801 9.54576C8.37947 10.0671 9.1972 10.3507 10.0394 10.3507C10.8817 10.3507 11.6994 10.0671 12.3609 9.54576L18.458 4.73861C18.5077 4.69961 18.567 4.67455 18.6296 4.66603C18.6922 4.6575 18.756 4.66582 18.8143 4.69011C18.8727 4.71441 18.9235 4.75382 18.9615 4.80427C18.9996 4.85473 19.0235 4.91441 19.0309 4.97718C19.1766 6.26433 19.2937 7.5829 19.2937 8.92433C19.2937 10.7472 19.0794 12.5272 18.8652 14.2472C18.7799 14.9138 18.4724 15.5321 17.9924 16.0024C17.5123 16.4726 16.8877 16.7672 16.2194 16.8386L16.028 16.8586C14.0937 17.06 12.0909 17.27 10.0394 17.27C7.98801 17.27 5.98516 17.06 4.05087 16.8586L3.85944 16.8386ZM18.2966 2.19433C18.3465 2.26434 18.3669 2.35112 18.3536 2.43605C18.3402 2.52098 18.2941 2.59729 18.2252 2.64861L11.2552 8.1429C10.9089 8.41635 10.4806 8.56509 10.0394 8.56509C9.59825 8.56509 9.16995 8.41635 8.82373 8.1429L1.85373 2.64861C1.78476 2.59729 1.73865 2.52098 1.72529 2.43605C1.71194 2.35112 1.73241 2.26434 1.7823 2.19433C2.0281 1.86419 2.3395 1.58844 2.69695 1.38439C3.05441 1.18035 3.45019 1.05241 3.85944 1.00861L4.05087 0.990042C5.98516 0.787185 7.98801 0.578613 10.0394 0.578613C12.0909 0.578613 14.0937 0.787185 16.028 0.990042L16.2194 1.01004C16.6286 1.05366 17.0243 1.18138 17.3817 1.38518C17.7392 1.58898 18.0506 1.86446 18.2966 2.19433Z" fill="#15508B"/>
</svg>
