<svg width="49" height="48" viewBox="0 0 49 48" fill="none" xmlns="http://www.w3.org/2000/svg">
<path fill-rule="evenodd" clip-rule="evenodd" d="M4.63916 20.5475C4.63916 9.46448 13.6237 0.47998 24.7067 0.47998C35.7897 0.47998 44.7742 9.46448 44.7742 20.5475C44.7742 27.7383 41.0637 33.7871 37.0294 38.251C32.9824 42.729 28.4606 45.7801 26.4938 47.0048C25.3906 47.6917 24.0228 47.6917 22.9196 47.0048C20.9528 45.7801 16.4309 42.729 12.384 38.251C8.34966 33.7871 4.63916 27.7383 4.63916 20.5475ZM22.4227 10.4548C23.3828 8.60388 26.0303 8.60388 26.9904 10.4548L29.0943 14.511L33.5988 15.398C35.5581 15.7838 36.3501 18.1576 35.0149 19.6426L31.7911 23.228L32.3797 27.9982C32.6311 30.035 30.5136 31.5317 28.6774 30.6153L24.7066 28.6333L20.7357 30.6153C18.8996 31.5317 16.782 30.035 17.0334 27.9982L17.622 23.228L14.3982 19.6426C13.063 18.1576 13.855 15.7838 15.8143 15.398L20.3188 14.511L22.4227 10.4548Z" fill="white"/>
</svg>
