<svg width="49" height="48" viewBox="0 0 49 48" fill="none" xmlns="http://www.w3.org/2000/svg">
<path fill-rule="evenodd" clip-rule="evenodd" d="M20.3719 8.5C20.3719 10.2239 19.6871 11.8772 18.4681 13.0962C17.2491 14.3152 15.5958 15 13.8719 15C12.148 15 10.4947 14.3152 9.27571 13.0962C8.05672 11.8772 7.3719 10.2239 7.3719 8.5C7.3719 6.77609 8.05672 5.12279 9.27571 3.90381C10.4947 2.68482 12.148 2 13.8719 2C15.5958 2 17.2491 2.68482 18.4681 3.90381C19.6871 5.12279 20.3719 6.77609 20.3719 8.5ZM13.8719 16.5C11.4989 16.5 9.6669 16.583 8.3149 16.684C6.2409 16.838 4.6129 18.328 4.1729 20.339C3.4322 23.7436 2.90054 27.1904 2.5809 30.66C2.53829 31.0966 2.5839 31.5373 2.71503 31.9559C2.84615 32.3745 3.06011 32.7625 3.34418 33.0967C3.62824 33.431 3.97663 33.7047 4.36861 33.9016C4.76059 34.0986 5.18816 34.2146 5.6259 34.243C6.1869 34.281 6.8279 34.319 7.5459 34.353L8.2139 43.374C8.3239 44.873 9.3999 46.173 10.9569 46.344C12.8949 46.5536 14.8499 46.5532 16.7879 46.343C18.3449 46.173 19.4209 44.873 19.5319 43.374L19.6129 42.273C19.4501 40.5201 19.37 38.7605 19.3729 37C19.3729 34.858 19.4859 33.067 19.6129 31.724C19.8869 28.842 21.7429 26.321 24.5029 25.321C24.2427 23.651 23.9323 21.9893 23.5719 20.338C23.1319 18.328 21.5049 16.838 19.4299 16.684C17.5805 16.5542 15.7269 16.4928 13.8729 16.5H13.8719ZM29.4749 25.357C29.156 26.1221 28.8799 26.9043 28.6479 27.7C27.8259 27.76 27.1309 27.83 26.5479 27.9C24.3579 28.164 22.8009 29.89 22.5999 32.008C22.4458 33.6675 22.3701 35.3334 22.3729 37C22.3729 39.038 22.4799 40.733 22.5999 41.992C22.8009 44.109 24.3569 45.836 26.5479 46.101C28.2449 46.305 30.9009 46.5 34.8729 46.5C38.8449 46.5 41.5009 46.305 43.1979 46.1C45.3879 45.836 46.9449 44.11 47.1459 41.992C47.2659 40.733 47.3729 39.038 47.3729 37C47.3729 34.962 47.2659 33.267 47.1459 32.008C46.9449 29.891 45.3889 28.164 43.1979 27.899C42.4995 27.8164 41.7993 27.7498 41.0979 27.699C40.8658 26.9036 40.5897 26.1217 40.2709 25.357C39.6909 23.946 38.4269 22.807 36.7599 22.609C36.1336 22.5356 35.5035 22.4992 34.8729 22.5C34.1529 22.5 33.5199 22.545 32.9869 22.609C31.3199 22.807 30.0569 23.946 29.4749 25.357ZM34.8729 25.5C34.2789 25.5 33.7639 25.538 33.3399 25.588C32.8999 25.64 32.4759 25.948 32.2499 26.499C32.1149 26.826 31.9779 27.179 31.8489 27.541C32.7589 27.515 33.7649 27.5 34.8729 27.5C35.9809 27.5 36.9869 27.515 37.8979 27.541C37.7731 27.1905 37.6397 26.843 37.4979 26.499C37.2709 25.949 36.8459 25.64 36.4059 25.588C35.8971 25.5286 35.3852 25.4992 34.8729 25.5Z" fill="white"/>
</svg>
