<svg width="21" height="21" viewBox="0 0 21 21" fill="none" xmlns="http://www.w3.org/2000/svg">
<g opacity="0.6" clip-path="url(#clip0_26_3772)">
<path d="M1.70605 4.22209C1.70605 5.14256 2.45225 5.88875 3.37272 5.88875C4.2932 5.88875 5.03939 5.14256 5.03939 4.22209C5.03939 3.30161 4.2932 2.55542 3.37272 2.55542C2.45225 2.55542 1.70605 3.30161 1.70605 4.22209Z" stroke="black" stroke-width="1.5"/>
<path d="M1.70605 10.8886C1.70605 11.8091 2.45225 12.5553 3.37272 12.5553C4.2932 12.5553 5.03939 11.8091 5.03939 10.8886C5.03939 9.96809 4.2932 9.22192 3.37272 9.22192C2.45225 9.22192 1.70605 9.96809 1.70605 10.8886Z" stroke="black" stroke-width="1.5"/>
<path d="M8.37305 4.22209C8.37305 5.14256 9.11921 5.88875 10.0397 5.88875C10.9602 5.88875 11.7064 5.14256 11.7064 4.22209C11.7064 3.30161 10.9602 2.55542 10.0397 2.55542C9.11921 2.55542 8.37305 3.30161 8.37305 4.22209Z" stroke="black" stroke-width="1.5"/>
<path d="M8.37305 10.8886C8.37305 11.8091 9.11921 12.5553 10.0397 12.5553C10.9602 12.5553 11.7064 11.8091 11.7064 10.8886C11.7064 9.96809 10.9602 9.22192 10.0397 9.22192C9.11921 9.22192 8.37305 9.96809 8.37305 10.8886Z" stroke="black" stroke-width="1.5"/>
<path d="M8.37305 17.5553C8.37305 18.4758 9.11921 19.222 10.0397 19.222C10.9602 19.222 11.7064 18.4758 11.7064 17.5553C11.7064 16.6348 10.9602 15.8887 10.0397 15.8887C9.11921 15.8887 8.37305 16.6348 8.37305 17.5553Z" stroke="black" stroke-width="1.5"/>
<path d="M15.0396 4.22209C15.0396 5.14256 15.7857 5.88875 16.7062 5.88875C17.6267 5.88875 18.3729 5.14256 18.3729 4.22209C18.3729 3.30161 17.6267 2.55542 16.7062 2.55542C15.7857 2.55542 15.0396 3.30161 15.0396 4.22209Z" stroke="black" stroke-width="1.5"/>
<path d="M15.0396 10.8886C15.0396 11.8091 15.7857 12.5553 16.7062 12.5553C17.6267 12.5553 18.3729 11.8091 18.3729 10.8886C18.3729 9.96809 17.6267 9.22192 16.7062 9.22192C15.7857 9.22192 15.0396 9.96809 15.0396 10.8886Z" stroke="black" stroke-width="1.5"/>
</g>
<defs>
<clipPath id="clip0_26_3772">
<rect width="20" height="20" fill="white" transform="translate(0.0395508 0.888672)"/>
</clipPath>
</defs>
</svg>
