<svg width="21" height="21" viewBox="0 0 21 21" fill="none" xmlns="http://www.w3.org/2000/svg">
<g opacity="0.6">
<path d="M2.12305 10.8887C2.12305 7.15676 2.12305 5.29079 3.28241 4.13141C4.44179 2.97205 6.30776 2.97205 10.0397 2.97205C13.7716 2.97205 15.6376 2.97205 16.797 4.13141C17.9564 5.29079 17.9564 7.15676 17.9564 10.8887C17.9564 14.6206 17.9564 16.4866 16.797 17.646C15.6376 18.8054 13.7716 18.8054 10.0397 18.8054C6.30776 18.8054 4.44179 18.8054 3.28241 17.646C2.12305 16.4866 2.12305 14.6206 2.12305 10.8887Z" stroke="black" stroke-width="1.5" stroke-linejoin="round"/>
<path d="M7.53955 8.38863L10.873 11.7216M13.3729 7.5553L9.20622 11.722" stroke="black" stroke-width="1.5" stroke-linecap="round" stroke-linejoin="round"/>
</g>
</svg>
