<svg width="24" height="22" viewBox="0 0 24 22" fill="none" xmlns="http://www.w3.org/2000/svg">
<path fill-rule="evenodd" clip-rule="evenodd" d="M14.5682 0.917963C16.8002 0.343678 19.4933 1.13568 21.1339 2.88253H22.9733C23.1183 2.88267 23.2609 2.91957 23.3877 2.98978C23.5145 3.06 23.6215 3.16124 23.6985 3.28403C23.7756 3.40682 23.8203 3.54715 23.8284 3.6919C23.8364 3.83664 23.8077 3.98107 23.7448 4.11168L21.9362 7.86082C22.4505 12.2271 20.7413 16.4031 17.3042 18.8717C13.7899 21.3968 8.61789 22.0328 2.48418 19.5214C2.1508 19.3957 1.86488 19.1692 1.66618 18.8734C1.46748 18.5776 1.36588 18.2273 1.37549 17.8711C1.38511 17.515 1.50547 17.1706 1.71984 16.886C1.9342 16.6014 2.23193 16.3907 2.57161 16.2831C3.51265 16.0282 4.41463 15.6464 5.25275 15.1482C3.37575 14.0204 1.90617 12.3247 1.05653 10.3065C0.206892 8.28828 0.0212548 6.0521 0.526466 3.92139C0.56464 3.60305 0.691326 3.30179 0.892133 3.05184C1.09294 2.80189 1.35982 2.61326 1.66245 2.50739C1.96509 2.40151 2.29135 2.38262 2.60418 2.45288C2.91702 2.52313 3.20388 2.67971 3.43218 2.90482C5.85447 5.28596 7.97161 6.26996 9.43904 6.67282C10.0082 6.82882 10.4848 6.89911 10.8482 6.92825C10.735 5.41968 10.9922 4.16139 11.5613 3.16711C12.2539 1.95511 13.3562 1.22996 14.5682 0.917963Z" fill="white"/>
</svg>
