<svg width="89" height="26" viewBox="0 0 89 26" fill="none" xmlns="http://www.w3.org/2000/svg">
<path d="M48.5616 3.15567V1.25938C48.5616 0.970486 48.7838 0.777894 49.0431 0.777894H57.5616C57.8357 0.777894 58.0505 0.977894 58.0505 1.25938V2.88901C58.0505 3.15567 57.8135 3.51863 57.4061 4.0816L52.9912 10.3705C54.6283 10.3335 56.3616 10.5779 57.8505 11.4149C58.1838 11.6075 58.2801 11.8816 58.3024 12.1557V14.1853C58.3024 14.4668 57.9987 14.7927 57.6801 14.6223C55.0579 13.252 51.5764 13.0964 48.6801 14.6372C48.3838 14.7927 48.0727 14.4816 48.0727 14.2001V12.2742C48.0727 11.9705 48.0727 11.4372 48.3913 10.9705L53.5024 3.65197H49.0505C48.7764 3.65197 48.5616 3.45938 48.5542 3.17049L48.5616 3.15567ZM17.5024 15.0075H14.9098C14.6653 14.9927 14.4653 14.8075 14.4431 14.5705V1.29641C14.4431 1.02975 14.6653 0.814931 14.9468 0.814931H17.3616C17.6135 0.829746 17.8135 1.01493 17.8357 1.25938V2.99271H17.8801C18.5098 1.31863 19.695 0.53345 21.2875 0.53345C22.8801 0.53345 23.9246 1.31863 24.6505 2.99271C25.2801 1.31863 26.7024 0.53345 28.2283 0.53345C29.3172 0.53345 30.5024 0.977894 31.2283 1.9853C32.0505 3.09641 31.8801 4.72604 31.8801 6.14826V14.526C31.8801 14.7927 31.6505 15.0075 31.3764 15.0075H28.7913C28.532 14.9927 28.3246 14.7853 28.3246 14.5335V7.48901C28.3246 6.93345 28.369 5.53345 28.2505 5.00012C28.0579 4.10382 27.4727 3.85197 26.7246 3.85197C26.095 3.85197 25.4431 4.27419 25.1764 4.94086C24.9098 5.61493 24.932 6.72604 24.932 7.4816V14.5186C24.932 14.7853 24.7098 15.0001 24.4357 15.0001H21.8505C21.5913 14.9853 21.3838 14.7779 21.3838 14.526V7.4816C21.3838 6.00012 21.6209 3.82234 19.7838 3.82234C17.9468 3.82234 17.9912 5.94826 17.9912 7.4816V14.5186C17.9912 14.7853 17.769 15.0001 17.495 15.0001L17.5024 15.0075ZM65.3838 0.53345C69.2283 0.53345 71.3098 3.82975 71.3098 8.02234C71.3098 12.2149 69.0061 15.289 65.3838 15.289C61.7616 15.289 59.5542 11.9853 59.5542 7.8816C59.5542 3.77789 61.6357 0.53345 65.3838 0.53345ZM65.4061 3.24456C63.495 3.24456 63.369 5.84456 63.369 7.45938C63.369 9.07419 63.3468 12.5409 65.3764 12.5409C67.4061 12.5409 67.4727 9.74826 67.4727 8.04456C67.4727 6.92604 67.4283 5.5853 67.0875 4.52604C66.7987 3.60012 66.2209 3.23715 65.3987 3.23715L65.4061 3.24456ZM76.295 15.0075H73.7098C73.4505 14.9927 73.2431 14.7853 73.2431 14.5335V1.25197C73.2579 1.00752 73.4727 0.814931 73.7394 0.814931H76.1468C76.3764 0.822339 76.5616 0.977894 76.6061 1.1853V3.21493H76.6579C77.3838 1.40012 78.3913 0.53345 80.1838 0.53345C81.3468 0.53345 82.4875 0.955672 83.2135 2.10382C83.8875 3.16308 83.8875 4.94827 83.8875 6.23715V14.5927C83.8579 14.8297 83.6431 15.0149 83.3987 15.0149H80.7987C80.5616 15.0001 80.369 14.8223 80.3394 14.5927V7.3853C80.3394 5.93345 80.5098 3.80752 78.7172 3.80752C78.0875 3.80752 77.5098 4.22975 77.2209 4.87419C76.8579 5.6816 76.8135 6.49641 76.8135 7.3853V14.5335C76.8135 14.8001 76.5838 15.0149 76.3098 15.0149L76.295 15.0075ZM12.4209 12.5705C11.9468 11.9186 11.4431 11.3853 11.4431 10.1705V6.14086C11.4431 4.43715 11.569 2.86678 10.3024 1.689C9.30977 0.733449 7.65792 0.400116 6.39866 0.400116C3.93199 0.400116 1.18384 1.31863 0.606066 4.36308C0.546806 4.68901 0.783843 4.85938 0.991251 4.90382L3.50236 5.17789C3.7394 5.16308 3.90977 4.93345 3.95421 4.70382C4.16903 3.65197 5.05051 3.14826 6.0357 3.14826C6.56903 3.14826 7.17644 3.34826 7.48755 3.82234C7.85051 4.35567 7.79866 5.0816 7.79866 5.69641V6.02975C6.29495 6.20012 4.33199 6.31123 2.92458 6.92604C1.30236 7.62975 0.161621 9.05197 0.161621 11.1557C0.161621 13.8446 1.85792 15.1927 4.0357 15.1927C5.88014 15.1927 6.88755 14.7557 8.30977 13.3112C8.78384 13.9927 8.93199 14.3186 9.79125 15.0372C9.98384 15.1409 10.2283 15.1334 10.4061 14.9779C10.9246 14.526 11.8653 13.7038 12.3913 13.2668C12.5987 13.089 12.5616 12.8075 12.3987 12.5779L12.4209 12.5705ZM7.32458 11.4075C6.90977 12.1335 6.25792 12.5779 5.53199 12.5779C4.5394 12.5779 3.95421 11.8223 3.95421 10.7038C3.95421 8.50382 5.93199 8.10382 7.80607 8.10382V8.65938C7.80607 9.66678 7.82829 10.5038 7.31718 11.4001L7.32458 11.4075ZM46.3913 12.5705C45.9172 11.9186 45.4135 11.3853 45.4135 10.1705V6.14086C45.4135 4.43715 45.532 2.86678 44.2727 1.689C43.2801 0.733449 41.6357 0.400116 40.3764 0.400116C37.9098 0.400116 35.1616 1.31863 34.5838 4.36308C34.5246 4.68901 34.7616 4.85938 34.969 4.90382L37.4801 5.17789C37.7172 5.16308 37.8875 4.93345 37.932 4.70382C38.1468 3.65197 39.0283 3.14826 40.0135 3.14826C40.5468 3.14826 41.1542 3.34826 41.4653 3.82234C41.8283 4.35567 41.7764 5.0816 41.7764 5.69641V6.02975C40.2727 6.20012 38.3098 6.31123 36.9098 6.92604C35.2875 7.62975 34.1468 9.05197 34.1468 11.1557C34.1468 13.8446 35.8431 15.1927 38.0209 15.1927C39.8653 15.1927 40.8727 14.7557 42.295 13.3112C42.7616 13.9927 42.9172 14.3186 43.7764 15.0372C43.969 15.1409 44.2135 15.1334 44.3838 14.9779C44.9024 14.526 45.8431 13.7038 46.3764 13.2668C46.5838 13.089 46.5542 12.8075 46.3764 12.5779L46.3913 12.5705ZM41.295 11.4075C40.8875 12.1335 40.2283 12.5779 39.5024 12.5779C38.5098 12.5779 37.932 11.8223 37.932 10.7038C37.932 8.50382 39.9098 8.10382 41.7838 8.10382V8.65938C41.7838 9.66678 41.8061 10.5038 41.295 11.4001V11.4075Z" fill="#010101"/>
<path d="M52.0204 20.1708C47.0797 23.6893 40.1908 25.593 34.1167 25.593C25.6056 25.593 18.0278 22.519 12.1834 17.2523C11.6426 16.7634 11.9908 16.193 12.6649 16.5782C19.0204 20.2449 26.6352 22.393 34.6278 22.393C40.0204 22.393 45.7463 21.319 51.1834 19.0079C52.376 18.5042 52.8649 19.556 52.013 20.1634L52.0204 20.1708Z" fill="#F7A51F"/>
<path d="M54.1318 17.7931C53.5096 16.9931 50.0133 17.4153 48.4503 17.6005C47.9762 17.6597 47.9022 17.2449 48.3318 16.9412C51.117 15.0005 55.68 15.5634 56.2059 16.2079C56.7392 16.8671 56.0651 21.4375 53.4577 23.6227C53.0577 23.9634 52.6799 23.7782 52.8577 23.3338C53.4429 21.8671 54.7614 18.5857 54.1392 17.7931H54.1318Z" fill="#F7A51F"/>
<path d="M86.8281 12.8372C87.117 12.8372 87.3688 12.9409 87.5762 13.1483C87.7837 13.3483 87.8874 13.6001 87.8874 13.889C87.8874 14.1779 87.7837 14.4298 87.5762 14.6298C87.3688 14.8372 87.1244 14.9409 86.8281 14.9409C86.5318 14.9409 86.2874 14.8372 86.0874 14.6298C85.8874 14.4223 85.7837 14.1779 85.7837 13.889C85.7837 13.6001 85.8874 13.3557 86.0948 13.1483C86.3022 12.9409 86.5466 12.8372 86.8355 12.8372H86.8281ZM88.0429 13.8816C88.0429 13.5483 87.9244 13.2594 87.6874 13.0298C87.4503 12.7927 87.1614 12.6742 86.8281 12.6742C86.4948 12.6742 86.2059 12.7927 85.9688 13.0298C85.7318 13.2668 85.6133 13.5483 85.6133 13.8816C85.6133 14.2149 85.7318 14.5038 85.9688 14.7409C86.2059 14.9779 86.4948 15.0964 86.8281 15.0964C87.1614 15.0964 87.4503 14.9779 87.6874 14.7409C87.9244 14.5038 88.0429 14.2149 88.0429 13.8816ZM87.1466 13.6223C87.1466 13.7186 87.1022 13.7927 87.0059 13.8298C86.954 13.852 86.8799 13.8594 86.7762 13.8594H86.5614V13.3853H86.7614C86.8948 13.3853 86.9911 13.4001 87.0503 13.4298C87.1096 13.4594 87.1392 13.526 87.1392 13.6223H87.1466ZM86.3318 13.2149V14.5409H86.5614V14.0149H86.7466C86.8725 14.0149 86.9614 14.0298 87.0133 14.0594C87.1022 14.1112 87.1392 14.2075 87.1392 14.3631V14.5112L87.1466 14.526C87.1466 14.526 87.1466 14.5335 87.1466 14.5409H87.3614V14.526C87.3614 14.526 87.3392 14.489 87.3392 14.4594C87.3392 14.4223 87.3392 14.3927 87.3392 14.3631V14.2668C87.3392 14.2001 87.317 14.1335 87.2651 14.0594C87.2133 13.9927 87.1392 13.9483 87.0355 13.9335C87.117 13.9186 87.1837 13.8964 87.2281 13.8668C87.317 13.8075 87.3614 13.726 87.3614 13.6075C87.3614 13.4446 87.2948 13.326 87.154 13.2742C87.0799 13.2446 86.954 13.2297 86.7911 13.2297H86.3244L86.3318 13.2149Z" fill="#010101"/>
</svg>
