<svg width="112" height="16" viewBox="0 0 112 16" fill="none" xmlns="http://www.w3.org/2000/svg">
<g clip-path="url(#clip0_26_3616)">
<path d="M19.8574 8.37727C19.8574 5.75589 21.8801 3.89398 24.7135 3.89398C26.5356 3.89398 27.9784 4.61674 28.6122 6.03118C28.6134 6.03539 26.2829 6.64943 26.2829 6.64943C25.8482 6.18078 25.3006 5.96482 24.6965 5.96482C23.4173 5.96482 22.414 6.85556 22.414 8.37582C22.414 9.89612 23.4173 10.7869 24.6965 10.7869C25.299 10.7869 25.844 10.5822 26.2772 10.1135L28.6064 10.6697C27.9713 12.0517 26.5344 12.8577 24.7118 12.8577C21.8801 12.8577 19.856 10.9972 19.856 8.37442L19.8574 8.37727Z" fill="#012A38"/>
<path d="M38.8467 7.74631V12.7307H36.323V8.13449C36.323 6.72712 35.6747 6.07922 34.5582 6.07922C33.3442 6.07922 32.4705 6.82452 32.4705 8.42671V12.7321H29.9468V1.33481L32.4705 0.722168V4.93016C33.151 4.24977 34.1222 3.89404 35.2387 3.89404C37.2942 3.89404 38.8484 5.09108 38.8484 7.74631H38.8467Z" fill="#012A38"/>
<path d="M49.8667 3.61731V12.7306H47.4557V11.727C46.8248 12.4878 45.9015 12.8605 44.7371 12.8605C42.2766 12.8605 40.3838 11.1129 40.3838 8.37725C40.3838 5.64157 42.2766 3.894 44.7371 3.894C45.8057 3.894 46.7121 4.2342 47.343 4.94565V4.23701L49.8667 3.61591V3.61731ZM47.3909 8.37725C47.3909 6.87247 46.4197 5.96625 45.1732 5.96625C43.927 5.96625 42.9401 6.87247 42.9401 8.37725C42.9401 9.88203 43.9113 10.7882 45.1732 10.7882C46.4354 10.7882 47.3909 9.88203 47.3909 8.37725Z" fill="#012A38"/>
<path d="M57.428 3.89388V6.22444C57.2178 6.20892 57.0555 6.19195 56.8619 6.19195C55.4704 6.19195 54.5471 6.95282 54.5471 8.61992V12.7305H52.0229V4.20018L54.4339 3.61719V5.1728C55.0496 4.33149 56.0844 3.89388 57.428 3.89388Z" fill="#012A38"/>
<path d="M67.7825 3.61725V11.2738C67.7825 14.5106 66.0347 15.9998 62.8953 15.9998C61.2453 15.9998 59.6415 15.5947 58.6225 14.8028L59.6263 12.9903C60.3699 13.5888 61.5839 13.977 62.7004 13.977C64.4805 13.977 65.2584 13.1682 65.2584 11.5984V11.2258C64.5948 11.9542 63.6394 12.3099 62.5071 12.3099C60.0962 12.3099 58.1538 10.6428 58.1538 8.10194C58.1538 5.56104 60.0962 3.89394 62.5071 3.89394C63.7211 3.89394 64.7249 4.29905 65.3885 5.14036V4.2073L67.7838 3.61865L67.7825 3.61725ZM65.2894 8.10194C65.2894 6.82302 64.3351 5.96614 63.0068 5.96614C61.6784 5.96614 60.7089 6.82443 60.7089 8.10194C60.7089 9.37941 61.6801 10.2377 63.0068 10.2377C64.3339 10.2377 65.2894 9.37941 65.2894 8.10194Z" fill="#012A38"/>
<path d="M72.2017 9.81156C72.6179 10.492 73.369 10.8378 74.3769 10.8378C75.3002 10.8378 75.9637 10.5625 76.562 9.99646L77.9061 11.4533C77.0972 12.3764 75.8832 12.862 74.3133 12.862C71.3023 12.862 69.3447 10.9691 69.3447 8.37879C69.3447 5.78851 71.3193 3.89551 74.0057 3.89551C76.4126 3.89551 78.4016 5.50194 78.5015 8.17692L72.2029 9.81296M71.8218 8.31809L76.0764 7.30315C75.8337 6.41242 75.0574 5.80684 74.0057 5.80684C72.7438 5.80684 71.8218 6.60864 71.8218 8.31809Z" fill="#012A38"/>
<path d="M93.374 9.81138C93.7907 10.4918 94.5418 10.8376 95.5493 10.8376C96.4725 10.8376 97.1361 10.5623 97.7344 9.99628L99.0784 11.4531C98.2695 12.3763 97.0556 12.8619 95.4861 12.8619C92.4751 12.8619 90.5171 10.9689 90.5171 8.37861C90.5171 5.78832 92.492 3.89532 95.178 3.89532C97.5849 3.89532 99.5739 5.50176 99.6743 8.17674L93.3757 9.81278M92.9946 8.31791L97.2488 7.30297C97.006 6.41224 96.2297 5.80666 95.178 5.80666C93.9162 5.80666 92.9946 6.60845 92.9946 8.31791Z" fill="#012A38"/>
<path d="M103.497 9.81138C103.913 10.4918 104.664 10.8376 105.672 10.8376C106.596 10.8376 107.259 10.5623 107.857 9.99628L109.201 11.4531C108.393 12.3763 107.179 12.8619 105.609 12.8619C102.598 12.8619 100.64 10.9689 100.64 8.37861C100.64 5.78832 102.615 3.89532 105.301 3.89532C107.708 3.89532 109.697 5.50176 109.797 8.17674L103.498 9.81278M103.117 8.31791L107.372 7.30297C107.129 6.41224 106.353 5.80666 105.301 5.80666C104.039 5.80666 103.117 6.60845 103.117 8.31791Z" fill="#012A38"/>
<path d="M89.532 8.37728C89.532 11.113 87.6392 12.8605 85.1943 12.8605C84.0283 12.8605 83.0909 12.4879 82.4588 11.727V12.7307H80.0474V1.33902L82.5715 0.722168V4.94569C83.2194 4.23284 84.1088 3.89404 85.1927 3.89404C87.6363 3.89404 89.5307 5.64161 89.5307 8.37728H89.532ZM86.9744 8.37728C86.9744 6.8725 86.0202 5.96628 84.7566 5.96628C83.4931 5.96628 82.5389 6.8725 82.5389 8.37728C82.5389 9.88206 83.4948 10.7883 84.7566 10.7883C86.0185 10.7883 86.9744 9.88206 86.9744 8.37728Z" fill="#012A38"/>
<path d="M5.3125 8.36214L15.3927 5.95816V0.731018H10.1656L5.3125 8.36214Z" fill="#FF3300"/>
<path d="M0.317383 8.27089C0.317383 8.89621 0.393606 9.50319 0.537589 10.0848L5.31305 8.36264L0.498073 6.62494C0.380888 7.15429 0.317383 7.70483 0.317383 8.26945V8.27089Z" fill="#FF3300"/>
<path d="M2.09375 3.41068L5.3122 8.36258L6.7958 0.806274C4.91696 1.07025 3.26114 2.02734 2.09375 3.41068Z" fill="#FF3300"/>
<path d="M5.3125 8.36176L15.3927 10.7643V15.9914H10.1656L5.3125 8.36176Z" fill="#FF3300"/>
<path d="M2.0932 13.3127L5.31165 8.36084L6.79384 15.9157C4.915 15.6518 3.25918 14.6947 2.0918 13.3113L2.0932 13.3127Z" fill="#FF3300"/>
</g>
<defs>
<clipPath id="clip0_26_3616">
<rect width="111.111" height="15.2778" fill="white" transform="translate(0.0400391 0.722229)"/>
</clipPath>
</defs>
</svg>
