<svg width="93" height="26" viewBox="0 0 93 26" fill="none" xmlns="http://www.w3.org/2000/svg">
<path fill-rule="evenodd" clip-rule="evenodd" d="M12.9818 1.18569C12.6619 1.18569 12.0906 1.23139 11.3365 1.29995C11.1765 1.3228 10.948 1.34565 10.8109 1.34565C10.6738 1.3685 10.5367 1.3685 10.5138 1.3685C10.491 1.3685 10.1939 1.39135 9.85113 1.43706C9.50835 1.48276 9.16557 1.55132 9.05131 1.55132C8.93705 1.57417 8.77709 1.59702 8.63998 1.61987C8.52572 1.64272 8.3429 1.68843 8.25149 1.68843C8.00012 1.71128 7.52023 1.84839 7.52023 1.87124C7.52023 1.8941 7.47453 1.8941 7.45168 1.87124C7.40597 1.87124 7.33742 1.87124 7.31457 1.87124C7.26886 1.8941 7.22316 1.8941 7.20031 1.91695C7.1089 1.9398 6.69756 2.05406 6.37764 2.14547C6.21767 2.19117 6.05771 2.23687 6.03486 2.23687C5.98915 2.23687 5.94345 2.25973 5.76063 2.32828C5.60067 2.39684 5.53212 2.41969 5.50926 2.41969C5.48641 2.41969 5.41786 2.44254 5.32645 2.48825C5.23504 2.53395 5.14363 2.5568 5.12078 2.5568C5.09793 2.5568 5.05223 2.57965 5.05223 2.6025C5.05223 2.62536 5.02937 2.64821 4.98367 2.64821C4.96082 2.64821 4.86941 2.67106 4.82371 2.71676C4.75515 2.76247 4.70945 2.78532 4.6866 2.76247C4.61804 2.69391 4.68659 10.8292 4.75515 11.2405C4.80085 11.4691 4.82371 11.6976 4.82371 11.789C4.84656 11.9718 4.98367 12.5659 5.07508 12.863C5.12078 13.0001 5.16649 13.1144 5.16649 13.1144C5.16649 13.1372 5.16648 13.1372 5.18934 13.1601C5.18934 13.1601 5.21219 13.2058 5.21219 13.2286C5.21219 13.2515 5.25789 13.3429 5.28074 13.4343C5.3036 13.5029 5.3493 13.5943 5.3493 13.6171C5.3493 13.64 5.37215 13.6628 5.395 13.6857C5.41786 13.7085 5.41786 13.7314 5.41786 13.7314C5.395 13.7314 5.41786 13.7999 5.46356 13.8685C5.50926 13.9371 5.53212 14.0285 5.53212 14.0513C5.53212 14.0742 5.55497 14.1199 5.55497 14.1199C5.57782 14.1199 5.66923 14.2798 5.76063 14.4627C5.85204 14.6455 5.94345 14.8054 5.98915 14.8283C6.01201 14.8511 6.03486 14.874 6.01201 14.8968C5.98915 14.9197 6.012 14.9425 6.03486 14.9425C6.05771 14.9425 6.08056 14.9654 6.08056 15.0111C6.08056 15.0568 6.12627 15.1254 6.17197 15.1939C6.21767 15.2625 6.26338 15.331 6.26338 15.3539C6.26338 15.3767 6.37764 15.5367 6.5376 15.7195C6.56045 15.7652 6.60616 15.8109 6.62901 15.8566C6.65186 15.9023 6.69756 15.9709 6.74327 16.0166C6.78897 16.0623 6.81182 16.108 6.81182 16.1308C6.81182 16.1537 6.83468 16.1765 6.85753 16.1765C6.88038 16.1765 6.90323 16.1994 6.90323 16.1994C6.90323 16.2451 7.13175 16.5193 7.38312 16.7935C7.47453 16.885 7.58879 17.0221 7.65734 17.0906C7.7259 17.1592 7.7716 17.2277 7.7716 17.2049C7.7716 17.182 7.88586 17.2963 8.02297 17.4334C8.3429 17.7533 8.84564 18.2104 8.9599 18.2789C9.00561 18.3018 9.07416 18.3703 9.09701 18.416C9.11987 18.4617 9.16557 18.5074 9.18842 18.5074C9.23413 18.5074 9.30268 18.5531 9.59976 18.8502C9.66831 18.9188 9.73687 18.9645 9.75972 18.9645C9.78257 18.9645 9.82828 19.0102 9.87398 19.0787C9.91968 19.1473 9.96539 19.193 9.98824 19.193C10.0111 19.193 10.2168 19.353 10.6052 19.7186C10.6966 19.81 10.7881 19.8786 10.8109 19.8786C10.8109 19.8786 10.8795 19.9243 10.9252 19.97C10.9709 20.0385 11.0394 20.0842 11.0394 20.0842C11.0623 20.0842 11.108 20.1299 11.1765 20.1985C11.3822 20.4042 11.5422 20.5413 11.565 20.5413C11.5879 20.5413 11.6336 20.587 11.7021 20.6555C11.7707 20.7241 11.8392 20.7698 11.8621 20.7469C11.8849 20.7241 11.8849 20.7241 11.8849 20.7469C11.8621 20.7698 11.9992 20.9526 12.0449 20.9526C12.0906 20.9526 12.2734 21.1583 12.2734 21.1811C12.2734 21.2497 12.182 21.204 12.0678 21.0897C11.9992 21.0212 11.9307 20.9754 11.9078 20.9754C11.8849 20.9754 11.8392 20.9526 11.8392 20.9069C11.8164 20.884 11.7935 20.8612 11.7707 20.8612C11.7478 20.8612 11.6793 20.8383 11.6564 20.7926C11.6336 20.7469 11.5193 20.6784 11.4508 20.6327C11.3822 20.587 11.2908 20.5184 11.2679 20.4727C11.2222 20.427 11.2222 20.427 11.2451 20.4727C11.2679 20.4956 11.2222 20.4727 11.1308 20.427C10.8338 20.1756 10.6967 20.0842 10.6281 20.0385C10.5824 20.0157 10.5367 19.97 10.5367 19.9471C10.5367 19.9243 10.5138 19.9243 10.5138 19.9243C10.491 19.9471 10.4453 19.9014 10.3996 19.8557C10.3539 19.81 10.2168 19.6957 10.1025 19.6272C9.98824 19.5358 9.87398 19.4672 9.85113 19.4444C9.82828 19.4215 9.73687 19.353 9.64546 19.2844C9.55405 19.2159 9.43979 19.1244 9.39409 19.0787C9.34839 19.033 9.30268 19.0102 9.27983 19.0102C9.25698 19.0102 9.21128 18.9645 9.14272 18.8959C9.07416 18.8274 9.05131 18.8274 9.05131 18.8502C9.07416 18.8731 9.05131 18.8731 9.00561 18.8274C8.89135 18.7131 8.61712 18.4846 8.61712 18.5303C8.61712 18.5531 8.54857 18.5074 8.48001 18.416C8.41146 18.3475 8.3429 18.2789 8.3429 18.3018C8.3429 18.3018 8.27435 18.2561 8.22864 18.2104C8.18294 18.1647 8.11438 18.0961 8.09153 18.0961C8.06868 18.0961 7.97727 18.0275 7.74875 17.8219C7.70305 17.7762 7.6802 17.7762 7.65734 17.7762C7.65734 17.7762 7.54309 17.7076 7.42883 17.5934C7.31457 17.4791 7.20031 17.3877 7.20031 17.4105C7.20031 17.4105 7.1546 17.3877 7.1089 17.342C6.94894 17.182 6.78897 17.0449 6.74327 17.0449C6.72042 17.0449 6.62901 16.9535 6.44619 16.7707C6.40049 16.7021 6.33193 16.6564 6.30908 16.6564C6.28623 16.6564 6.24052 16.6336 6.21767 16.5879C6.19482 16.5422 6.14912 16.5193 6.12627 16.5193C6.10341 16.5193 6.03486 16.4736 5.98915 16.4279C5.94345 16.3822 5.82919 16.268 5.71493 16.1765C5.44071 15.9252 4.93797 15.4453 4.96082 15.4453C4.96082 15.4453 4.91511 15.3996 4.84656 15.331C4.778 15.2625 4.70945 15.2168 4.70945 15.2168C4.70945 15.2168 4.64089 15.1482 4.57234 15.0339C4.52663 14.9425 4.45807 14.8511 4.43522 14.8511C4.41237 14.8511 4.38952 14.8054 4.38952 14.7826C4.38952 14.7369 4.34381 14.714 4.32096 14.7369C4.29811 14.7597 4.27526 14.714 4.25241 14.6683C4.22956 14.6226 4.2067 14.5541 4.18385 14.5312C4.161 14.5084 4.06959 14.3941 4.00104 14.2798C3.93248 14.1656 3.86392 14.0742 3.84107 14.0513C3.79537 14.0056 3.65826 13.7771 3.544 13.5714C3.47544 13.4343 3.40689 13.3429 3.40689 13.3201C3.38403 13.3201 3.38403 13.2972 3.40689 13.2744C3.42974 13.2515 3.40689 13.2286 3.38403 13.2286C3.36118 13.2286 3.33833 13.2058 3.33833 13.1601C3.33833 13.1144 3.29263 13.0001 3.24692 12.8859C3.20122 12.7716 3.13266 12.6345 3.13266 12.6116C3.13266 12.5659 3.08696 12.4288 3.04126 12.2689C2.99555 12.1318 2.94985 11.9489 2.94985 11.8575C2.90414 11.5148 2.88129 11.3548 2.85844 11.2634C2.78989 10.9435 2.76703 10.1665 2.76703 8.84108V7.3557L2.88129 7.28715C2.94985 7.24144 2.99555 7.21859 2.99555 7.21859C2.99555 7.21859 3.0184 7.21859 3.04126 7.19574C3.06411 7.15003 3.38403 6.99007 3.81822 6.78441L3.95533 6.71585V5.61896C3.95533 4.91055 3.93248 4.52206 3.90963 4.52206C3.88678 4.52206 3.86392 4.54492 3.86392 4.56777C3.86392 4.59062 3.86392 4.59062 3.84107 4.59062C3.81822 4.56777 3.74967 4.59062 3.68111 4.63632C3.5897 4.68203 3.49829 4.70488 3.47544 4.70488C3.45259 4.70488 3.40689 4.72773 3.40689 4.75058C3.40689 4.77344 3.38403 4.77344 3.36118 4.77344C3.33833 4.75059 3.31548 4.77344 3.31548 4.79629C3.31548 4.81914 3.31548 4.84199 3.29263 4.81914C3.26977 4.79629 3.17837 4.84199 3.06411 4.91055C2.94985 4.9791 2.85844 5.02481 2.85844 5.00196C2.85844 4.9791 2.81274 5.02481 2.74418 5.04766C2.67563 5.09336 2.62992 5.11622 2.62992 5.11622C2.62992 5.09336 2.30999 5.25333 2.28714 5.29903C2.26429 5.32188 2.26429 5.32188 2.26429 5.29903C2.26429 5.27618 2.21859 5.29903 2.15003 5.34474C2.08148 5.39044 1.99007 5.43614 1.94436 5.45899C1.87581 5.48185 1.8301 5.52755 1.8301 5.52755C1.8301 5.5504 1.69299 5.61896 1.62444 5.61896C1.60159 5.61896 1.60158 5.64181 1.60158 5.64181C1.60158 5.64181 1.57873 5.68751 1.55588 5.68751C1.53303 5.68751 1.48733 5.71036 1.48733 5.71036C1.48733 5.73322 1.39592 5.77892 1.28166 5.84748C1.1674 5.91603 1.07599 5.98459 1.09884 6.00744C1.12169 6.03029 1.09884 6.03029 1.07599 6.00744C1.05314 5.98459 0.984584 6.03029 0.93888 6.076C0.893176 6.1217 0.82462 6.1674 0.801768 6.1674C0.756064 6.1674 0.778916 10.0979 0.82462 10.5778C0.847472 10.7835 0.893175 11.0349 0.916027 11.172C0.938879 11.3091 0.961731 11.4691 0.961731 11.5833C0.961731 11.6747 1.03029 11.9032 1.07599 12.0861C1.12169 12.2689 1.1674 12.4517 1.19025 12.4745C1.25881 12.7716 1.46447 13.2515 1.53303 13.2972C1.55588 13.3201 1.55588 13.3201 1.53303 13.3201C1.51018 13.3201 1.53303 13.3886 1.60158 13.48C1.64729 13.5714 1.69299 13.6628 1.69299 13.6857C1.69299 13.7085 1.71584 13.7542 1.76155 13.7999C1.7844 13.8456 1.85296 13.9142 1.87581 13.9828C1.94436 14.1427 2.05862 14.3255 2.10433 14.3255C2.12718 14.3255 2.12718 14.3484 2.12718 14.3712C2.12718 14.3941 2.15003 14.4398 2.17288 14.4398C2.19573 14.4627 2.21859 14.4855 2.21859 14.5084C2.21859 14.5312 2.24144 14.5769 2.24144 14.5769C2.26429 14.5769 2.3557 14.6912 2.44711 14.8283C2.53851 14.9654 2.65277 15.0568 2.65277 15.0568C2.65277 15.0568 2.69848 15.1025 2.72133 15.1482C2.74418 15.1939 2.78988 15.2396 2.81274 15.2396C2.83559 15.2396 2.88129 15.2625 2.88129 15.2853C2.88129 15.3539 3.33833 15.8338 3.38403 15.8338C3.40689 15.8338 3.45259 15.8795 3.49829 15.948C3.544 16.0166 3.5897 16.0623 3.61255 16.0623C3.63541 16.0623 3.70396 16.1308 3.79537 16.1994C3.86393 16.268 3.95533 16.3365 3.95533 16.3365C3.95533 16.3365 4.04674 16.3822 4.1153 16.4508C4.43522 16.725 4.54948 16.8393 4.59519 16.8393C4.61804 16.8393 4.64089 16.8621 4.64089 16.885C4.64089 16.9078 4.70945 16.9535 4.778 16.9764C4.84656 17.0221 4.91511 17.0678 4.91511 17.0906C4.91511 17.1135 4.93797 17.1363 4.93797 17.1135C4.96082 17.0906 5.02937 17.1363 5.09793 17.2049C5.16648 17.2734 5.23504 17.3191 5.23504 17.2963C5.23504 17.2734 5.25789 17.2963 5.3036 17.342C5.3493 17.3877 5.41786 17.4334 5.46356 17.4563C5.50926 17.4791 5.57782 17.5477 5.62352 17.5705C5.66923 17.5934 5.71493 17.6391 5.71493 17.6391C5.73778 17.6391 5.78349 17.6619 5.82919 17.7076C5.94345 17.8219 6.19482 18.0047 6.24052 18.0047C6.26338 18.0047 6.30908 18.0504 6.35478 18.0733C6.56045 18.2561 6.72042 18.3475 6.74327 18.3246C6.76612 18.3018 6.76612 18.3246 6.76612 18.3475C6.76612 18.3932 6.90323 18.4846 7.33742 18.7817C7.42883 18.8274 7.54308 18.9188 7.58879 18.9645C7.79446 19.1244 8.2972 19.4672 8.2972 19.4444C8.2972 19.4215 8.3429 19.4672 8.41146 19.5358C8.48001 19.6043 8.54857 19.65 8.54857 19.6272C8.57142 19.6272 8.63998 19.65 8.70853 19.7186C8.77709 19.7871 8.84564 19.8329 8.84564 19.8329C8.8685 19.8329 8.93705 19.8786 9.00561 19.9471C9.07416 20.0157 9.16557 20.0614 9.18842 20.0614C9.21127 20.0614 9.23413 20.0842 9.25698 20.1299C9.27983 20.1528 9.30268 20.1756 9.30268 20.1756C9.32553 20.1756 9.37124 20.1985 9.43979 20.2442C9.4855 20.2899 9.5312 20.3356 9.5312 20.3127C9.5312 20.2899 9.57691 20.3356 9.64546 20.3813C9.71402 20.427 9.75972 20.4727 9.78257 20.4727C9.80542 20.4727 9.94254 20.5641 10.0796 20.6784C10.2396 20.7926 10.3996 20.9069 10.4681 20.9297C10.5367 20.9526 10.5824 20.9983 10.5824 20.9983C10.5824 20.9983 10.6281 21.044 10.6966 21.0669C10.7652 21.0897 10.8109 21.1354 10.8109 21.1583C10.8109 21.1811 10.8338 21.1811 10.8566 21.1811C10.9023 21.1811 10.9937 21.2497 11.108 21.3639C11.1308 21.3868 11.1765 21.4096 11.1765 21.4096C11.1994 21.4096 11.2679 21.4553 11.3365 21.501C11.4051 21.5467 11.4736 21.5924 11.4965 21.5924C11.5193 21.5924 11.565 21.6382 11.6107 21.6839C11.6564 21.7296 11.725 21.7753 11.725 21.7753C11.7478 21.7753 11.8164 21.821 11.8621 21.8667C11.9307 21.9124 11.9764 21.9581 11.9992 21.9581C12.0221 21.9581 12.0221 21.9809 11.9992 22.0266C11.9764 22.0723 11.9307 22.0952 11.9078 22.0952C11.8849 22.0952 11.7935 22.1637 11.7021 22.2323C11.6107 22.3237 11.5422 22.3694 11.5422 22.3466C11.5422 22.3237 11.5193 22.3694 11.4736 22.4151C11.4508 22.4608 11.3822 22.5065 11.3594 22.5065C11.3365 22.5065 11.3137 22.5294 11.3137 22.5294C11.3137 22.5522 11.1537 22.6893 10.948 22.8493C10.7424 23.0093 10.5824 23.1464 10.5824 23.1692C10.5824 23.1921 10.5595 23.1921 10.5367 23.1921C10.5138 23.1921 10.4224 23.2606 10.3539 23.352C10.2625 23.4435 10.1939 23.512 10.1711 23.512C10.1482 23.512 10.1254 23.5349 10.0796 23.5806C10.0339 23.6263 9.96539 23.672 9.91968 23.7177C9.73687 23.8548 9.5312 24.0605 9.5312 24.1062C9.5312 24.129 9.50835 24.1519 9.50835 24.129C9.4855 24.129 9.43979 24.1519 9.39409 24.1976C9.34839 24.2433 9.32553 24.289 9.34839 24.289C9.37124 24.289 9.34839 24.3118 9.32553 24.3347C9.27983 24.3575 9.25698 24.4032 9.25698 24.4261C9.25698 24.4489 9.23413 24.4718 9.21127 24.4489C9.18842 24.4261 9.18842 24.4489 9.18842 24.4946C9.21127 24.5403 9.18842 24.5403 9.16557 24.5403C9.14272 24.5175 9.11987 24.5175 9.11987 24.5403C9.11987 24.5632 9.09702 24.6318 9.07416 24.7232C9.05131 24.8146 9.02846 25.1116 9.02846 25.3859V25.8886H13.4617H17.9864L17.9636 25.2945C17.9636 24.9745 17.9407 24.6775 17.9179 24.6318C17.895 24.6089 17.8722 24.5632 17.8722 24.5403C17.8722 24.4946 17.6893 24.2433 17.5065 24.0833C17.2094 23.8091 17.1866 23.7634 17.1409 23.7634C17.118 23.7634 17.0723 23.7177 17.0495 23.6948C17.0266 23.6491 16.9809 23.6263 16.9809 23.6263C16.9809 23.6263 16.9124 23.6034 16.8667 23.5577C16.6381 23.3292 16.4096 23.1464 16.3182 23.0778C16.2497 23.0321 16.1811 22.9864 16.1583 22.9407C16.1354 22.895 16.0668 22.8722 16.044 22.8722C16.0211 22.8722 15.9983 22.8493 15.9754 22.8265C15.9526 22.8036 15.9297 22.7808 15.9297 22.7808C15.9069 22.7808 15.8383 22.7122 15.7469 22.6208C15.6098 22.4837 15.4041 22.4151 15.4041 22.5294C15.4041 22.5522 15.4041 22.5522 15.3813 22.5294C15.3584 22.5065 15.3356 22.5294 15.2899 22.5522C15.2442 22.5751 15.0614 22.6893 14.8328 22.7579C14.6272 22.8493 14.4215 22.9407 14.4215 22.9636C14.4215 22.9864 14.3758 22.9864 14.3301 22.9864C14.2844 22.9864 14.2615 23.0093 14.2615 23.0321C14.2615 23.055 14.2615 23.055 14.2387 23.055C14.2158 23.0321 14.1701 23.055 14.1244 23.0778C14.0787 23.1007 13.8731 23.2149 13.6445 23.3063C13.0275 23.5806 12.9133 23.6263 12.6162 23.7862C12.4562 23.8548 12.3191 23.9233 12.3191 23.9233C12.3191 23.9233 12.1592 23.9919 11.9535 24.0833C11.7707 24.1747 11.6107 24.2433 11.5879 24.2433C11.565 24.2433 11.5422 24.2661 11.5422 24.2661C11.5422 24.289 11.5193 24.289 11.4965 24.289C11.4051 24.289 11.4279 24.2433 11.5193 24.1976C11.565 24.1747 11.6564 24.129 11.7021 24.0833C11.7478 24.0376 11.8164 23.9919 11.8392 23.9919C11.8621 23.9919 11.9078 23.9462 11.9764 23.9005C12.0449 23.8548 12.0906 23.8091 12.1135 23.8091C12.1135 23.8091 12.1592 23.7862 12.2049 23.7634C12.2506 23.7177 12.2963 23.6948 12.3191 23.6948C12.342 23.6948 12.3648 23.672 12.3648 23.672C12.3648 23.6491 12.4105 23.6263 12.4562 23.6034C12.502 23.5806 12.5477 23.5349 12.5248 23.512C12.502 23.4892 12.5248 23.4892 12.5705 23.4892C12.5934 23.512 12.6391 23.4892 12.6391 23.4663C12.6391 23.4435 12.6619 23.4206 12.7076 23.3978C12.799 23.352 12.9361 23.2835 13.0047 23.2149C13.0504 23.1692 13.0961 23.1464 13.0961 23.1464C13.0961 23.1464 13.1647 23.1007 13.2332 23.055C13.3018 23.0093 13.3475 22.9636 13.3703 22.9636C13.3703 22.9636 13.4389 22.9407 13.4846 22.895C13.5303 22.8493 13.6217 22.7807 13.6903 22.735C13.7588 22.6893 13.8045 22.6436 13.8045 22.6436C13.8045 22.6436 13.8274 22.6208 13.8502 22.6208C13.8731 22.6208 13.8959 22.5979 13.8959 22.5751C13.8959 22.5522 13.9188 22.5294 13.9416 22.5294C13.9873 22.5294 14.2615 22.3466 14.2844 22.3009C14.2844 22.278 14.3301 22.278 14.353 22.278C14.3758 22.278 14.4672 22.2323 14.5358 22.1637C14.6043 22.0952 14.7186 22.0266 14.7871 21.9809C14.8557 21.9352 14.9014 21.8895 14.9014 21.8667C14.9014 21.8438 14.9243 21.8438 14.9243 21.8438C14.9471 21.8438 14.9928 21.821 15.0614 21.7753C15.1299 21.7296 15.1985 21.6839 15.2442 21.661C15.2899 21.6382 15.3127 21.6153 15.3127 21.6153C15.3127 21.5924 15.3584 21.5467 15.427 21.5239C15.4956 21.4782 15.587 21.4325 15.6098 21.4096C15.6327 21.3868 15.8155 21.2497 16.0211 21.1354C16.204 21.0212 16.3868 20.884 16.4325 20.8612C16.4782 20.8155 16.5467 20.7926 16.5696 20.7698C16.6153 20.7469 16.6381 20.7241 16.6381 20.7012C16.6381 20.6784 16.661 20.6555 16.6839 20.6555C16.7067 20.6555 16.7296 20.6327 16.7296 20.6327C16.7296 20.6098 16.7981 20.5641 16.9124 20.5184C17.0038 20.4727 17.0952 20.4042 17.0952 20.4042C17.0952 20.3813 17.118 20.3813 17.118 20.3813C17.1409 20.3813 17.1866 20.3813 17.2323 20.3356C17.3237 20.2442 17.895 19.8786 17.9179 19.8786C17.9407 19.8786 17.9864 19.8329 18.055 19.7643C18.1235 19.6957 18.1692 19.65 18.1921 19.6729C18.2149 19.6729 18.2378 19.65 18.2606 19.6272C18.2835 19.5815 18.3063 19.5815 18.3063 19.5815C18.3063 19.6043 18.352 19.5815 18.3977 19.5358C18.4435 19.4901 18.4892 19.4672 18.512 19.4901C18.5349 19.4901 18.5349 19.4901 18.5349 19.4444C18.5349 19.4215 18.5577 19.3987 18.5577 19.3987C18.6034 19.4215 18.8091 19.2844 18.8776 19.193C18.9233 19.1473 18.969 19.1016 18.9919 19.1016C19.0147 19.1016 19.0376 19.0787 19.0605 19.0559C19.289 18.8731 19.3575 18.8274 19.3575 18.8502C19.3575 18.8731 19.3804 18.8502 19.4032 18.8045C19.4261 18.7588 19.4489 18.736 19.4718 18.7588C19.4946 18.7817 19.5175 18.7588 19.5175 18.7588C19.5175 18.736 19.586 18.6903 19.6775 18.6446C19.7689 18.5988 19.8374 18.5303 19.8374 18.5303L19.8603 18.5074C19.8831 18.5074 20.2488 18.2789 20.2945 18.2104C20.3173 18.1875 20.3173 18.1875 20.3173 18.1875C20.3173 18.2104 20.4087 18.1418 20.523 18.0276C20.5458 18.0047 20.5915 17.9818 20.5915 17.9818C20.6144 17.9818 20.8429 17.8219 20.98 17.7076C21.0486 17.6391 21.1171 17.5934 21.14 17.5934C21.1628 17.5934 21.2542 17.5248 21.3228 17.4563C21.3913 17.3877 21.5056 17.3191 21.5285 17.3191C21.5513 17.3191 21.597 17.2734 21.6427 17.2277C21.6884 17.182 21.7341 17.1363 21.757 17.1363C21.7798 17.1363 21.8484 17.0906 21.8941 17.0449C21.9398 16.9992 22.0083 16.9535 22.0312 16.9535C22.0541 16.9535 22.1226 16.9078 22.1912 16.8393C22.2597 16.7707 22.3054 16.7478 22.3054 16.7478C22.3054 16.7707 22.3283 16.7478 22.374 16.7021C22.4197 16.6564 22.5111 16.5879 22.5796 16.5422C22.6482 16.4965 22.7625 16.4051 22.8082 16.3365C22.8539 16.268 22.9224 16.2222 22.9453 16.2222C22.9681 16.2222 23.0138 16.1765 23.0595 16.1308C23.0824 16.0851 23.1281 16.0394 23.1509 16.0394C23.1738 16.0394 23.2195 15.9937 23.2652 15.948C23.3109 15.9023 23.448 15.7652 23.5851 15.6509C23.6994 15.5367 23.8137 15.4224 23.7908 15.4224C23.7679 15.4224 23.8137 15.3767 23.8365 15.3767C23.8594 15.3539 23.8822 15.331 23.8822 15.331C23.8822 15.331 23.8822 15.3082 23.9051 15.3082C23.9508 15.331 24.1793 15.1025 24.1793 15.0568C24.1793 15.0339 24.225 14.9882 24.2707 14.9425C24.3164 14.8968 24.4307 14.7826 24.4992 14.6683C24.5906 14.5541 24.6592 14.4627 24.682 14.4398C24.7049 14.4169 24.7049 14.4169 24.682 14.4169C24.6592 14.4169 24.7049 14.3712 24.7734 14.3027C24.842 14.2341 24.8877 14.1656 24.8877 14.1427C24.8877 14.1199 24.9105 14.0742 24.9334 14.0513C25.0019 13.9828 25.2076 13.6628 25.1848 13.64C25.1848 13.6171 25.2076 13.6171 25.2305 13.6171C25.2533 13.6171 25.2533 13.5943 25.2533 13.5943C25.2305 13.5714 25.2762 13.5029 25.3219 13.4343C25.3676 13.3658 25.4133 13.2972 25.3904 13.2972C25.3676 13.2972 25.4133 13.2058 25.4818 13.0915C25.5504 12.9773 25.5961 12.8859 25.5732 12.8859C25.5504 12.8859 25.5732 12.8402 25.619 12.7716C25.7104 12.6116 25.9389 11.8347 25.9617 11.6747C25.9617 11.6062 26.0074 11.4005 26.0303 11.2634C26.076 11.1034 26.0988 10.8749 26.0988 10.7378C26.0988 10.6007 26.1217 10.5093 26.1217 10.5093C26.1445 10.5093 26.1445 9.50378 26.1445 8.29263V6.076L26.0074 5.96174C25.9389 5.89318 25.8703 5.84748 25.8475 5.84748C25.8246 5.84748 25.7561 5.80177 25.7104 5.75607C25.6418 5.71037 25.5732 5.66466 25.5275 5.68751C25.5047 5.71037 25.4818 5.71037 25.5047 5.68751C25.5275 5.66466 25.3904 5.52755 25.2076 5.43614C25.1391 5.39044 25.0019 5.32188 24.8877 5.25333C24.7734 5.18477 24.6592 5.13907 24.6592 5.11622C24.6363 5.09336 24.4992 5.02481 24.4535 5.04766C24.4307 5.04766 24.4307 5.04766 24.4307 5.02481C24.4307 5.00195 24.3392 4.95625 24.2478 4.91055C24.1336 4.86484 24.065 4.81914 24.065 4.79629C24.065 4.77344 24.065 4.77344 24.0422 4.77344C24.0193 4.79629 23.9508 4.75058 23.8594 4.70488C23.7679 4.65918 23.6765 4.61347 23.6765 4.63632C23.6537 4.65918 23.6537 4.63633 23.6537 4.61347C23.6537 4.59062 23.6308 4.56777 23.608 4.59062C23.5851 4.61347 23.5623 4.59062 23.5623 4.56777C23.5623 4.54492 23.5394 4.52206 23.4937 4.52206C23.4709 4.52206 23.3566 4.47636 23.2424 4.43066C22.9681 4.29355 22.9681 4.27069 22.9681 5.45899V6.53303L23.3338 6.71585C23.5394 6.80726 23.7222 6.92152 23.7679 6.94437C23.8137 6.96722 23.8594 7.01293 23.8822 7.01293C23.9051 7.01293 23.9736 7.03578 24.0193 7.08148C24.065 7.12718 24.1336 7.15004 24.1336 7.12719C24.1564 7.10433 24.1793 8.77252 24.1564 9.48093C24.1564 10.2807 23.9965 11.5148 23.8365 12.0403C23.7908 12.1775 23.7451 12.3146 23.7451 12.3374C23.7222 12.4517 23.6308 12.7488 23.608 12.7488C23.5851 12.7488 23.5851 12.7716 23.608 12.7945C23.6308 12.8173 23.608 12.8402 23.5851 12.8402C23.5623 12.8402 23.5394 12.863 23.5394 12.8859C23.5394 12.9773 23.1281 13.7542 23.0824 13.7542C23.0595 13.7542 23.0595 13.7771 23.0595 13.7999C23.0595 13.8456 22.991 13.9371 22.8082 14.1656C22.7853 14.1884 22.7168 14.257 22.6711 14.3027C22.6254 14.3484 22.5796 14.3941 22.6025 14.3941C22.6254 14.3941 22.5568 14.4627 22.4654 14.5541C22.374 14.6455 22.3054 14.7369 22.3283 14.7369C22.3283 14.7369 22.3054 14.7826 22.2597 14.8054C22.214 14.8283 22.1683 14.874 22.1683 14.8968C22.1683 14.9425 21.3913 15.7195 21.3456 15.7195C21.3228 15.7195 21.2542 15.7881 21.1857 15.8566C21.1171 15.9252 21.0714 15.9937 21.0943 15.9709C21.14 15.948 21.14 15.948 21.1171 15.9709C21.0943 15.9937 21.0714 16.0166 21.0486 16.0166C21.0257 16.0166 20.9572 16.0623 20.8886 16.1308C20.82 16.1994 20.7743 16.2451 20.7515 16.2451C20.7515 16.2451 20.6144 16.3365 20.4773 16.4508C20.3402 16.565 20.0431 16.8164 19.8374 16.9764C19.6318 17.1363 19.4261 17.3191 19.4032 17.342C19.3804 17.3877 19.3347 17.4105 19.289 17.4105C19.2661 17.4105 19.2204 17.4334 19.1976 17.4791C19.1747 17.5248 19.129 17.5477 19.1062 17.5477C19.0833 17.5477 19.0376 17.5705 19.0147 17.6162C18.9919 17.6619 18.9462 17.6848 18.9233 17.6848C18.8776 17.6848 18.4206 18.0504 18.3977 18.119C18.3977 18.1418 18.352 18.1418 18.3292 18.1418C18.3063 18.1418 18.2835 18.1647 18.2835 18.1875C18.2835 18.2104 18.2606 18.2332 18.2378 18.2332C18.2149 18.2332 18.1464 18.2789 18.1007 18.3246C18.055 18.3703 17.9636 18.4617 17.895 18.5074C17.8264 18.5531 17.7579 18.6217 17.7122 18.6446C17.6893 18.6674 17.6436 18.6903 17.6208 18.6903C17.5979 18.6903 17.5294 18.7588 17.438 18.8274C17.2323 19.0102 17.2323 19.0102 16.9809 19.193C16.8438 19.2844 16.7067 19.3987 16.661 19.4444C16.6153 19.4901 16.5467 19.5358 16.5239 19.5358C16.501 19.5358 16.4782 19.5586 16.4553 19.5586C16.4553 19.5815 16.3411 19.6729 16.204 19.7643C16.0668 19.8557 15.9526 19.9471 15.9526 19.97C15.9297 19.9928 15.9069 20.0157 15.884 20.0157C15.8612 20.0157 15.7926 20.0614 15.7469 20.1071C15.7012 20.1528 15.6327 20.1985 15.6098 20.1985C15.587 20.1985 15.5413 20.2213 15.4956 20.267C15.4041 20.3584 15.3127 20.427 15.2899 20.427C15.267 20.427 14.8786 20.7469 14.8557 20.7698C14.8557 20.7926 14.81 20.7926 14.7871 20.7926C14.7643 20.7926 14.6957 20.8383 14.65 20.884C14.5586 20.9754 14.5358 20.9754 14.5129 20.9069C14.4672 20.8612 14.4672 20.8612 14.5129 20.884C14.5358 20.9069 14.5586 20.884 14.5815 20.8383C14.6043 20.7926 14.6272 20.7469 14.65 20.7469C14.6729 20.7469 14.7871 20.6784 14.8786 20.5641C14.97 20.4727 15.0614 20.3813 15.0842 20.3813C15.1071 20.3813 15.1528 20.3356 15.1756 20.2899C15.2213 20.2442 15.267 20.1985 15.2899 20.1985C15.3356 20.1985 15.5184 20.0385 15.9069 19.6957C15.9754 19.65 16.0211 19.6043 16.044 19.6043C16.0668 19.6043 16.0897 19.5815 16.0897 19.5358C16.0897 19.5129 16.1354 19.4672 16.1811 19.4444C16.2954 19.3987 16.4096 19.2616 16.3639 19.2387C16.3411 19.2159 16.3639 19.2159 16.3868 19.2387C16.4096 19.2616 16.4782 19.2387 16.5467 19.1701C16.661 19.0787 16.7067 19.0102 17.0495 18.736C17.1637 18.6446 17.3009 18.5074 17.3694 18.4617C17.438 18.3932 17.5065 18.3475 17.5065 18.3475C17.5065 18.3475 17.5522 18.3246 17.5522 18.2789C17.5751 18.2332 17.6208 18.1875 17.6893 18.1418C17.7579 18.0961 17.8722 18.0047 17.9636 17.9361C18.055 17.8676 18.2149 17.7076 18.3063 17.6162C18.4206 17.5248 18.5349 17.4105 18.5806 17.3648C18.6263 17.3191 18.7405 17.2277 18.8319 17.1363C18.9233 17.0678 18.9919 16.9992 18.969 16.9992C18.9462 16.9992 18.9919 16.9535 19.0376 16.9307C19.1747 16.8393 19.4718 16.5193 19.4489 16.5193C19.4261 16.5193 19.4946 16.4508 19.5632 16.3822C19.6317 16.3137 19.7003 16.2451 19.7003 16.2222C19.7003 16.2222 19.7689 16.1308 19.8603 16.0394C19.9517 15.948 20.0202 15.8566 20.0202 15.8338C20.0202 15.8109 20.0659 15.7652 20.1116 15.7195C20.1573 15.6738 20.2259 15.6052 20.2488 15.5595C20.2945 15.491 20.4544 15.2625 20.6372 15.0111C20.7058 14.9197 20.7515 14.8283 20.7286 14.8283C20.7058 14.8054 20.7286 14.8054 20.7515 14.8054C20.7743 14.8054 20.82 14.714 20.8886 14.6226C20.9343 14.5312 21.0029 14.3941 21.0486 14.3484C21.0943 14.3027 21.1171 14.2341 21.1171 14.1884C21.1171 14.1427 21.14 14.1199 21.14 14.1199C21.1857 14.1199 21.3913 13.6857 21.3685 13.6171C21.3685 13.5943 21.3913 13.5943 21.4142 13.5943C21.4371 13.5943 21.4371 13.5714 21.4371 13.5486C21.4142 13.5257 21.437 13.5029 21.4599 13.5029C21.4828 13.5029 21.5056 13.4572 21.5056 13.4115C21.5056 13.3658 21.5513 13.2744 21.597 13.1829C21.6427 13.0915 21.6656 13.023 21.6656 12.9773C21.6656 12.9544 21.7113 12.7945 21.7798 12.6345C21.9169 12.2003 22.0769 11.629 22.0541 11.5833C22.0541 11.5605 22.0541 11.469 22.0769 11.3776C22.1683 10.9892 22.214 10.3265 22.1912 10.0294C22.1683 9.80086 22.1912 9.7323 22.214 9.7323C22.2369 9.7323 22.2597 8.81823 22.2597 6.09885C22.2597 2.92243 22.2597 2.46539 22.214 2.46539C22.1912 2.46539 22.0998 2.44254 22.0312 2.41969C21.757 2.30543 21.2771 2.12261 21.0714 2.07691C20.9343 2.03121 20.82 2.00836 20.7972 1.9855C20.7743 1.96265 20.7058 1.96265 20.6601 1.9398C20.6144 1.9398 20.5001 1.89409 20.3859 1.84839C20.2716 1.80269 20.1802 1.77983 20.1573 1.77983H20.1345C20.1345 1.77983 20.0888 1.77983 20.0202 1.77983C19.9745 1.77983 19.8146 1.73413 19.6775 1.68843C19.5403 1.64272 19.3804 1.59702 19.3118 1.59702C19.2433 1.59702 19.0833 1.55132 18.9462 1.50561C18.8091 1.45991 18.6491 1.43706 18.6034 1.43706C18.5577 1.43706 18.4892 1.41421 18.4434 1.41421C18.352 1.3685 17.7807 1.27709 17.5979 1.25424C17.5065 1.25424 17.2094 1.18569 16.9352 1.13998C16.661 1.09428 16.3639 1.04857 16.2954 1.04857C16.204 1.04857 15.9069 1.02572 15.6327 0.980017C15.3584 0.957165 14.81 0.911463 14.4444 0.888611C13.9645 1.16283 13.7588 1.16283 12.9818 1.18569ZM15.2442 3.83651C15.4727 3.85936 15.884 3.92791 16.044 3.99647C16.0668 4.01932 16.1354 4.01932 16.1583 4.04218C16.2268 4.06503 16.7524 4.3164 16.8895 4.38496C17.1409 4.54492 17.2323 4.61347 17.3923 4.79629C17.6436 5.07051 17.7122 5.13907 17.7122 5.18477C17.7122 5.20762 17.735 5.23047 17.7579 5.25333C17.7807 5.27618 17.8722 5.39044 17.9407 5.5504C18.0093 5.68751 18.0778 5.80177 18.1007 5.77892C18.1007 5.77892 18.1235 5.77892 18.1235 5.80177C18.1235 5.89318 18.1692 6.09885 18.2149 6.19026C18.352 6.53303 18.352 13.5257 18.2378 13.8685C18.2149 13.9142 18.1921 14.0056 18.1692 14.0513C18.1464 14.1199 18.1235 14.1884 18.1235 14.1884C18.1235 14.2113 18.1235 14.2341 18.1007 14.2341C18.1007 14.2341 18.0778 14.257 18.0778 14.2798C18.055 14.3484 17.8493 14.7369 17.7807 14.8054C17.735 14.8511 17.7122 14.8968 17.735 14.8968C17.735 14.8968 17.5979 15.0797 17.4151 15.2625C17.2323 15.4453 17.0723 15.6052 17.0723 15.5824C17.0723 15.5595 17.0266 15.5824 16.9124 15.6967C16.8895 15.7195 16.821 15.7424 16.7753 15.7652C16.7296 15.7881 16.661 15.8338 16.6153 15.8566C16.5696 15.8795 16.5239 15.9252 16.501 15.9023C16.4782 15.9023 16.4782 15.9023 16.4782 15.9252C16.4782 15.948 16.4325 15.9709 16.3868 15.9709C16.3411 15.9709 16.2725 15.9937 16.2268 16.0166C16.1811 16.0394 16.1126 16.0623 16.0897 16.0623C16.044 16.0623 16.0211 16.0851 16.044 16.108C16.0668 16.1308 16.044 16.1308 16.044 16.1308C16.0211 16.108 15.884 16.1308 15.7469 16.1765C15.6098 16.2222 15.3813 16.268 15.2213 16.268C15.0614 16.2908 14.8786 16.3137 14.81 16.3137C14.7414 16.3365 14.6043 16.3365 14.5129 16.3365C14.193 16.3594 9.09702 16.3594 9.07416 16.3365C9.05131 16.3137 9.46265 15.8795 9.75972 15.5824C9.85113 15.491 9.94254 15.3996 9.91968 15.3996C9.89683 15.3996 9.91968 15.3767 9.96539 15.331L10.0568 15.2625V9.98368V4.70488L9.89683 4.56777C9.80542 4.49921 9.73687 4.40781 9.73687 4.38496C9.73687 4.33925 9.46265 4.08788 9.43979 4.08788C9.41694 4.08788 9.39409 4.04218 9.34839 3.97362C9.30268 3.90506 9.23413 3.81366 9.16557 3.7451L9.05131 3.63084L12.0449 3.65369C13.6445 3.81365 15.1071 3.83651 15.2442 3.83651ZM12.8904 10.0751V14.2341L13.7131 14.2113C14.5815 14.1884 14.7186 14.1656 14.9014 13.9828C14.9471 13.9371 14.9928 13.9142 14.9928 13.9371C14.9928 14.0056 15.1528 13.7999 15.267 13.5943L15.3813 13.3658V9.98368C15.3813 6.19026 15.4041 6.57874 15.0614 6.23596C14.97 6.14455 14.8557 6.05314 14.8328 6.076C14.81 6.076 14.7871 6.076 14.7871 6.076C14.7414 5.96174 14.3758 5.91603 13.6445 5.91603H12.8904V10.0751ZM71.8255 7.31C71.8255 7.31 71.2999 7.33285 70.6601 7.3557C69.8146 7.37856 69.4032 7.40141 69.0376 7.44711C68.7862 7.49282 68.5577 7.51567 68.5349 7.51567C68.5349 7.51567 68.352 7.53852 68.1692 7.58422C67.9864 7.62993 67.8036 7.65278 67.7807 7.67563C67.735 7.67563 67.7122 8.40689 67.7122 13.8685V20.0385H69.1747H70.6372V15.0339V10.0294L70.7515 10.0065C70.9572 9.96082 71.9626 9.96082 72.0312 10.0065C72.0541 10.0294 72.0998 10.0294 72.0998 10.0294C72.1683 9.96082 72.6939 10.3493 72.6939 10.4407C72.6939 10.4636 72.7168 10.4864 72.7396 10.4864C72.7625 10.4864 72.7853 10.5093 72.7625 10.5093C72.7625 10.5321 72.7853 10.6007 72.8082 10.6921C72.831 10.8063 72.8539 12.0403 72.8539 15.4453V20.0385H74.1564H75.459V15.1482V10.2579L75.7561 10.1665C76.5787 9.91512 77.4243 10.1208 77.5385 10.5778C77.5614 10.6235 77.5842 10.6921 77.5842 10.7149C77.6071 10.7378 77.6071 10.7606 77.6071 10.7835C77.6071 10.8063 77.6071 12.8859 77.6071 15.4453V20.0614H79.0924H80.5778L80.555 15.0111C80.555 10.4179 80.5321 9.93797 80.4864 9.7323C80.4407 9.59519 80.4179 9.45808 80.4179 9.41238C80.4179 9.36667 80.3722 9.25241 80.3493 9.16101C80.3264 9.0696 80.2807 9.00104 80.2807 8.97819C80.2807 8.93249 80.0751 8.63541 80.0522 8.61256C80.0294 8.61256 80.0294 8.58971 80.0294 8.56685C80.0294 8.544 79.8237 8.33834 79.5495 8.08697C79.4352 7.99556 79.1382 7.81274 79.1153 7.81274C79.0924 7.81274 79.0924 7.81274 79.0924 7.78989C79.0924 7.76704 79.0467 7.74419 78.9782 7.72133C78.9096 7.69848 78.8639 7.67563 78.8411 7.65278C78.8182 7.62993 78.7725 7.60707 78.7268 7.60707C78.6811 7.60707 78.6354 7.58422 78.6126 7.58422C78.5668 7.56137 78.2698 7.46996 78.0641 7.44711C77.7899 7.40141 77.4243 7.40141 76.1445 7.40141C75.9617 7.40141 75.5047 7.46996 75.3676 7.51567C75.299 7.53852 75.1848 7.56137 75.1391 7.53852C75.0934 7.53852 75.0248 7.53852 75.002 7.56137C74.9791 7.58422 74.9334 7.58422 74.8877 7.60707C74.7963 7.62993 74.1564 7.85844 74.1107 7.8813C74.0879 7.90415 74.0422 7.8813 73.9736 7.83559C73.8594 7.74419 73.4937 7.58422 73.4252 7.58422C73.4023 7.58422 73.3795 7.58422 73.3795 7.56137C73.3795 7.53852 73.3566 7.53852 73.3109 7.53852C73.2652 7.53852 73.1052 7.51567 72.9681 7.46996C72.8082 7.42426 72.5111 7.40141 72.3054 7.40141C72.0998 7.40141 71.9169 7.37856 71.8941 7.3557C71.8712 7.31 71.8484 7.31 71.8255 7.31ZM29.3438 7.56137C29.3438 7.60707 29.3895 7.69848 29.4581 7.74419C29.5038 7.81274 29.5495 7.85845 29.5495 7.85845C29.5495 7.85845 29.5723 7.90415 29.618 7.97271C29.6637 8.04126 29.7094 8.08696 29.7094 8.10982C29.7094 8.13267 29.7551 8.17837 29.8009 8.24693C29.8466 8.29263 29.8923 8.36119 29.8694 8.38404C29.8694 8.40689 29.8694 8.40689 29.8923 8.40689C29.9151 8.40689 29.9837 8.47545 30.0294 8.56685L30.1208 8.72682V13.8228V18.9188L30.0065 19.0559C29.938 19.1244 29.8923 19.193 29.8923 19.2159C29.8923 19.2387 29.8466 19.2844 29.8009 19.3301C29.7551 19.3758 29.6866 19.4901 29.6637 19.5586C29.6409 19.6272 29.5952 19.6729 29.5723 19.6729C29.5495 19.6729 29.5495 19.6729 29.5495 19.6957C29.5495 19.7186 29.5266 19.7643 29.4581 19.81C29.161 20.0614 29.0696 20.0614 31.8118 20.0385C34.5998 20.0385 35.331 20.0157 35.6967 19.8786C35.8338 19.8329 35.9937 19.7871 36.0394 19.7871C36.1308 19.7643 36.3822 19.65 36.5422 19.5815C36.565 19.5586 36.7021 19.4901 36.8164 19.4215C37.1135 19.2616 37.5477 18.8959 37.5477 18.8045C37.5477 18.7588 37.5705 18.736 37.5705 18.736C37.6162 18.736 37.799 18.5531 37.799 18.4846C37.799 18.4617 37.8447 18.3932 37.8904 18.3246C38.0047 18.1647 38.1875 17.7533 38.2104 17.5934C38.2104 17.5248 38.2561 17.4105 38.2789 17.3648C38.4389 16.9992 38.3475 9.80086 38.1875 9.80086C38.1647 9.80086 38.1647 9.77801 38.1875 9.75516C38.2104 9.70945 37.959 9.1153 37.8904 9.1153C37.8676 9.1153 37.8219 9.04675 37.7762 8.95534C37.6848 8.77252 37.182 8.26978 37.1135 8.26978C37.0906 8.26978 37.0678 8.24693 37.0678 8.24693C37.0678 8.20122 36.885 8.08696 36.8392 8.06411C36.8164 8.06411 36.725 8.01841 36.6564 7.97271C36.5879 7.927 36.4736 7.8813 36.4279 7.85845C36.3822 7.83559 36.3137 7.81274 36.2908 7.81274C36.2451 7.78989 35.9709 7.67563 35.8795 7.67563C35.8566 7.67563 35.6509 7.62993 35.4453 7.58422C34.9654 7.49282 35.3767 7.49282 32.1318 7.46996L29.3895 7.44711L29.3438 7.56137ZM39.8329 7.51567C39.81 7.53852 39.81 10.3493 39.81 13.7771V20.0157H41.2725H42.735V17.8447V15.6738L43.6491 15.6967C44.1519 15.6967 44.6089 15.7195 44.6546 15.7424C44.7003 15.7652 44.746 15.7652 44.746 15.7652C44.7917 15.7652 44.9745 15.948 45.0202 16.0623C45.0888 16.1765 45.0888 16.3822 45.0888 18.119V20.0385H46.597H48.1052L48.0824 18.0733C48.0824 16.9992 48.0595 16.0623 48.0367 16.0166C48.0138 15.9709 47.991 15.8338 47.9681 15.7424C47.9224 15.5367 47.7853 15.2853 47.7396 15.2853C47.7168 15.2853 47.7168 15.2625 47.7396 15.2396C47.7625 15.2168 47.7396 15.1711 47.7168 15.1482C47.6939 15.1254 47.6482 15.0568 47.6254 15.0111C47.6025 14.9654 47.5568 14.9197 47.5568 14.9425C47.5339 14.9425 47.4197 14.874 47.2826 14.7826C47.1455 14.6912 46.9626 14.5998 46.8484 14.5769L46.6656 14.5312L46.8712 14.3941C46.9855 14.3255 47.0769 14.2341 47.0998 14.2113C47.1226 14.1884 47.1455 14.1656 47.1683 14.1656C47.214 14.1656 47.3968 13.9828 47.3968 13.9371C47.3968 13.9142 47.4425 13.8685 47.4654 13.8456C47.5111 13.7999 47.5339 13.7542 47.5339 13.7314C47.5339 13.7085 47.5568 13.6857 47.5797 13.6628C47.6254 13.64 47.7396 13.3658 47.7853 13.1372C47.8539 12.8402 47.831 9.54949 47.7396 9.18386C47.6939 9.0239 47.5111 8.61256 47.4882 8.61256C47.4654 8.61256 47.4425 8.58971 47.4425 8.544C47.4197 8.4526 47.0541 8.08697 47.0084 8.08697C46.9855 8.08697 46.9627 8.06411 46.9169 8.01841C46.8484 7.94985 46.4142 7.74419 46.2771 7.72133C46.2314 7.72133 46.0943 7.67563 45.98 7.65278C45.8658 7.62993 45.6144 7.58422 45.4087 7.56137C45.0431 7.46996 39.8786 7.46996 39.8329 7.51567ZM51.9215 7.53852C51.7616 7.56137 51.533 7.60708 51.4188 7.62993C51.2817 7.65278 51.1674 7.69848 51.1446 7.69848C51.1217 7.69848 51.0531 7.72133 51.0074 7.74419C50.8246 7.81274 50.6875 7.85845 50.6647 7.85845C50.6647 7.85845 50.6418 7.8813 50.619 7.90415C50.5961 7.927 50.5732 7.94985 50.5275 7.94985C50.4818 7.94985 50.4133 7.99556 50.3676 8.06411C50.299 8.13267 50.2533 8.15552 50.2305 8.15552C50.2305 8.15552 50.1619 8.20122 50.1162 8.29263C50.0477 8.36119 49.9791 8.47545 49.9334 8.52115C49.8648 8.58971 49.7734 8.72682 49.7734 8.81823C49.7734 8.84108 49.7506 8.88678 49.7049 8.90963C49.682 8.95534 49.6592 9.00104 49.682 9.02389C49.7049 9.04674 49.682 9.0696 49.6592 9.0696C49.6135 9.0696 49.4764 9.48093 49.4535 9.70945C49.4307 10.0065 49.4307 17.5934 49.4535 17.8219C49.4764 18.0504 49.6592 18.5989 49.7277 18.6674C49.7506 18.6903 49.7963 18.7588 49.8191 18.8274C49.8648 18.9645 50.2305 19.353 50.299 19.353C50.3219 19.353 50.3447 19.3758 50.3447 19.3987C50.3676 19.4215 50.3904 19.4672 50.3904 19.4672C50.4133 19.4672 50.5047 19.5358 50.619 19.6043C50.7332 19.6729 50.8703 19.7414 50.916 19.7643C50.9617 19.7643 51.0988 19.81 51.2131 19.8557C51.533 19.97 52.1043 19.9928 54.2753 20.0157H56.2177V18.8274V17.6391H54.4352C53.4526 17.6391 52.6299 17.6162 52.6071 17.5934C52.5842 17.5705 52.5157 17.502 52.4471 17.4334L52.3328 17.2963V16.108V14.9197H54.0467H55.7606V13.7542V12.5888H54.0467H52.3328V11.4233V10.2579L52.4471 10.0979C52.6071 9.86942 52.5842 9.86942 54.5038 9.86942H56.2405V8.68111V7.49281H54.2296C53.1098 7.49281 52.0815 7.51567 51.9215 7.53852ZM57.6573 7.51567C57.6345 7.53852 57.6345 10.3493 57.6345 13.7771V20.0157H59.1199H60.6052V17.8447V15.6738H61.8392H63.0732V17.8447V20.0157H64.5815H66.0897L66.0668 15.2168C66.0668 10.8063 66.044 10.4179 65.9983 10.1893C65.9526 10.0522 65.9297 9.91512 65.9297 9.86942C65.9297 9.82371 65.9069 9.80086 65.884 9.77801C65.8612 9.75515 65.8612 9.7323 65.8612 9.6866C65.8612 9.66375 65.8155 9.54949 65.7926 9.48093C65.7469 9.38952 65.7241 9.29812 65.7241 9.27526C65.7241 9.25241 65.7012 9.22956 65.6784 9.22956C65.6555 9.22956 65.6327 9.20671 65.6555 9.20671C65.6784 9.13815 65.4041 8.77252 65.3813 8.79537C65.3584 8.81822 65.3584 8.79538 65.3584 8.77252C65.3813 8.72682 64.9928 8.31549 64.9243 8.31549C64.9014 8.31549 64.8786 8.29263 64.8786 8.29263C64.8329 8.22408 64.4901 7.99556 64.4215 8.01841C64.3987 8.01841 64.3987 8.01841 64.3987 7.99556C64.3987 7.94985 63.8274 7.72134 63.6674 7.69848C63.6217 7.69848 63.4846 7.67563 63.416 7.65278C63.3246 7.62993 63.2561 7.62993 63.2332 7.62993C63.2104 7.65278 63.1875 7.62993 63.1647 7.60707C63.0504 7.49281 57.7488 7.42426 57.6573 7.51567ZM83.2515 7.69848C83.2058 7.81274 83.1601 8.01841 83.1144 8.13267C83.0687 8.24693 83.0458 8.38404 83.023 8.40689C83.023 8.4526 82.9316 8.68112 82.863 8.95534C82.7716 9.20671 82.703 9.48093 82.6802 9.54949C82.6802 9.61804 82.6345 9.70945 82.6116 9.75516C82.5888 9.82371 82.5431 9.89227 82.5431 9.96082C82.5431 10.0065 82.5202 10.0522 82.5202 10.0522C82.5202 10.0522 82.4974 10.0751 82.4974 10.1208C82.4745 10.1893 82.5431 10.1893 83.1372 10.1893H83.7771V15.1025V20.0157H85.2625H86.7478V13.7542V7.49281H85.0339H83.3201L83.2515 7.69848ZM88.8502 7.53852C88.8045 7.67563 88.7131 7.97271 88.6674 8.04126C88.6445 8.08697 88.6446 8.13267 88.6446 8.15552C88.6446 8.17837 88.6217 8.24693 88.5988 8.31549C88.576 8.38404 88.5303 8.52115 88.4846 8.61256C88.4617 8.70397 88.3932 8.86393 88.3703 8.97819C88.3246 9.09245 88.3018 9.18386 88.3018 9.18386C88.3018 9.20671 88.2789 9.29812 88.2104 9.50378C88.1418 9.6866 88.119 9.77801 88.0504 10.0751L88.0275 10.1893H88.6903H89.353V15.1025V20.0157H90.8155H92.278V13.7542V7.49281H90.587C89.2387 7.49281 88.8502 7.49281 88.8502 7.53852ZM44.4718 9.75516C44.6089 9.84656 44.6775 9.91512 44.7689 10.0751L44.8831 10.2807V11.5148V12.7488L44.7689 12.9544C44.7003 13.0687 44.6546 13.1372 44.6318 13.1372C44.6089 13.1372 44.586 13.1372 44.5632 13.1829C44.4489 13.2972 44.2204 13.3201 43.4892 13.3429L42.7579 13.3658V11.4919V9.61804L43.5349 9.6409L44.3118 9.66375L44.4718 9.75516ZM62.5477 9.7323C62.6619 9.80086 62.7305 9.82371 62.7305 9.77801C62.7305 9.75515 62.7533 9.75516 62.7533 9.80086C62.7762 9.82371 62.8219 9.91512 62.8676 9.98368C63.0504 10.235 63.0504 10.2808 63.0504 11.8575V13.3429H61.8164H60.5824V11.4691V9.61804L61.4736 9.6409C62.3648 9.6409 62.3877 9.6409 62.5477 9.7323ZM34.3255 9.77801C34.4398 9.80086 34.5769 9.82371 34.6226 9.82371C34.6683 9.82371 34.7369 9.86941 34.7597 9.89227C34.7826 9.91512 34.8054 9.91512 34.8054 9.91512C34.8054 9.89227 34.8283 9.91512 34.8511 9.96082C34.874 10.0065 34.8968 10.0294 34.8968 10.0065C34.8968 9.96082 35.0339 10.1208 35.1711 10.3265L35.3082 10.5321V13.7771C35.3082 16.8621 35.2853 17.0221 35.2168 17.1135C35.1711 17.182 35.1482 17.2277 35.1711 17.2277C35.2168 17.2277 35.0111 17.4334 34.8283 17.5477C34.6226 17.7076 34.4855 17.7305 33.7314 17.7533L33.0458 17.7762V13.7314V9.7323H33.5486C33.8913 9.7323 34.2113 9.75515 34.3255 9.77801Z" fill="#EC1C24"/>
<path fill-rule="evenodd" clip-rule="evenodd" d="M2.97298 5.02458C2.92728 5.09314 2.92728 5.09314 3.01869 5.04744C3.1558 4.97888 3.1558 4.97888 3.08724 4.97888C3.06439 4.97888 2.99584 5.00173 2.97298 5.02458ZM18.0781 5.80155C18.0552 5.8244 18.1238 6.00722 18.1467 6.00722C18.1467 6.00722 18.1467 5.96152 18.1238 5.91581C18.101 5.87011 18.101 5.8244 18.101 5.80155C18.1238 5.7787 18.1238 5.7787 18.101 5.7787C18.0781 5.7787 18.101 5.7787 18.0781 5.80155ZM70.1576 7.33263C70.0434 7.35548 71.5287 7.35548 71.7573 7.33263C71.8258 7.33263 71.5059 7.30978 71.0717 7.30978C70.6375 7.30978 70.2033 7.30978 70.1576 7.33263ZM71.8715 7.30978C71.8715 7.30978 71.9858 7.33263 72.1 7.35548C72.2371 7.37834 72.2829 7.35548 72.2143 7.35548C72.1229 7.30978 71.8487 7.28693 71.8715 7.30978ZM76.122 7.33263C76.0763 7.35548 76.122 7.35548 76.2362 7.33263C76.3505 7.30978 76.4419 7.30978 76.4419 7.28693C76.4876 7.28693 76.1905 7.30978 76.122 7.33263ZM76.579 7.30978C76.8304 7.33263 77.7445 7.33263 77.6759 7.30978C77.6302 7.28693 77.356 7.28693 77.036 7.28693C76.7161 7.30978 76.5105 7.30978 76.579 7.30978ZM0.870605 8.61234C0.870605 9.04653 0.870606 9.22934 0.893458 9.00082C0.893458 8.7723 0.893458 8.40667 0.893458 8.201C0.870606 7.97248 0.870605 8.17815 0.870605 8.61234ZM22.3743 10.2805C22.3743 10.4176 22.3743 10.4633 22.3971 10.3948C22.3971 10.3262 22.3971 10.212 22.3971 10.1663C22.3743 10.0977 22.3743 10.1663 22.3743 10.2805ZM26.2134 10.3491C26.2134 10.4405 26.2134 10.4633 26.2362 10.4176C26.2362 10.3719 26.2362 10.3034 26.2362 10.2577C26.2362 10.2348 26.2134 10.2805 26.2134 10.3491ZM52.3788 12.5657C52.4245 12.5657 52.4702 12.5657 52.5159 12.5657C52.5616 12.5657 52.5159 12.5429 52.4474 12.5429C52.3788 12.5657 52.356 12.5657 52.3788 12.5657ZM52.7673 12.5886C52.8587 12.5886 53.0187 12.5886 53.1101 12.5886C53.2015 12.5886 53.1101 12.5657 52.9273 12.5657C52.7445 12.5657 52.6759 12.5657 52.7673 12.5886ZM53.5214 12.5886C53.6585 12.5886 53.8642 12.5886 54.0013 12.5886C54.1384 12.5886 54.0242 12.5657 53.7728 12.5657C53.5214 12.5657 53.3843 12.5657 53.5214 12.5886ZM54.4584 12.5886C54.5955 12.5886 54.8011 12.5886 54.9383 12.5886C55.0754 12.5886 54.9611 12.5657 54.7097 12.5657C54.4584 12.5657 54.3441 12.5657 54.4584 12.5886ZM55.2582 12.5886C55.3039 12.5886 55.3724 12.5886 55.4181 12.5886C55.4638 12.5886 55.4181 12.5657 55.3267 12.5657C55.2353 12.5657 55.2125 12.5657 55.2582 12.5886ZM55.6924 12.5657C55.7609 12.5886 55.7609 12.68 55.7609 13.7312V14.8738V13.7083C55.7838 12.5886 55.7838 12.5657 55.6924 12.5657C55.6467 12.5657 55.6467 12.5657 55.6924 12.5657ZM47.2829 14.7595C47.42 14.8509 47.4885 14.8738 47.3971 14.8052C47.3514 14.7595 47.2829 14.7367 47.26 14.7367C47.2372 14.7138 47.2372 14.7367 47.2829 14.7595Z" fill="#F01C24"/>
<path fill-rule="evenodd" clip-rule="evenodd" d="M2.97298 5.02458C2.92728 5.09314 2.92728 5.09314 3.01869 5.04744C3.1558 4.97888 3.1558 4.97888 3.08724 4.97888C3.06439 4.97888 2.99584 5.00173 2.97298 5.02458ZM18.0781 5.80155C18.0552 5.8244 18.1238 6.00722 18.1467 6.00722C18.1467 6.00722 18.1467 5.96152 18.1238 5.91581C18.101 5.87011 18.101 5.8244 18.101 5.80155C18.1238 5.7787 18.1238 5.7787 18.101 5.7787C18.0781 5.7787 18.101 5.7787 18.0781 5.80155ZM70.1576 7.33263C70.0434 7.35548 71.5287 7.35548 71.7573 7.33263C71.8258 7.33263 71.5059 7.30978 71.0717 7.30978C70.6375 7.30978 70.2033 7.30978 70.1576 7.33263ZM71.8715 7.30978C71.8715 7.30978 71.9858 7.33263 72.1 7.35548C72.2371 7.37834 72.2829 7.35548 72.2143 7.35548C72.1229 7.30978 71.8487 7.28693 71.8715 7.30978ZM76.122 7.33263C76.0763 7.35548 76.122 7.35548 76.2362 7.33263C76.3505 7.30978 76.4419 7.30978 76.4419 7.28693C76.4876 7.28693 76.1905 7.30978 76.122 7.33263ZM76.579 7.30978C76.8304 7.33263 77.7445 7.33263 77.6759 7.30978C77.6302 7.28693 77.356 7.28693 77.036 7.28693C76.7161 7.30978 76.5105 7.30978 76.579 7.30978ZM0.870605 8.61234C0.870605 9.04653 0.870606 9.22934 0.893458 9.00082C0.893458 8.7723 0.893458 8.40667 0.893458 8.201C0.870606 7.97248 0.870605 8.17815 0.870605 8.61234ZM22.3743 10.2805C22.3743 10.4176 22.3743 10.4633 22.3971 10.3948C22.3971 10.3262 22.3971 10.212 22.3971 10.1663C22.3743 10.0977 22.3743 10.1663 22.3743 10.2805ZM26.2134 10.3491C26.2134 10.4405 26.2134 10.4633 26.2362 10.4176C26.2362 10.3719 26.2362 10.3034 26.2362 10.2577C26.2362 10.2348 26.2134 10.2805 26.2134 10.3491ZM52.3788 12.5657C52.4245 12.5657 52.4702 12.5657 52.5159 12.5657C52.5616 12.5657 52.5159 12.5429 52.4474 12.5429C52.3788 12.5657 52.356 12.5657 52.3788 12.5657ZM52.7673 12.5886C52.8587 12.5886 53.0187 12.5886 53.1101 12.5886C53.2015 12.5886 53.1101 12.5657 52.9273 12.5657C52.7445 12.5657 52.6759 12.5657 52.7673 12.5886ZM53.5214 12.5886C53.6585 12.5886 53.8642 12.5886 54.0013 12.5886C54.1384 12.5886 54.0242 12.5657 53.7728 12.5657C53.5214 12.5657 53.3843 12.5657 53.5214 12.5886ZM54.4584 12.5886C54.5955 12.5886 54.8011 12.5886 54.9383 12.5886C55.0754 12.5886 54.9611 12.5657 54.7097 12.5657C54.4584 12.5657 54.3441 12.5657 54.4584 12.5886ZM55.2582 12.5886C55.3039 12.5886 55.3724 12.5886 55.4181 12.5886C55.4638 12.5886 55.4181 12.5657 55.3267 12.5657C55.2353 12.5657 55.2125 12.5657 55.2582 12.5886ZM55.6924 12.5657C55.7609 12.5886 55.7609 12.68 55.7609 13.7312V14.8738V13.7083C55.7838 12.5886 55.7838 12.5657 55.6924 12.5657C55.6467 12.5657 55.6467 12.5657 55.6924 12.5657ZM47.2829 14.7595C47.42 14.8509 47.4885 14.8738 47.3971 14.8052C47.3514 14.7595 47.2829 14.7367 47.26 14.7367C47.2372 14.7138 47.2372 14.7367 47.2829 14.7595Z" fill="#F01C24"/>
<path fill-rule="evenodd" clip-rule="evenodd" d="M2.97298 5.02458C2.92728 5.09314 2.92728 5.09314 3.01869 5.04744C3.1558 4.97888 3.1558 4.97888 3.08724 4.97888C3.06439 4.97888 2.99584 5.00173 2.97298 5.02458ZM18.0781 5.80155C18.0552 5.8244 18.1238 6.00722 18.1467 6.00722C18.1467 6.00722 18.1467 5.96152 18.1238 5.91581C18.101 5.87011 18.101 5.8244 18.101 5.80155C18.1238 5.7787 18.1238 5.7787 18.101 5.7787C18.0781 5.7787 18.101 5.7787 18.0781 5.80155ZM70.1576 7.33263C70.0434 7.35548 71.5287 7.35548 71.7573 7.33263C71.8258 7.33263 71.5059 7.30978 71.0717 7.30978C70.6375 7.30978 70.2033 7.30978 70.1576 7.33263ZM71.8715 7.30978C71.8715 7.30978 71.9858 7.33263 72.1 7.35548C72.2371 7.37834 72.2829 7.35548 72.2143 7.35548C72.1229 7.30978 71.8487 7.28693 71.8715 7.30978ZM76.122 7.33263C76.0763 7.35548 76.122 7.35548 76.2362 7.33263C76.3505 7.30978 76.4419 7.30978 76.4419 7.28693C76.4876 7.28693 76.1905 7.30978 76.122 7.33263ZM76.579 7.30978C76.8304 7.33263 77.7445 7.33263 77.6759 7.30978C77.6302 7.28693 77.356 7.28693 77.036 7.28693C76.7161 7.30978 76.5105 7.30978 76.579 7.30978ZM0.870605 8.61234C0.870605 9.04653 0.870606 9.22934 0.893458 9.00082C0.893458 8.7723 0.893458 8.40667 0.893458 8.201C0.870606 7.97248 0.870605 8.17815 0.870605 8.61234ZM22.3743 10.2805C22.3743 10.4176 22.3743 10.4633 22.3971 10.3948C22.3971 10.3262 22.3971 10.212 22.3971 10.1663C22.3743 10.0977 22.3743 10.1663 22.3743 10.2805ZM26.2134 10.3491C26.2134 10.4405 26.2134 10.4633 26.2362 10.4176C26.2362 10.3719 26.2362 10.3034 26.2362 10.2577C26.2362 10.2348 26.2134 10.2805 26.2134 10.3491ZM52.3788 12.5657C52.4245 12.5657 52.4702 12.5657 52.5159 12.5657C52.5616 12.5657 52.5159 12.5429 52.4474 12.5429C52.3788 12.5657 52.356 12.5657 52.3788 12.5657ZM52.7673 12.5886C52.8587 12.5886 53.0187 12.5886 53.1101 12.5886C53.2015 12.5886 53.1101 12.5657 52.9273 12.5657C52.7445 12.5657 52.6759 12.5657 52.7673 12.5886ZM53.5214 12.5886C53.6585 12.5886 53.8642 12.5886 54.0013 12.5886C54.1384 12.5886 54.0242 12.5657 53.7728 12.5657C53.5214 12.5657 53.3843 12.5657 53.5214 12.5886ZM54.4584 12.5886C54.5955 12.5886 54.8011 12.5886 54.9383 12.5886C55.0754 12.5886 54.9611 12.5657 54.7097 12.5657C54.4584 12.5657 54.3441 12.5657 54.4584 12.5886ZM55.2582 12.5886C55.3039 12.5886 55.3724 12.5886 55.4181 12.5886C55.4638 12.5886 55.4181 12.5657 55.3267 12.5657C55.2353 12.5657 55.2125 12.5657 55.2582 12.5886ZM55.6924 12.5657C55.7609 12.5886 55.7609 12.68 55.7609 13.7312V14.8738V13.7083C55.7838 12.5886 55.7838 12.5657 55.6924 12.5657C55.6467 12.5657 55.6467 12.5657 55.6924 12.5657ZM47.2829 14.7595C47.42 14.8509 47.4885 14.8738 47.3971 14.8052C47.3514 14.7595 47.2829 14.7367 47.26 14.7367C47.2372 14.7138 47.2372 14.7367 47.2829 14.7595Z" fill="#F01C24"/>
<path fill-rule="evenodd" clip-rule="evenodd" d="M2.97298 5.02458C2.92728 5.09314 2.92728 5.09314 3.01869 5.04744C3.1558 4.97888 3.1558 4.97888 3.08724 4.97888C3.06439 4.97888 2.99584 5.00173 2.97298 5.02458ZM18.0781 5.80155C18.0552 5.8244 18.1238 6.00722 18.1467 6.00722C18.1467 6.00722 18.1467 5.96152 18.1238 5.91581C18.101 5.87011 18.101 5.8244 18.101 5.80155C18.1238 5.7787 18.1238 5.7787 18.101 5.7787C18.0781 5.7787 18.101 5.7787 18.0781 5.80155ZM70.1576 7.33263C70.0434 7.35548 71.5287 7.35548 71.7573 7.33263C71.8258 7.33263 71.5059 7.30978 71.0717 7.30978C70.6375 7.30978 70.2033 7.30978 70.1576 7.33263ZM71.8715 7.30978C71.8715 7.30978 71.9858 7.33263 72.1 7.35548C72.2371 7.37834 72.2829 7.35548 72.2143 7.35548C72.1229 7.30978 71.8487 7.28693 71.8715 7.30978ZM76.122 7.33263C76.0763 7.35548 76.122 7.35548 76.2362 7.33263C76.3505 7.30978 76.4419 7.30978 76.4419 7.28693C76.4876 7.28693 76.1905 7.30978 76.122 7.33263ZM76.579 7.30978C76.8304 7.33263 77.7445 7.33263 77.6759 7.30978C77.6302 7.28693 77.356 7.28693 77.036 7.28693C76.7161 7.30978 76.5105 7.30978 76.579 7.30978ZM0.870605 8.61234C0.870605 9.04653 0.870606 9.22934 0.893458 9.00082C0.893458 8.7723 0.893458 8.40667 0.893458 8.201C0.870606 7.97248 0.870605 8.17815 0.870605 8.61234ZM22.3743 10.2805C22.3743 10.4176 22.3743 10.4633 22.3971 10.3948C22.3971 10.3262 22.3971 10.212 22.3971 10.1663C22.3743 10.0977 22.3743 10.1663 22.3743 10.2805ZM26.2134 10.3491C26.2134 10.4405 26.2134 10.4633 26.2362 10.4176C26.2362 10.3719 26.2362 10.3034 26.2362 10.2577C26.2362 10.2348 26.2134 10.2805 26.2134 10.3491ZM52.3788 12.5657C52.4245 12.5657 52.4702 12.5657 52.5159 12.5657C52.5616 12.5657 52.5159 12.5429 52.4474 12.5429C52.3788 12.5657 52.356 12.5657 52.3788 12.5657ZM52.7673 12.5886C52.8587 12.5886 53.0187 12.5886 53.1101 12.5886C53.2015 12.5886 53.1101 12.5657 52.9273 12.5657C52.7445 12.5657 52.6759 12.5657 52.7673 12.5886ZM53.5214 12.5886C53.6585 12.5886 53.8642 12.5886 54.0013 12.5886C54.1384 12.5886 54.0242 12.5657 53.7728 12.5657C53.5214 12.5657 53.3843 12.5657 53.5214 12.5886ZM54.4584 12.5886C54.5955 12.5886 54.8011 12.5886 54.9383 12.5886C55.0754 12.5886 54.9611 12.5657 54.7097 12.5657C54.4584 12.5657 54.3441 12.5657 54.4584 12.5886ZM55.2582 12.5886C55.3039 12.5886 55.3724 12.5886 55.4181 12.5886C55.4638 12.5886 55.4181 12.5657 55.3267 12.5657C55.2353 12.5657 55.2125 12.5657 55.2582 12.5886ZM55.6924 12.5657C55.7609 12.5886 55.7609 12.68 55.7609 13.7312V14.8738V13.7083C55.7838 12.5886 55.7838 12.5657 55.6924 12.5657C55.6467 12.5657 55.6467 12.5657 55.6924 12.5657ZM47.2829 14.7595C47.42 14.8509 47.4885 14.8738 47.3971 14.8052C47.3514 14.7595 47.2829 14.7367 47.26 14.7367C47.2372 14.7138 47.2372 14.7367 47.2829 14.7595Z" fill="#F01C24"/>
</svg>
