<svg width="88" height="24" viewBox="0 0 88 24" fill="none" xmlns="http://www.w3.org/2000/svg">
<path d="M87.3721 4.71889C87.3721 4.71889 87.3499 4.65222 87.3425 4.62259C79.6536 4.62259 71.9647 4.62259 64.2758 4.62259C64.2536 4.64481 64.2462 4.66703 64.2388 4.69666C64.2388 10.6596 64.2388 16.6226 64.2388 22.5856C64.2906 22.9041 64.461 23.193 64.698 23.4078C64.7054 23.4078 64.7277 23.4078 64.7425 23.4152C64.861 23.5411 65.0314 23.6004 65.1943 23.6596C65.3128 23.6596 65.4314 23.7041 65.5499 23.6893H75.098C75.1869 23.6893 75.2832 23.7041 75.3721 23.667C75.3721 23.6522 75.3721 23.63 75.3795 23.6152C75.3795 23.6004 75.3795 23.5633 75.3869 23.5411C75.5943 22.4004 75.7869 21.2522 76.0091 20.1115C76.0091 20.0596 76.024 20.0152 76.0314 19.9633C75.1499 19.9633 74.261 19.9633 73.3795 19.9633C73.1647 19.9633 72.9425 19.9633 72.7277 19.9337C72.3573 19.9189 71.9943 19.9337 71.6239 19.8967C71.1721 19.8967 70.7202 19.8522 70.261 19.8522C69.9054 19.8152 69.5425 19.83 69.1795 19.8152C68.9425 19.7856 68.7054 19.8004 68.4684 19.7856C68.0832 19.7411 67.6906 19.7707 67.3054 19.7337C66.898 19.7337 66.4906 19.7041 66.0758 19.6893C66.0758 19.6893 66.0758 19.6744 66.0758 19.667C66.2091 19.667 66.3425 19.667 66.4832 19.6596C66.7869 19.6226 67.0906 19.6448 67.3943 19.6078C67.7128 19.6078 68.024 19.5633 68.3351 19.5633C68.6165 19.5263 68.898 19.5485 69.1795 19.5115C69.5054 19.5115 69.8314 19.467 70.1573 19.467C70.424 19.43 70.698 19.4522 70.9721 19.4152C71.2906 19.4152 71.6017 19.3707 71.9128 19.3707C72.224 19.3337 72.5351 19.3411 72.8462 19.3115C72.8165 19.193 72.7943 19.0744 72.7647 18.9485C72.7425 18.8744 72.6536 18.8893 72.5943 18.8819C71.8906 18.7781 71.1869 18.6818 70.4906 18.5856C70.5351 18.5485 70.5943 18.5633 70.6462 18.5559C71.1943 18.5115 71.7351 18.467 72.2758 18.4226C72.4017 18.4226 72.5202 18.393 72.6462 18.393C72.5943 18.2226 72.5573 18.0374 72.4832 17.8818C71.3202 17.7041 70.1499 17.5411 68.9869 17.3559C69.2906 17.3041 69.5943 17.2818 69.898 17.2522H69.9277C70.8906 17.1411 71.861 17.03 72.824 16.9337C74.0462 16.9337 75.2684 16.9337 76.4906 16.9337C76.5277 16.9337 76.5943 16.9485 76.6017 16.8893C76.7054 16.3633 76.8017 15.8374 76.898 15.3115C77.0388 14.5781 77.261 13.8596 77.6017 13.193C78.1351 12.1189 78.9869 11.2152 80.0165 10.6078C80.9795 10.0448 82.098 9.77074 83.2091 9.71889C83.5721 9.68926 83.9351 9.69666 84.2906 9.74111C84.5277 9.79296 84.7647 9.85963 84.9499 10.0226C85.1054 10.1485 85.1943 10.3263 85.261 10.5115C85.4091 10.9411 85.498 11.393 85.5647 11.8448C85.5647 12.03 85.6017 12.23 85.5054 12.4004C85.4165 12.5633 85.2314 12.6374 85.061 12.6893C84.4314 12.8522 83.7795 12.6967 83.1499 12.8522C82.6314 12.9633 82.1499 13.2448 81.824 13.6596C81.4388 14.1411 81.2314 14.7337 81.1202 15.3337C81.0314 15.867 80.9202 16.4004 80.8314 16.9337C81.4462 16.9337 82.0684 16.9337 82.6906 16.9337C82.9351 16.9337 83.1869 17.067 83.2906 17.3041C83.424 17.6004 83.3943 17.9411 83.3499 18.2522C83.298 18.6078 83.2165 18.9559 83.0536 19.2818C82.9202 19.5559 82.698 19.8078 82.3943 19.9115C82.2388 19.9707 82.0684 19.9633 81.9054 19.9633C81.3573 19.9633 80.8165 19.9633 80.2684 19.9633C80.1795 20.3633 80.1202 20.7707 80.0462 21.1781C79.9054 21.9707 79.7647 22.7559 79.624 23.5485C79.624 23.5781 79.624 23.63 79.624 23.6596C79.8832 23.6744 80.1351 23.6596 80.3943 23.6596C82.298 23.6596 84.2017 23.6596 86.1054 23.6596C86.3128 23.6596 86.5203 23.6152 86.698 23.5189C86.8017 23.4818 86.8684 23.3856 86.9647 23.3337C87.0536 23.2818 87.0832 23.1781 87.1573 23.1041C87.2388 22.9559 87.3277 22.8004 87.3351 22.6226C87.3425 22.6226 87.3721 22.6226 87.3869 22.6226C87.3795 16.6522 87.3869 10.6744 87.3869 4.70407L87.3721 4.71889Z" fill="url(#paint0_linear_26_3512)" stroke="#FBD10E" stroke-width="0.291667"/>
<path d="M67.2612 0.792774C67.5352 0.703885 67.8241 0.763144 68.1056 0.740922C73.4093 0.740922 78.7056 0.740922 84.0093 0.740922C84.3278 0.726107 84.6019 0.903885 84.8908 1.00018C85.1278 1.09648 85.3649 1.17055 85.6019 1.26685C85.6538 1.28907 85.6834 1.32611 85.7204 1.36314C85.7204 1.79277 85.7204 2.2224 85.7204 2.65203C85.7204 2.76314 85.7056 2.88166 85.7427 2.99277C85.8093 3.00018 85.8464 3.05203 85.8908 3.09648C86.1056 3.19277 86.2834 3.35574 86.4834 3.48166C86.7723 3.68907 87.0908 3.87426 87.3723 4.08907C87.3871 4.17055 87.3723 4.25944 87.3501 4.34092C87.3204 4.42981 87.3427 4.52611 87.3278 4.6224C79.639 4.6224 71.9501 4.6224 64.2612 4.6224C64.2464 4.5187 64.276 4.40759 64.2315 4.30388C64.2315 4.2224 64.1945 4.11129 64.276 4.05203C64.6019 3.8224 64.9427 3.6224 65.2612 3.37796C65.4612 3.25203 65.6538 3.1187 65.8389 2.99277C65.876 2.92611 65.8686 2.84463 65.8686 2.77796C65.8686 2.30389 65.8686 1.83722 65.8686 1.36314C65.9797 1.2224 66.1723 1.20759 66.3204 1.13351C66.6315 1.015 66.9427 0.903885 67.2464 0.785367M67.2686 0.837219C66.8538 0.992774 66.4315 1.14833 66.0167 1.31129C65.9649 1.3187 65.9352 1.37055 65.9056 1.415C65.9056 1.44463 65.9056 1.48907 65.9056 1.51129C65.9056 1.90389 65.9056 2.28907 65.9056 2.68166C65.9056 2.77796 65.8982 2.87426 65.9352 2.96314C65.8908 3.00759 65.8464 3.04463 65.7945 3.08166C65.3204 3.38537 64.8686 3.7187 64.4019 4.0224C64.3204 4.07426 64.2315 4.13351 64.2538 4.24463C64.239 4.30388 64.2686 4.34833 64.3278 4.33352C65.3501 4.33352 66.3649 4.33351 67.3797 4.32611C68.8982 4.32611 70.4093 4.32611 71.9278 4.32611H71.9501C72.0167 4.32611 72.0834 4.32611 72.1575 4.32611C74.9056 4.32611 77.6538 4.32611 80.4019 4.32611C81.2686 4.32611 82.1352 4.32611 83.0019 4.32611C84.4315 4.32611 85.8612 4.34092 87.2908 4.32611C87.3352 4.3187 87.3427 4.28907 87.3278 4.23722C87.3278 4.18537 87.3427 4.11129 87.2908 4.08166C87.0612 3.97796 86.8686 3.80759 86.6538 3.68166C86.5723 3.615 86.476 3.57796 86.4167 3.49648C86.1945 3.37055 85.9871 3.215 85.7649 3.07426C85.7204 3.04463 85.6908 3.00759 85.6538 2.97055C85.676 2.90389 85.6834 2.82981 85.6834 2.75574C85.6834 2.34092 85.6834 1.93351 85.6834 1.5187C85.6908 1.45203 85.6834 1.37796 85.6315 1.33351C85.239 1.19277 84.8538 1.04463 84.4686 0.903885C84.3501 0.844626 84.2167 0.814996 84.0834 0.792774H67.4908C67.4167 0.792774 67.3501 0.829811 67.2834 0.844626L67.2686 0.837219Z" fill="#F7F3B6"/>
<path d="M67.2612 0.792774C67.5352 0.703885 67.8241 0.763144 68.1056 0.740922C73.4093 0.740922 78.7056 0.740922 84.0093 0.740922C84.3278 0.726107 84.6019 0.903885 84.8908 1.00018C85.1278 1.09648 85.3649 1.17055 85.6019 1.26685C85.6538 1.28907 85.6834 1.32611 85.7204 1.36314C85.7204 1.79277 85.7204 2.2224 85.7204 2.65203C85.7204 2.76314 85.7056 2.88166 85.7427 2.99277C85.8093 3.00018 85.8464 3.05203 85.8908 3.09648C86.1056 3.19277 86.2834 3.35574 86.4834 3.48166C86.7723 3.68907 87.0908 3.87426 87.3723 4.08907C87.3871 4.17055 87.3723 4.25944 87.3501 4.34092C87.3204 4.42981 87.3427 4.52611 87.3278 4.6224C79.639 4.6224 71.9501 4.6224 64.2612 4.6224C64.2464 4.5187 64.276 4.40759 64.2315 4.30388C64.2315 4.2224 64.1945 4.11129 64.276 4.05203C64.6019 3.8224 64.9427 3.6224 65.2612 3.37796C65.4612 3.25203 65.6538 3.1187 65.8389 2.99277C65.876 2.92611 65.8686 2.84463 65.8686 2.77796C65.8686 2.30389 65.8686 1.83722 65.8686 1.36314C65.9797 1.2224 66.1723 1.20759 66.3204 1.13351C66.6315 1.015 66.9427 0.903886 67.2464 0.785367M67.2686 0.837219C66.8538 0.992774 66.4315 1.14833 66.0167 1.31129C65.9649 1.3187 65.9352 1.37055 65.9056 1.415C65.9056 1.44463 65.9056 1.48907 65.9056 1.51129C65.9056 1.90389 65.9056 2.28907 65.9056 2.68166C65.9056 2.77796 65.8982 2.87426 65.9352 2.96314C65.8908 3.00759 65.8464 3.04463 65.7945 3.08166C65.3204 3.38537 64.8686 3.7187 64.4019 4.0224C64.3204 4.07426 64.2315 4.13351 64.2538 4.24463C64.239 4.30388 64.2686 4.34833 64.3278 4.33352C65.3501 4.33352 66.3649 4.33351 67.3797 4.32611C68.8982 4.32611 70.4093 4.32611 71.9278 4.32611H71.9501C72.0167 4.32611 72.0834 4.32611 72.1575 4.32611C74.9056 4.32611 77.6538 4.32611 80.4019 4.32611C81.2686 4.32611 82.1352 4.32611 83.0019 4.32611C84.4315 4.32611 85.8612 4.34092 87.2908 4.32611C87.3352 4.3187 87.3427 4.28907 87.3278 4.23722C87.3278 4.18537 87.3427 4.11129 87.2908 4.08166C87.0612 3.97796 86.8686 3.80759 86.6538 3.68166C86.5723 3.615 86.476 3.57796 86.4167 3.49648C86.1945 3.37055 85.9871 3.215 85.7649 3.07426C85.7204 3.04463 85.6908 3.00759 85.6538 2.97055C85.676 2.90389 85.6834 2.82981 85.6834 2.75574C85.6834 2.34092 85.6834 1.93351 85.6834 1.5187C85.6908 1.45203 85.6834 1.37796 85.6315 1.33351C85.239 1.19277 84.8538 1.04463 84.4686 0.903885C84.3501 0.844626 84.2167 0.814996 84.0834 0.792774H67.4908C67.4167 0.792774 67.3501 0.829811 67.2834 0.844626L67.2686 0.837219Z" stroke="#F7F3B6" stroke-width="0.291667"/>
<path d="M65.9272 1.51114C66.2161 1.62966 66.5198 1.69632 66.8087 1.81484C66.9643 1.8741 67.0161 2.04447 67.0828 2.18521C67.0161 2.25188 66.9347 2.31114 66.8532 2.36299C66.5569 2.56299 66.2458 2.75558 65.9569 2.9704C65.9198 2.88151 65.9347 2.78521 65.9272 2.68892C65.9272 2.29632 65.9272 1.91114 65.9272 1.51855V1.51114Z" fill="#F6B419" stroke="#F6B419" stroke-width="0.291667"/>
<path d="M70.8754 1.95599C71.231 1.87451 71.631 2.19303 71.6013 2.5634C71.6013 2.93377 71.2162 3.23006 70.8606 3.14117C70.7199 3.08932 70.5791 3.01525 70.4902 2.88932C70.3791 2.71895 70.3495 2.48932 70.4384 2.29673C70.505 2.11155 70.6754 1.99303 70.8606 1.94858L70.8754 1.95599Z" fill="#BDA830" stroke="#BDA830" stroke-width="0.291667"/>
<path d="M66.8465 2.36302C66.928 2.31117 67.0095 2.25932 67.0762 2.18524L67.0984 2.20746C67.1206 2.37783 67.0984 2.5482 67.1132 2.71857C67.1058 3.22228 67.1206 3.73339 67.0984 4.2445C66.1502 4.2445 65.2095 4.2445 64.2613 4.2445C64.2317 4.1408 64.328 4.07413 64.4095 4.02228C64.8836 3.71857 65.3354 3.39265 65.8021 3.08154C65.8539 3.05191 65.8984 3.00746 65.9428 2.96302C66.2391 2.75561 66.5428 2.56302 66.8391 2.35561L66.8465 2.36302Z" fill="#F7E52A" stroke="#F7E52A" stroke-width="0.291667"/>
<path d="M87.3425 4.23726C86.3944 4.23726 85.4536 4.23726 84.5129 4.23726C84.4981 4.10393 84.5129 3.978 84.5055 3.85208C84.5055 3.33356 84.5055 2.81504 84.5055 2.29652C84.5055 2.25208 84.5129 2.21504 84.5351 2.18541C84.6018 2.05208 84.6536 1.88171 84.8092 1.82245C85.0981 1.71134 85.4018 1.62985 85.6906 1.51874C85.6981 1.45208 85.6906 1.378 85.6388 1.33356C85.2462 1.19282 84.861 1.04467 84.4758 0.903928C84.3573 0.844668 84.224 0.815038 84.0906 0.792816H67.4981C67.424 0.792816 67.3573 0.829854 67.2906 0.844668C66.8758 1.00022 66.4536 1.15578 66.0388 1.31874C65.9869 1.32615 65.9573 1.378 65.9277 1.42245C65.9277 1.45208 65.9277 1.49652 65.9277 1.51874C66.2166 1.63726 66.5203 1.70393 66.8092 1.82245C66.9647 1.88171 67.0166 2.05208 67.0832 2.19282L67.1055 2.21504C67.1277 2.38541 67.1055 2.55578 67.1203 2.72615C67.1129 3.22985 67.1277 3.74096 67.1055 4.25208C66.1573 4.25208 65.2166 4.25208 64.2684 4.25208C64.2536 4.31133 64.2832 4.35578 64.3425 4.34097C65.3647 4.34097 66.3795 4.34097 67.3944 4.33356C68.9129 4.33356 70.424 4.33356 71.9425 4.33356H71.9647C72.0314 4.33356 72.0981 4.33356 72.1721 4.33356C74.9203 4.33356 77.6684 4.33356 80.4166 4.33356C81.2832 4.33356 82.1499 4.33356 83.0166 4.33356C84.4462 4.33356 85.8758 4.34837 87.3055 4.33356C87.3499 4.32615 87.3573 4.29652 87.3425 4.24467V4.23726ZM70.4536 2.29652C70.5203 2.11134 70.6906 1.99282 70.8758 1.94837C71.2314 1.86689 71.6314 2.18541 71.6018 2.55578C71.6018 2.92615 71.2166 3.22245 70.861 3.13356C70.7203 3.08171 70.5795 3.00763 70.4906 2.8817C70.3795 2.71133 70.3499 2.48171 70.4388 2.28911L70.4536 2.29652ZM80.1425 2.15578C80.2906 1.99282 80.5277 1.89652 80.7499 1.95578C80.9129 2.00763 81.0758 2.11133 81.1499 2.2743C81.2906 2.55578 81.1795 2.93356 80.9055 3.0743C80.661 3.20763 80.3499 3.14837 80.1573 2.94837C79.9647 2.73356 79.9499 2.37059 80.1425 2.15578Z" fill="url(#paint1_radial_26_3512)" stroke="#FBD10E" stroke-width="0.291667"/>
<path d="M70.5868 5.84486C70.5868 6.00783 70.4831 6.03005 70.5127 6.19301C70.4609 6.19301 70.3868 6.14857 70.3498 6.11894C70.2831 6.05227 70.2016 5.97079 70.172 5.84486C70.1424 5.73375 70.0831 5.44487 70.3276 5.31894C70.5646 5.19301 70.7646 5.34857 70.8164 5.34116C70.8683 5.35598 70.5868 5.63746 70.6387 5.62264L70.5942 5.84486H70.5868Z" fill="url(#paint2_linear_26_3512)" stroke="#FBD10E" stroke-width="0.291667"/>
<path d="M80.5424 7.74861C80.5943 7.70416 80.6239 7.70416 80.6906 7.70416C80.298 8.54861 79.8462 9.39305 79.1647 10.0523C79.0906 10.119 79.0165 10.1782 78.935 10.2301C78.8536 10.2893 78.7795 10.3412 78.7054 10.3931C78.6313 10.4449 78.5573 10.4968 78.4832 10.5486C78.298 10.6523 78.135 10.7856 77.9276 10.8523C77.5573 11.0301 77.1499 11.1486 76.7424 11.2375C76.5869 11.2671 76.4239 11.3042 76.261 11.3042C76.061 11.3634 75.8462 11.319 75.6387 11.3338C75.5276 11.356 75.4239 11.2893 75.3128 11.3042C75.2165 11.2893 75.1202 11.2745 75.0239 11.2523C74.9276 11.2301 74.8313 11.2079 74.735 11.1856C73.2462 10.719 71.7869 9.58564 71.3573 8.0449C71.335 7.9412 71.3276 7.8375 71.3276 7.73379C71.3721 7.82268 71.4165 7.91157 71.4684 8.00787C72.0758 9.32638 73.2758 10.3634 74.6906 10.6819C74.8091 10.7338 74.9276 10.719 75.0387 10.7634C75.1424 10.7634 75.2387 10.7634 75.335 10.7931C75.6684 10.7931 76.0017 10.7931 76.335 10.7931C76.3795 10.7931 76.4239 10.7708 76.4684 10.7634C77.0239 10.7412 77.5721 10.5931 78.0832 10.3634C78.1869 10.319 78.2832 10.2671 78.3869 10.2153C78.4758 10.1708 78.5573 10.119 78.6387 10.0671C78.7202 10.0153 78.7943 9.96342 78.8758 9.90416C79.4758 9.43009 79.9943 8.80787 80.3499 8.10416C80.4165 7.97824 80.4758 7.85972 80.535 7.74861H80.5424Z" fill="#BDA830" stroke="#BDA830" stroke-width="0.291667"/>
<path d="M80.0165 10.6298C80.9794 10.0668 82.0979 9.79271 83.2091 9.74086C83.572 9.71123 83.935 9.71864 84.2905 9.76308C84.5276 9.81494 84.7646 9.8816 84.9498 10.0446C84.8535 10.0446 84.7646 10.0075 84.6683 9.99271C84.4016 9.94086 84.1276 9.96308 83.8535 9.95568C83.0683 9.95568 82.2831 10.0149 81.5276 10.2297C81.135 10.3483 80.735 10.489 80.372 10.6964C79.7498 11.0372 79.1868 11.4964 78.735 12.0372C77.9202 12.9705 77.4461 14.1483 77.2165 15.3557C77.1054 16.0001 76.9794 16.6446 76.8757 17.2964C76.7128 17.3112 76.5498 17.2964 76.3868 17.2964C75.6757 17.2964 74.9572 17.2964 74.2461 17.2816C74.0905 17.2816 73.9424 17.252 73.7942 17.2594C72.4979 17.2594 71.1942 17.2594 69.8979 17.2594H69.9202C70.8831 17.1483 71.8535 17.0372 72.8165 16.9409C74.0387 16.9409 75.2609 16.9409 76.4831 16.9409C76.5202 16.9409 76.5868 16.9557 76.5942 16.8964C76.6979 16.3705 76.7942 15.8446 76.8905 15.3186C77.0313 14.5853 77.2535 13.8668 77.5942 13.2001C78.1276 12.126 78.9794 11.2223 80.0091 10.6149L80.0165 10.6298Z" fill="#126AB4" stroke="#126AB4" stroke-width="0.291667"/>
<path d="M81.5275 10.2297C82.2831 10.0149 83.0757 9.9556 83.8535 9.9556C84.1201 9.9556 84.4016 9.94079 84.6683 9.99264C84.7646 10.0075 84.8535 10.0445 84.9498 10.0445C85.1053 10.1704 85.1942 10.3482 85.2609 10.5334C85.409 10.963 85.4979 11.4149 85.5646 11.8667C85.5646 12.0519 85.6016 12.2519 85.5053 12.4223C85.4164 12.5852 85.2312 12.6593 85.0609 12.7112C84.4312 12.8741 83.7794 12.7186 83.1498 12.8741C82.6312 12.9852 82.1498 13.2667 81.8238 13.6815C81.4386 14.163 81.2312 14.7556 81.1201 15.3556C81.0312 15.8889 80.9201 16.4223 80.8312 16.9556C80.7942 17.0741 80.772 17.2075 80.7498 17.3334C81.3646 17.3408 81.9794 17.3334 82.5942 17.3334C82.8312 17.3334 83.0609 17.3334 83.2979 17.326C83.4312 17.6223 83.4016 17.963 83.3572 18.2741C83.3053 18.6297 83.2238 18.9778 83.0609 19.3038C82.9275 19.5778 82.7053 19.8297 82.4016 19.9334C82.2461 19.9926 82.0757 19.9852 81.9127 19.9852C81.3646 19.9852 80.8238 19.9852 80.2757 19.9852C80.1868 20.3852 80.1275 20.7926 80.0535 21.2C79.9127 21.9852 79.772 22.7778 79.6312 23.5704C79.6312 23.6 79.6312 23.6519 79.6312 23.6815C78.209 23.6815 76.7942 23.6815 75.3794 23.6815C75.3794 23.6667 75.3794 23.6445 75.3868 23.6297C75.3868 23.6149 75.3868 23.5778 75.3942 23.5556C75.3942 23.5852 75.3942 23.6297 75.4016 23.6519C75.4905 23.6593 75.6461 23.7038 75.6683 23.5778C75.8905 22.3852 76.0905 21.1852 76.3201 19.9852C76.2312 19.963 76.1424 19.963 76.0535 19.9852C76.0386 20.0297 76.0238 20.0741 76.009 20.1186C76.009 20.0667 76.0238 20.0223 76.0312 19.9704C75.1498 19.9704 74.2609 19.9704 73.3794 19.9704C73.1646 19.9704 72.9424 19.9704 72.7275 19.9482C72.3572 19.9334 71.9942 19.9482 71.6238 19.9112C71.172 19.9112 70.7201 19.8667 70.2609 19.8667C69.9053 19.8297 69.5424 19.8445 69.1794 19.8297C68.9424 19.8 68.7053 19.8149 68.4683 19.8C68.0831 19.7556 67.6905 19.7852 67.3053 19.7482C66.8979 19.7482 66.4905 19.7186 66.0757 19.7037C66.0757 19.7037 66.0757 19.6889 66.0757 19.6815C66.209 19.6815 66.3424 19.6815 66.4831 19.6741C66.7868 19.6371 67.0905 19.6593 67.3942 19.6223C67.7127 19.6223 68.0238 19.5778 68.3349 19.5778C68.6164 19.5408 68.8979 19.563 69.172 19.526C69.4979 19.526 69.8238 19.4815 70.1498 19.4815C70.4164 19.4445 70.6905 19.4667 70.9646 19.4297C71.2831 19.4297 71.5942 19.3852 71.9053 19.3852C72.2164 19.3482 72.5275 19.3556 72.8387 19.326C72.809 19.2075 72.7868 19.0889 72.7572 18.963C72.7349 18.8889 72.6461 18.9037 72.5868 18.8963C71.8831 18.7926 71.1794 18.6963 70.4831 18.6C70.5275 18.563 70.5868 18.5778 70.6386 18.5704C71.1868 18.526 71.7275 18.4815 72.2683 18.4371C72.3942 18.4371 72.5127 18.4075 72.6386 18.4075C72.5868 18.2371 72.5498 18.0519 72.4757 17.8963C71.3127 17.7186 70.1423 17.5556 68.9794 17.3704C69.2831 17.3186 69.5868 17.2963 69.8905 17.2667C71.1868 17.2667 72.4905 17.2741 73.7868 17.2667C73.9424 17.2593 74.0905 17.2963 74.2387 17.2889C74.9498 17.2889 75.6683 17.2963 76.3794 17.3038C76.5424 17.3038 76.7053 17.3112 76.8683 17.3038C76.972 16.6519 77.0979 16.0149 77.209 15.363C77.4386 14.1556 77.9201 12.9778 78.7275 12.0445C79.1794 11.4963 79.7424 11.0445 80.3646 10.7038C80.7275 10.4963 81.1201 10.3556 81.5201 10.2371L81.5275 10.2297Z" fill="#3279BE" stroke="#3279BE" stroke-width="0.291667"/>
<path d="M76.0455 19.9928C76.1344 19.978 76.2307 19.978 76.3122 19.9928C76.0825 21.1854 75.8825 22.3854 75.6603 23.5854C75.6381 23.7113 75.4751 23.6669 75.3936 23.6595C75.3936 23.6373 75.3936 23.5854 75.3862 23.5632C75.5936 22.4225 75.7862 21.2743 76.0085 20.1336C76.0233 20.0891 76.0381 20.0447 76.0529 20.0002L76.0455 19.9928Z" fill="#126AB4" stroke="#126AB4" stroke-width="0.291667"/>
<path d="M81.1202 5.75547C81.0906 5.70362 81.0906 5.65176 81.0906 5.5925H81.0609C81.0239 5.45176 80.9054 5.31843 80.7424 5.31102C80.6239 5.30362 80.4831 5.31102 80.4091 5.41473C80.2757 5.5925 80.3424 5.81473 80.335 6.01473C80.335 6.02954 80.335 6.05176 80.335 6.06658C80.335 6.19991 80.3202 6.33324 80.298 6.45917C80.2757 6.49621 80.2683 6.54065 80.2683 6.5851C80.2165 6.8888 80.1054 7.1925 79.9498 7.46658C79.9202 7.50361 79.898 7.54806 79.8906 7.5925C79.7943 7.76287 79.6757 7.91843 79.5572 8.07399C79.535 8.0888 79.5202 8.11102 79.5054 8.12584C79.4239 8.22954 79.3276 8.31843 79.2387 8.40732C79.2165 8.42213 79.2017 8.43695 79.1794 8.45176C79.0683 8.55547 78.9424 8.65917 78.8091 8.74065C78.7943 8.74806 78.7794 8.76287 78.7572 8.77769C77.9276 9.32584 76.9202 9.55547 75.935 9.56287C75.098 9.5925 74.2609 9.40732 73.5054 9.05176C73.4906 9.05176 73.4609 9.02954 73.4461 9.02213C73.3202 8.95547 73.1869 8.89621 73.0757 8.81473C73.0461 8.79991 73.0239 8.7851 72.9943 8.77028C72.8757 8.69621 72.7572 8.62213 72.6535 8.53325C72.6165 8.50362 72.5794 8.47399 72.5424 8.44436C72.4239 8.34806 72.3054 8.25176 72.2017 8.13324C72.172 8.10361 72.1498 8.08139 72.1202 8.05176C71.7646 7.68139 71.4906 7.23695 71.3424 6.74806C71.2017 6.36287 71.2239 5.94065 71.2091 5.53324C71.0906 5.35547 70.8461 5.25176 70.6535 5.36287C70.572 5.42213 70.5646 5.52584 70.498 5.59991C70.3943 6.67399 70.8535 7.74065 71.5868 8.51102C71.5868 8.54065 71.6017 8.55547 71.6239 8.56287C71.7572 8.68139 71.8831 8.80732 72.0091 8.92584C72.0313 8.94806 72.0609 8.97028 72.0906 8.9925C72.2239 9.09621 72.3572 9.19991 72.498 9.29621C72.5276 9.31843 72.5498 9.33325 72.5794 9.34806C72.7572 9.45176 72.9276 9.57769 73.1202 9.64436C73.135 9.65176 73.1572 9.67399 73.172 9.67399C73.7868 9.97028 74.4535 10.1703 75.135 10.2369C75.2091 10.2369 75.2831 10.2369 75.3572 10.2592C75.6831 10.2814 76.0091 10.2666 76.3276 10.2592C77.3276 10.1703 78.3646 9.92584 79.2017 9.34065V9.35547C79.2017 9.35547 79.2609 9.31102 79.2831 9.29621C79.4165 9.19991 79.5498 9.09621 79.6757 8.9851C79.7054 8.96287 79.735 8.93324 79.7646 8.90362C79.9054 8.74806 80.0757 8.60732 80.1943 8.42954H80.2165C80.2165 8.42954 80.2461 8.3925 80.2535 8.37769C80.3646 8.22954 80.4609 8.07399 80.5646 7.91843C80.5646 7.91102 80.5868 7.8888 80.5943 7.88139L80.5794 7.86658C80.5794 7.86658 80.6091 7.82954 80.6239 7.81473C80.8017 7.45176 80.9646 7.07399 81.0165 6.66658C81.0387 6.65917 81.0535 6.63695 81.0535 6.61473C81.0535 6.48139 81.1054 6.36287 81.0906 6.22954C81.1202 6.07399 81.1202 5.91102 81.1128 5.74806L81.1202 5.75547Z" fill="white" stroke="white" stroke-width="0.291667"/>
<mask id="mask0_26_3512" style="mask-type:luminance" maskUnits="userSpaceOnUse" x="70" y="5" width="12" height="6">
<path d="M81.1202 5.75547C81.0906 5.70362 81.0906 5.65176 81.0906 5.5925H81.0609C81.0239 5.45176 80.9054 5.31843 80.7424 5.31102C80.6239 5.30362 80.4831 5.31102 80.4091 5.41473C80.2757 5.5925 80.3424 5.81473 80.335 6.01473C80.335 6.02954 80.335 6.05176 80.335 6.06658C80.335 6.19991 80.3202 6.33324 80.298 6.45917C80.2757 6.49621 80.2683 6.54065 80.2683 6.5851C80.2165 6.8888 80.1054 7.1925 79.9498 7.46658C79.9202 7.50361 79.898 7.54806 79.8906 7.5925C79.7943 7.76287 79.6757 7.91843 79.5572 8.07399C79.535 8.0888 79.5202 8.11102 79.5054 8.12584C79.4239 8.22954 79.3276 8.31843 79.2387 8.40732C79.2165 8.42213 79.2017 8.43695 79.1794 8.45176C79.0683 8.55547 78.9424 8.65917 78.8091 8.74065C78.7943 8.74806 78.7794 8.76287 78.7572 8.77769C77.9276 9.32584 76.9202 9.55547 75.935 9.56287C75.098 9.5925 74.2609 9.40732 73.5054 9.05176C73.4906 9.05176 73.4609 9.02954 73.4461 9.02213C73.3202 8.95547 73.1869 8.89621 73.0757 8.81473C73.0461 8.79991 73.0239 8.7851 72.9943 8.77028C72.8757 8.69621 72.7572 8.62213 72.6535 8.53325C72.6165 8.50362 72.5794 8.47399 72.5424 8.44436C72.4239 8.34806 72.3054 8.25176 72.2017 8.13324C72.172 8.10361 72.1498 8.08139 72.1202 8.05176C71.7646 7.68139 71.4906 7.23695 71.3424 6.74806C71.2017 6.36287 71.2239 5.94065 71.2091 5.53324C71.0906 5.35547 70.8461 5.25176 70.6535 5.36287C70.572 5.42213 70.5646 5.52584 70.498 5.59991C70.3943 6.67399 70.8535 7.74065 71.5868 8.51102C71.5868 8.54065 71.6017 8.55547 71.6239 8.56287C71.7572 8.68139 71.8831 8.80732 72.0091 8.92584C72.0313 8.94806 72.0609 8.97028 72.0906 8.9925C72.2239 9.09621 72.3572 9.19991 72.498 9.29621C72.5276 9.31843 72.5498 9.33325 72.5794 9.34806C72.7572 9.45176 72.9276 9.57769 73.1202 9.64436C73.135 9.65176 73.1572 9.67399 73.172 9.67399C73.7868 9.97028 74.4535 10.1703 75.135 10.2369C75.2091 10.2369 75.2831 10.2369 75.3572 10.2592C75.6831 10.2814 76.0091 10.2666 76.3276 10.2592C77.3276 10.1703 78.3646 9.92584 79.2017 9.34065V9.35547C79.2017 9.35547 79.2609 9.31102 79.2831 9.29621C79.4165 9.19991 79.5498 9.09621 79.6757 8.9851C79.7054 8.96287 79.735 8.93324 79.7646 8.90362C79.9054 8.74806 80.0757 8.60732 80.1943 8.42954H80.2165C80.2165 8.42954 80.2461 8.3925 80.2535 8.37769C80.3646 8.22954 80.4609 8.07399 80.5646 7.91843C80.5646 7.91102 80.5868 7.8888 80.5943 7.88139L80.5794 7.86658C80.5794 7.86658 80.6091 7.82954 80.6239 7.81473C80.8017 7.45176 80.9646 7.07399 81.0165 6.66658C81.0387 6.65917 81.0535 6.63695 81.0535 6.61473C81.0535 6.48139 81.1054 6.36287 81.0906 6.22954C81.1202 6.07399 81.1202 5.91102 81.1128 5.74806L81.1202 5.75547Z" fill="white"/>
</mask>
<g mask="url(#mask0_26_3512)">
<path d="M70.2607 5.64356C70.5274 5.72504 71.1274 5.51764 71.2978 5.71023" stroke="#D2D2D2" stroke-width="6.19444"/>
<path d="M70.4087 6.44366C70.6605 6.35477 71.2013 6.14737 71.4235 6.27329" stroke="#D2D2D2" stroke-width="6.19444"/>
<path d="M70.6685 7.25135C70.787 7.28838 71.0314 7.07357 71.1499 7.01431C71.3277 6.91801 71.5129 6.85135 71.7055 6.82172" stroke="#D2D2D2" stroke-width="6.19444"/>
<path d="M71.061 8.08825C71.187 7.91048 71.3351 7.76233 71.5203 7.6364C71.6981 7.51047 72.1944 7.17714 72.4018 7.28825" stroke="#D2D2D2" stroke-width="6.19444"/>
<path d="M71.4238 8.69599C71.5646 8.58488 71.6238 8.38488 71.772 8.25895C71.9498 8.11821 72.2312 8.08858 72.4164 7.99969" stroke="#D2D2D2" stroke-width="6.19444"/>
<path d="M72.0381 9.14743C72.0825 8.83632 72.4011 8.45114 72.7048 8.48077" stroke="#D2D2D2" stroke-width="6.19444"/>
<path d="M72.5054 9.58433C72.6683 9.56952 72.8017 9.20655 72.9128 9.08804C73.0757 8.90285 73.2461 8.851 73.4609 8.78433" stroke="#D2D2D2" stroke-width="6.19444"/>
<path d="M73.4387 9.97752C73.4312 9.74789 73.6609 9.09604 73.9349 9.13308" stroke="#D2D2D2" stroke-width="6.19444"/>
<path d="M74.1348 10.1919C74.12 9.9252 74.2608 9.11779 74.5867 9.08817" stroke="#D2D2D2" stroke-width="6.19444"/>
<path d="M74.8459 10.622C74.7866 10.2442 74.7866 9.70346 75.0829 9.42938" stroke="#D2D2D2" stroke-width="6.19444"/>
<path d="M75.7354 10.7108C75.7058 10.3997 75.3947 9.76269 75.7354 9.51825" stroke="#D2D2D2" stroke-width="6.19444"/>
<path d="M76.6831 10.4955C76.5349 10.3251 76.4461 9.64362 76.5127 9.45844" stroke="#D2D2D2" stroke-width="6.19444"/>
<path d="M77.5943 10.3404C77.4832 10.133 77.335 9.9404 77.298 9.69595C77.2684 9.55521 77.3202 9.34781 77.298 9.23669" stroke="#D2D2D2" stroke-width="6.19444"/>
<path d="M78.35 10.0216C78.0981 9.85863 78.0315 9.25863 78.113 9.00677" stroke="#D2D2D2" stroke-width="6.19444"/>
<path d="M79.0906 9.69544C78.9128 9.31766 78.7276 9.02137 78.7202 8.59174" stroke="#D2D2D2" stroke-width="6.19444"/>
<path d="M79.8013 8.99912C79.5272 8.81393 79.1791 8.4806 79.2161 8.11023" stroke="#D2D2D2" stroke-width="6.19444"/>
<path d="M80.5571 8.4145C80.1423 8.32561 79.6386 7.94784 79.3867 7.6145" stroke="#D2D2D2" stroke-width="6.19444"/>
<path d="M80.9051 7.70345C80.6014 7.63679 79.6088 7.2516 79.6681 6.85901" stroke="#D2D2D2" stroke-width="6.19444"/>
<path d="M81.2316 6.94767C80.8094 6.79212 80.202 6.65878 79.8687 6.36249" stroke="#D2D2D2" stroke-width="6.19444"/>
<path d="M81.4462 6.25151C81.1796 6.27373 80.8018 6.14781 80.5351 6.10336C80.2388 6.05151 79.9573 5.95522 79.6685 5.88855" stroke="#D2D2D2" stroke-width="6.19444"/>
<path d="M81.1867 5.58462C80.6756 5.61425 80.2015 5.44388 79.7349 5.28091" stroke="#D2D2D2" stroke-width="6.19444"/>
</g>
<path d="M16.0309 7.14115C16.505 7.06708 17.0457 7.02263 17.4457 7.31893C17.6976 7.50412 17.7865 7.84486 17.7643 8.14115C17.7791 8.63745 17.5495 9.17078 17.105 9.43004C16.7124 9.64486 16.2457 9.65967 15.8087 9.61523C15.5124 9.57819 15.2235 9.42263 15.0754 9.15597C14.7346 8.3856 15.1569 7.2893 16.0309 7.14115Z" fill="#3279BE" stroke="#3279BE" stroke-width="0.319444"/>
<path d="M1.9495 7.7042C1.97913 7.43754 2.21617 7.2005 2.49025 7.20791C4.5421 7.20791 6.57913 7.21531 8.62358 7.20791C8.8458 7.19309 9.08284 7.28939 9.19395 7.48198C9.3421 7.74865 9.20876 8.03754 9.19395 8.31902C9.13469 8.68939 9.1495 9.18569 8.71247 9.33383C7.22358 9.37828 5.72728 9.33383 4.23839 9.34865C4.09765 10.2894 3.96432 11.2227 3.82358 12.1561C3.82358 12.1931 3.83099 12.2746 3.83099 12.3042C4.91988 12.2968 6.01617 12.3042 7.10506 12.2968C7.40876 12.282 7.72728 12.5338 7.69765 12.8524C7.66802 13.1783 7.60136 13.4968 7.55691 13.8301C7.51988 14.0524 7.3421 14.2598 7.11247 14.3042C5.89765 14.3338 4.66062 14.2746 3.4458 14.3338C3.25321 15.6746 3.01617 17.0153 2.81617 18.3561C2.78654 18.6227 2.57913 18.8524 2.31247 18.8598C1.80876 18.8672 1.29765 18.8672 0.793949 18.8598C0.468023 18.8672 0.201356 18.5042 0.290245 18.1931C0.830986 14.6968 1.39395 11.2079 1.9495 7.71161V7.7042Z" fill="#3279BE" stroke="#3279BE" stroke-width="0.319444"/>
<path d="M10.972 7.22279C11.4313 7.18575 11.9053 7.21538 12.3646 7.20797C12.6461 7.19316 12.935 7.41538 12.9572 7.70427C12.9572 7.9339 12.8979 8.16353 12.8683 8.39316C12.4979 10.7709 12.1127 13.1487 11.7424 15.5265C11.6905 15.9117 11.5942 16.3191 11.7053 16.7043C11.8387 17.0969 12.4313 16.9265 12.572 17.3339C12.6609 17.6598 12.5646 18.008 12.535 18.3487C12.5053 18.7932 12.0016 18.8895 11.6535 18.9858C10.8979 19.1265 9.98682 19.0228 9.44608 18.4006C9.05349 17.9487 9.03127 17.3117 9.10534 16.7413C9.57942 13.7265 10.0461 10.7043 10.5276 7.68205C10.5572 7.45983 10.735 7.25242 10.9646 7.22279H10.972Z" fill="#3279BE" stroke="#3279BE" stroke-width="0.319444"/>
<path d="M28.5943 7.7042C28.6239 7.43754 28.8609 7.20791 29.1276 7.20791H30.4757C30.8165 7.2005 31.0906 7.56346 31.0091 7.88198C30.698 9.85235 30.3794 11.8227 30.0683 13.7931C30.5424 13.719 31.0683 13.6301 31.4017 13.2524C31.9498 12.6301 32.4017 11.9116 32.7424 11.1561C32.8609 10.8598 32.9202 10.4375 33.298 10.3857C33.8017 10.3709 34.3202 10.3783 34.8239 10.3857C35.172 10.3783 35.4239 10.7709 35.3128 11.0894C35.1795 11.5635 34.9572 11.9931 34.7276 12.4153C34.2091 13.2524 33.6461 14.0746 32.898 14.7338C33.2239 15.719 33.6461 16.6746 34.0091 17.6449C34.1128 17.9635 34.372 18.3338 34.135 18.6449C33.8609 19.0153 33.3424 18.8301 32.9646 18.8746C32.5646 18.8301 31.9869 19.0375 31.7646 18.5783C31.3498 17.6079 31.0017 16.6153 30.572 15.6524C30.3202 15.6598 30.0683 15.6672 29.8165 15.6449C29.8017 15.682 29.7646 15.7486 29.7424 15.7857C29.6091 16.6746 29.4683 17.5635 29.3276 18.4524C29.2757 18.6672 29.1054 18.8524 28.8757 18.8672C28.4017 18.882 27.9276 18.8746 27.4461 18.8746C27.2387 18.8746 27.0535 18.7412 26.9646 18.5635C26.8757 18.3857 26.9276 18.1783 26.9572 17.9857C27.5054 14.5561 28.0461 11.1338 28.5869 7.7042H28.5943Z" fill="#3279BE" stroke="#3279BE" stroke-width="0.319444"/>
<path d="M53.2607 8.66726C53.32 8.41541 53.5644 8.25245 53.8089 8.25986C54.1644 8.26726 54.5274 8.25245 54.8903 8.26726C55.1866 8.27467 55.4163 8.57097 55.3792 8.85245C55.3274 9.35615 55.2015 9.86726 55.1644 10.371C55.5126 10.371 55.8681 10.3636 56.2089 10.371C56.52 10.371 56.7792 10.6895 56.7274 10.9932C56.6829 11.2673 56.6237 11.5339 56.5792 11.808C56.5348 12.0376 56.3422 12.2228 56.12 12.2599C55.6903 12.2895 55.2755 12.245 54.8607 12.2895C54.6829 13.4821 54.4903 14.6673 54.2977 15.8599C54.2681 16.1339 54.2533 16.445 54.4163 16.6821C54.6533 16.9784 55.0755 16.8673 55.4089 16.9043C55.6755 16.9858 55.8459 17.2747 55.8015 17.5413C55.757 17.845 55.7496 18.1413 55.6755 18.4376C55.5718 18.7636 55.1866 18.8302 54.8977 18.9117C54.0903 19.1265 53.157 19.1265 52.4385 18.6524C51.7718 18.2006 51.6681 17.3191 51.7348 16.5784C51.92 15.1413 52.2163 13.7117 52.3718 12.2673C52.12 12.2747 51.8237 12.3117 51.6385 12.0895C51.4237 11.8673 51.5348 11.5413 51.5644 11.2673C51.6163 10.971 51.6089 10.5932 51.9274 10.4302C52.1866 10.3339 52.4755 10.4006 52.7496 10.371C52.92 9.8006 53.0755 9.23763 53.2533 8.67467L53.2607 8.66726Z" fill="#3279BE" stroke="#3279BE" stroke-width="0.319444"/>
<path d="M48.2465 11.5483C48.8021 10.9928 49.4836 10.5261 50.2539 10.2965C50.5947 10.1483 51.0243 10.4298 51.0169 10.8002C50.9576 11.2891 50.8391 11.7706 50.7576 12.2446C50.7206 12.4817 50.5206 12.6891 50.2761 12.7187C49.4095 12.8669 48.6539 13.3928 48.0465 14.015C47.8984 14.2002 47.6761 14.378 47.6465 14.6372C47.4613 15.8817 47.2613 17.1261 47.0687 18.3632C47.0391 18.6298 46.8095 18.8891 46.5354 18.8669H45.1873C44.8761 18.8817 44.6021 18.5706 44.6391 18.2669C45.0317 15.8076 45.4169 13.3558 45.8021 10.8965C45.8169 10.6446 45.9947 10.4076 46.2539 10.3854C46.5799 10.3706 46.9132 10.378 47.2465 10.378C47.5132 10.378 47.7576 10.615 47.7576 10.8965C47.7576 11.2817 47.7206 11.6669 47.7132 12.0595C47.928 11.9261 48.0613 11.7113 48.2391 11.5558L48.2465 11.5483Z" fill="#3279BE" stroke="#3279BE" stroke-width="0.319444"/>
<path d="M15.0613 10.4154C15.5428 10.3191 16.0391 10.4006 16.5205 10.371C16.7946 10.3339 17.0909 10.5117 17.1354 10.7858C17.1724 11.0376 17.0983 11.2747 17.0761 11.5117C16.7131 13.7932 16.3502 16.0747 15.9946 18.3561C15.965 18.6154 15.7576 18.8747 15.4835 18.8598C15.002 18.8598 14.5279 18.8673 14.0391 18.8524C13.7354 18.8154 13.5131 18.4673 13.5946 18.1784C13.9798 15.808 14.3428 13.445 14.7205 11.0747C14.7354 10.8154 14.8094 10.5117 15.0761 10.408L15.0613 10.4154Z" fill="#3279BE" stroke="#3279BE" stroke-width="0.319444"/>
<path d="M43.7869 10.5335C42.461 10.2817 41.1129 10.1039 39.7721 10.2372C38.5721 10.3854 37.3647 10.9261 36.6314 11.9113C35.6092 13.2076 35.261 14.9484 35.498 16.5632C35.624 17.3335 35.9573 18.1187 36.5869 18.5928C37.1721 19.0447 37.9647 19.1113 38.6758 18.9928C39.6684 18.8002 40.5129 18.1558 41.2092 17.4447C41.2462 17.7484 41.1721 18.0447 41.1943 18.3409C41.2092 18.615 41.461 18.8743 41.7351 18.8521H42.6388C42.9055 18.8521 43.1277 18.6002 43.1425 18.3484C43.5277 15.9409 43.9055 13.5484 44.2758 11.1484C44.3277 10.8447 44.0906 10.5558 43.7869 10.5187V10.5335ZM41.2906 14.7113C40.9351 15.378 40.4388 15.978 39.8758 16.4965C39.5573 16.7632 39.1499 17.0372 38.7129 16.9484C38.2832 16.8595 38.0832 16.415 37.9869 16.0372C37.7647 15.0447 37.9721 13.9632 38.5277 13.0965C38.7795 12.6965 39.1721 12.3928 39.6388 12.2743C40.2832 12.1113 40.9721 12.1928 41.6018 12.3706L41.6388 12.4076C41.5573 13.178 41.4092 13.9409 41.2906 14.7187V14.7113Z" fill="#3279BE" stroke="#3279BE" stroke-width="0.319444"/>
<path d="M26.3646 13.3855C26.3572 12.4966 26.1127 11.5633 25.4979 10.8966C25.0683 10.4226 24.4313 10.1855 23.809 10.1929C22.7794 10.1559 21.809 10.667 21.0609 11.3411C20.8905 11.4744 20.7794 11.667 20.5868 11.7781C20.5868 11.4818 20.6164 11.1929 20.6016 10.8892C20.609 10.6152 20.3498 10.3707 20.0905 10.3707H19.1868C18.9053 10.3707 18.6757 10.6226 18.6535 10.8966C18.0979 14.4448 17.5276 18.0003 16.9646 21.5485C16.8831 21.8744 17.172 22.2152 17.5053 22.2077C18.0016 22.2003 18.5053 22.2448 18.9942 22.1707C19.3868 22.067 19.3794 21.6152 19.4387 21.2818C19.5794 20.504 19.6757 19.7189 19.7646 18.9263C21.5127 19.267 23.5424 19.03 24.8535 17.7115C25.9202 16.5485 26.4164 14.9411 26.3646 13.3781V13.3855ZM23.8757 14.2818C23.8239 15.0966 23.5276 15.9263 22.9646 16.5189C22.2313 17.2226 21.1127 17.1189 20.2016 16.8818C20.1868 16.8522 20.1572 16.8003 20.1498 16.7781C20.2905 16.0077 20.3646 15.2226 20.5424 14.4596C21.0387 13.6448 21.6461 12.8152 22.5053 12.3633C22.8239 12.2152 23.2609 12.2448 23.4905 12.5411C23.8831 13.03 23.9202 13.6892 23.8831 14.2818H23.8757Z" fill="#3279BE" stroke="#3279BE" stroke-width="0.319444"/>
<defs>
<linearGradient id="paint0_linear_26_3512" x1="75.8017" y1="4.62259" x2="75.8017" y2="23.7041" gradientUnits="userSpaceOnUse">
<stop stop-color="#F6E72F"/>
<stop offset="1" stop-color="#FDCC09"/>
</linearGradient>
<radialGradient id="paint1_radial_26_3512" cx="0" cy="0" r="1" gradientUnits="userSpaceOnUse" gradientTransform="translate(75.7055 13.3262) scale(15.5185 15.5185)">
<stop offset="0.6" stop-color="#F19520"/>
<stop offset="0.74" stop-color="#F7D01F"/>
<stop offset="1" stop-color="#FDCC09"/>
</radialGradient>
<linearGradient id="paint2_linear_26_3512" x1="70.4905" y1="5.26709" x2="70.4831" y2="6.17079" gradientUnits="userSpaceOnUse">
<stop stop-color="#F9D919"/>
<stop offset="1" stop-color="#FDCC09"/>
</linearGradient>
</defs>
</svg>
