<svg width="105" height="19" viewBox="0 0 105 19" fill="none" xmlns="http://www.w3.org/2000/svg">
<path d="M28.0285 2.60596C25.495 2.60596 24.6057 4.3677 24.6057 6.012V7.01871H24.0688C23.6829 7.01871 23.3809 7.32072 23.3809 7.70663C23.3809 8.09253 23.6829 8.39455 24.0688 8.39455H24.6057V15.3409C24.6057 15.7435 24.9245 16.0791 25.3439 16.0791C25.7466 16.0791 26.0822 15.7603 26.0822 15.3409V8.39455H27.7097C28.0956 8.39455 28.3976 8.09253 28.3976 7.70663C28.3976 7.32072 28.0956 7.01871 27.7097 7.01871H26.0822V6.012C26.0822 5.08918 26.4178 3.99857 28.0453 3.99857C28.4312 3.99857 28.7332 3.69656 28.7332 3.31065C28.7164 2.90797 28.4144 2.60596 28.0285 2.60596Z" fill="#4D4D4D"/>
<path d="M33.7332 6.78348C32.6426 6.78348 31.7198 7.2365 31.1997 7.97475V7.58884C31.1997 7.18616 30.8809 6.85059 30.4614 6.85059C30.0587 6.85059 29.7231 7.16938 29.7231 7.58884V15.3405C29.7231 15.7432 30.0419 16.0788 30.4614 16.0788C30.8641 16.0788 31.1997 15.76 31.1997 15.3405V11.062C31.1997 9.2667 32.156 8.19287 33.7332 8.19287C34.1191 8.19287 34.4379 7.87408 34.4379 7.48817C34.4547 7.10227 34.1359 6.78348 33.7332 6.78348Z" fill="#4D4D4D"/>
<path d="M42.7101 10.5925C42.7101 10.1731 42.643 9.08246 42.0054 8.17642C41.351 7.23682 40.3275 6.75024 38.9349 6.75024C36.351 6.75024 34.8745 8.46165 34.8745 11.4482C34.8745 14.5355 36.351 16.1798 39.1195 16.1798C40.9819 16.1798 42.0054 15.257 42.1899 15.0724C42.3074 14.9549 42.4416 14.8039 42.4416 14.5523C42.4416 14.1831 42.1396 13.8811 41.7705 13.8811C41.5859 13.8811 41.4685 13.9315 41.351 14.0153C40.8141 14.418 40.1933 14.8207 39.1363 14.8207C37.4752 14.8207 36.4181 13.7301 36.3678 11.9516H41.8208C42.7101 11.9348 42.7101 11.1294 42.7101 10.5925ZM38.9349 8.09253C40.445 8.09253 41.2336 8.94823 41.2671 10.6261H36.3846C36.5188 8.99857 37.4248 8.09253 38.9349 8.09253Z" fill="#4D4D4D"/>
<path d="M47.6428 10.7101C46.5522 10.341 45.6126 10.0054 45.6126 9.20007C45.6126 8.31081 46.6025 8.17658 47.1898 8.17658C48.2468 8.17658 48.767 8.5457 49.1864 8.94839C49.3206 9.08262 49.4884 9.14973 49.673 9.14973C50.0421 9.14973 50.3441 8.84772 50.3441 8.47859C50.3441 8.27725 50.2602 8.14302 50.1931 8.04235C49.5723 7.2202 48.5153 6.76718 47.1898 6.76718C45.3106 6.76718 44.1529 7.70678 44.1529 9.20007C44.1529 11.0289 45.7636 11.5826 47.173 12.0524C48.2468 12.4215 49.1696 12.7236 49.1696 13.5121C49.1696 14.586 47.9784 14.7538 47.2569 14.7538C46.2837 14.7538 45.5287 14.4517 44.9079 13.8477C44.7233 13.6632 44.522 13.6296 44.4045 13.6296C44.0354 13.6296 43.7334 13.9316 43.7334 14.3007C43.7334 14.4517 43.7837 14.5692 43.9012 14.737C44.4549 15.4417 45.7133 16.1632 47.2569 16.1632C49.371 16.1632 50.6294 15.1732 50.6294 13.5289C50.6294 11.7504 49.0522 11.1967 47.6428 10.7101Z" fill="#4D4D4D"/>
<path d="M56.3506 6.75021C55.3439 6.75021 54.4379 7.1529 53.9345 7.79048V2.82404C53.9345 2.42135 53.6157 2.08578 53.1963 2.08578C52.7936 2.08578 52.458 2.40458 52.458 2.82404V15.3576C52.458 15.7603 52.7768 16.0959 53.1963 16.0959C53.5989 16.0959 53.9345 15.7771 53.9345 15.3576V10.6428C53.9345 8.9482 54.7567 8.09249 56.3506 8.09249C57.8943 8.09249 58.5318 8.79719 58.5318 10.5086V15.3576C58.5318 15.7603 58.8506 16.0959 59.2701 16.0959C59.6728 16.0959 60.0083 15.7771 60.0083 15.3576V10.2569C59.9748 7.92471 58.75 6.75021 56.3506 6.75021Z" fill="#4D4D4D"/>
<path d="M72.2065 6.86755C71.8877 6.86755 71.636 7.05212 71.5186 7.35413L69.4213 13.3273L67.7099 7.35413C67.6427 7.11923 67.3911 6.86755 67.0219 6.86755C66.6528 6.86755 66.4011 7.11923 66.334 7.35413L64.6226 13.3105L62.5253 7.33735C62.4078 7.03534 62.1562 6.86755 61.8374 6.86755C61.4347 6.86755 61.0991 7.18634 61.0991 7.60581C61.0991 7.70648 61.1159 7.80715 61.1662 7.90782L63.9682 15.6092C64.0857 15.9112 64.3374 16.079 64.6562 16.079C64.9917 16.079 65.277 15.8608 65.3609 15.5588L67.0052 9.90447L68.6495 15.5588C68.7333 15.8608 69.0354 16.079 69.3542 16.079C69.6729 16.079 69.9246 15.8944 70.0421 15.5924L72.8441 7.89104C72.8944 7.79037 72.9112 7.67292 72.9112 7.57225C72.928 7.18634 72.6092 6.86755 72.2065 6.86755Z" fill="#4D4D4D"/>
<path d="M77.5416 6.75024C74.8738 6.75024 73.4141 8.4281 73.4141 11.4482C73.4141 14.5019 74.8738 16.1798 77.5416 16.1798C80.2094 16.1798 81.6691 14.5019 81.6691 11.4482C81.6691 8.41132 80.1926 6.75024 77.5416 6.75024ZM77.5416 14.8375C75.7631 14.8375 74.8906 13.7301 74.8906 11.465C74.8906 9.23347 75.7798 8.10931 77.5416 8.10931C79.3033 8.10931 80.1926 9.23347 80.1926 11.465C80.1926 13.7301 79.3201 14.8375 77.5416 14.8375Z" fill="#4D4D4D"/>
<path d="M87.3406 6.78348C86.25 6.78348 85.3272 7.2365 84.8071 7.97475V7.58884C84.8071 7.18616 84.4883 6.85059 84.0688 6.85059C83.6661 6.85059 83.3306 7.16938 83.3306 7.58884V15.3405C83.3306 15.7432 83.6494 16.0788 84.0688 16.0788C84.4715 16.0788 84.8071 15.76 84.8071 15.3405V11.062C84.8071 9.2667 85.7635 8.19287 87.3406 8.19287C87.7265 8.19287 88.0453 7.87408 88.0453 7.48817C88.0453 7.10227 87.7265 6.78348 87.3406 6.78348Z" fill="#4D4D4D"/>
<path d="M92.9107 10.6093L95.9476 8.17639C96.1993 7.97504 96.2328 7.72337 96.2328 7.58914C96.2328 7.18645 95.914 6.85088 95.4946 6.85088C95.3771 6.85088 95.1758 6.86766 94.9912 7.03545L90.6791 10.5589V2.82404C90.6791 2.42135 90.3603 2.08578 89.9409 2.08578C89.5382 2.08578 89.2026 2.40458 89.2026 2.82404V15.3576C89.2026 15.7603 89.5214 16.0959 89.9409 16.0959C90.3436 16.0959 90.6791 15.7771 90.6791 15.3576V12.3375L91.7026 11.5153L95.008 15.7603C95.1926 15.9784 95.3939 16.0959 95.6288 16.0959C96.0315 16.0959 96.3671 15.7771 96.3671 15.3576C96.3671 15.2401 96.3503 15.0724 96.2161 14.9046L92.9107 10.6093Z" fill="#4D4D4D"/>
<path d="M101.183 10.7101C100.092 10.341 99.1526 10.0054 99.1526 9.20007C99.1526 8.31081 100.143 8.17658 100.73 8.17658C101.787 8.17658 102.307 8.5457 102.726 8.94839C102.861 9.08262 103.028 9.14973 103.213 9.14973C103.582 9.14973 103.884 8.84772 103.884 8.47859C103.884 8.26047 103.767 8.10946 103.733 8.04235C103.112 7.2202 102.055 6.76718 100.73 6.76718C98.8506 6.76718 97.6929 7.70678 97.6929 9.20007C97.6929 11.0289 99.3036 11.5826 100.713 12.0524C101.787 12.4215 102.71 12.7236 102.71 13.5122C102.71 14.586 101.518 14.7538 100.797 14.7538C99.8238 14.7538 99.0687 14.4517 98.4479 13.8477C98.2634 13.6632 98.0788 13.6296 97.9446 13.6296C97.5755 13.6296 97.2734 13.9316 97.2734 14.3007C97.2734 14.4517 97.3238 14.5692 97.4412 14.737C97.9949 15.4417 99.2533 16.1632 100.797 16.1632C102.911 16.1632 104.169 15.1732 104.169 13.5289C104.169 11.7504 102.592 11.1967 101.183 10.7101Z" fill="#4D4D4D"/>
<path d="M0.820801 10.7716C1.10604 12.634 1.97852 14.3119 3.23691 15.5703L6.17315 12.634C6.17315 9.66422 7.71677 6.77832 10.4685 5.18436L0.820801 10.7716Z" fill="#9B65C3"/>
<path d="M6.17315 12.634C4.71342 12.634 3.23691 12.2649 1.87785 11.4763C1.50872 11.2582 1.15637 11.0233 0.820801 10.7548C1.10604 12.6172 1.97852 14.2951 3.23691 15.5535L6.17315 12.634Z" fill="#9B65C3"/>
<path d="M6.17355 12.6338L3.2373 15.57C4.51247 16.8452 6.17355 17.7177 8.03596 17.9862L13.6064 8.3385C12.0293 11.0902 9.14335 12.6338 6.17355 12.6338Z" fill="#BE63C5"/>
<path d="M7.33126 16.9456C6.54267 15.5865 6.17355 14.11 6.17355 12.6503L3.2373 15.5865C4.51247 16.8617 6.17355 17.7342 8.03596 18.0026C7.78428 17.6671 7.54939 17.3147 7.33126 16.9456Z" fill="#BF63C6"/>
<path d="M17.1127 1.3588L10.4851 5.20108C7.73346 6.79504 4.46165 6.67759 1.89453 5.20108C1.15628 6.45947 0.736816 7.93598 0.736816 9.49638C0.736816 9.93262 0.770373 10.3521 0.837487 10.7715C1.17306 11.04 1.52541 11.2749 1.89453 11.493C3.25359 12.2816 4.7301 12.6507 6.18984 12.6507L17.2972 1.54336C17.2301 1.47625 17.1798 1.40913 17.1127 1.3588Z" fill="#3278B1"/>
<path d="M1.87851 11.4926C3.23757 12.2812 4.71408 12.6503 6.17381 12.6503C6.17381 9.68049 7.71744 6.79458 10.4691 5.20062L0.804688 10.7711C1.15704 11.0228 1.50939 11.2744 1.87851 11.4926Z" fill="#3278B2"/>
<path d="M1.87793 5.20062C1.13968 6.45901 0.720215 7.93552 0.720215 9.49593C0.720215 9.93217 0.753772 10.3516 0.820886 10.7711L10.4853 5.20062C7.71686 6.7778 4.44505 6.67713 1.87793 5.20062Z" fill="#45A4EC"/>
<path d="M17.2979 1.52614C17.2475 1.4758 17.1804 1.40869 17.1133 1.35835C17.0294 1.29124 16.9455 1.22412 16.8449 1.17379C16.5261 0.989223 16.1569 0.88855 15.771 0.88855H9.32808C6.14016 0.88855 3.37171 2.61674 1.87842 5.18385C4.44553 6.66036 7.71734 6.77781 10.469 5.18385C7.71734 6.77781 6.17372 9.66372 6.17372 12.6335C9.14352 12.6335 12.0294 11.0899 13.6234 8.33822L17.4489 1.7107C17.3986 1.64359 17.3482 1.57647 17.2979 1.52614Z" fill="#19BB7D"/>
<path d="M10.4858 5.20037L17.1133 1.37487C17.0294 1.30776 16.9455 1.24064 16.8449 1.19031L1.87842 5.20037C4.44553 6.67688 7.71734 6.77755 10.4858 5.20037Z" fill="#08C7FB"/>
<path d="M15.771 0.88855H9.32808C6.14016 0.88855 3.37171 2.61674 1.87842 5.18385L16.8449 1.17379C16.5261 1.006 16.1737 0.88855 15.771 0.88855Z" fill="#59F2F6"/>
<path d="M13.6235 8.33839L17.449 1.71087C17.3987 1.64376 17.3483 1.59342 17.2812 1.52631L6.17383 12.6337C6.17383 14.0934 6.54296 15.5699 7.33155 16.929C7.54967 17.2981 7.78457 17.6505 8.05302 17.986C8.47249 18.0532 8.89195 18.0867 9.32819 18.0867C10.8886 18.0867 12.3651 17.6672 13.6235 16.929C12.147 14.3619 12.0295 11.0901 13.6235 8.33839Z" fill="#DA3757"/>
<path d="M6.17383 12.6338C6.17383 14.0935 6.54296 15.57 7.33155 16.9291C7.54967 17.2982 7.78457 17.6506 8.05302 17.9862L13.6235 8.3385C12.0295 11.0902 9.14363 12.6338 6.17383 12.6338Z" fill="#D33C4E"/>
<path d="M13.6232 8.3385L8.05273 18.0029C8.4722 18.07 8.89166 18.1036 9.3279 18.1036C10.8883 18.1036 12.3648 17.6841 13.6232 16.9459C12.1467 14.362 12.0292 11.0902 13.6232 8.3385Z" fill="#EE5A24"/>
<path d="M17.6334 1.9796C17.583 1.87893 17.5159 1.79504 17.4488 1.71115C17.3985 1.64403 17.3481 1.59369 17.281 1.52658C17.2307 1.47624 17.1636 1.40913 17.0965 1.3588L10.4857 5.20108C7.73405 6.79504 6.19043 9.68094 6.19043 12.6507C9.16023 12.6507 12.0461 11.1071 13.6401 8.35544C12.0461 11.1071 12.1636 14.3789 13.6401 16.946C16.2072 15.4528 17.9354 12.6843 17.9354 9.49638V3.05343C17.9186 2.65074 17.8179 2.28161 17.6334 1.9796Z" fill="#8BDF55"/>
<path d="M17.1132 1.3588L10.4857 5.20108C7.73405 6.79504 6.19043 9.68094 6.19043 12.6507L17.2978 1.54336C17.2307 1.47625 17.1804 1.40913 17.1132 1.3588Z" fill="#25C16F"/>
<path d="M6.17383 12.6337C9.14363 12.6337 12.0295 11.0901 13.6235 8.33839L17.449 1.71087C17.3987 1.64376 17.3483 1.59342 17.2812 1.52631L6.17383 12.6337Z" fill="#8BDF55"/>
<path d="M17.449 1.71075L13.6235 8.33827C12.0296 11.0899 12.147 14.3618 13.6235 16.9289L17.6336 1.96243C17.5833 1.87854 17.5161 1.79465 17.449 1.71075Z" fill="#FFBB00"/>
<path d="M13.623 16.9458C16.1902 15.4525 17.9183 12.684 17.9183 9.49609V3.05314C17.9183 2.66723 17.8177 2.2981 17.6331 1.97931L13.623 16.9458Z" fill="#FFA800"/>
</svg>
