<svg width="96" height="15" viewBox="0 0 96 15" fill="none" xmlns="http://www.w3.org/2000/svg">
<g clip-path="url(#clip0_26_3602)">
<path d="M15.7086 0.324524C17.5812 0.324524 19.0793 0.823901 20.1405 1.82265C21.2173 2.8214 21.7635 4.28832 21.7635 6.16098V13.714C21.7635 13.8857 21.623 14.0261 21.4514 14.0261H18.9701C18.7984 14.0261 18.658 13.8857 18.658 13.714V5.89569C18.658 5.03738 18.3927 4.35074 17.8777 3.88258C17.3471 3.39881 16.6137 3.16473 15.7086 3.16473H13.0244C12.1193 3.16473 11.3858 3.41441 10.8552 3.88258C10.3247 4.36635 10.075 5.02178 10.075 5.89569V13.714C10.075 13.8857 9.93452 14.0261 9.76286 14.0261H7.28159C7.10993 14.0261 6.96948 13.8857 6.96948 13.714V6.16098C6.96948 4.28832 7.51567 2.8214 8.59245 1.82265C9.66923 0.823901 11.1518 0.324524 13.0244 0.324524H15.7086ZM44.6567 0.324524H41.9726C40.0999 0.324524 38.6018 0.823901 37.5406 1.82265C37.5094 1.85386 37.4938 1.86947 37.4626 1.90068C37.4314 1.86947 37.4158 1.85386 37.3846 1.82265C36.3234 0.823901 34.8253 0.324524 32.9526 0.324524H30.2841C28.4114 0.324524 26.9133 0.823901 25.8521 1.82265C24.7753 2.8214 24.2292 4.28832 24.2292 6.16098V13.714C24.2292 13.8857 24.3696 14.0261 24.5413 14.0261H27.0225C27.1942 14.0261 27.3347 13.8857 27.3347 13.714V5.89569C27.3347 5.02178 27.5843 4.36635 28.1149 3.88258C28.6455 3.39881 29.379 3.16473 30.2841 3.16473H32.9682C33.8733 3.16473 34.6068 3.41441 35.1374 3.88258C35.6524 4.35074 35.9177 5.02178 35.9177 5.89569V13.714C35.9177 13.8857 36.0581 14.0261 36.2298 14.0261H38.7111C38.8827 14.0261 39.0232 13.8857 39.0232 13.714V5.89569C39.0232 5.02178 39.2729 4.36635 39.8034 3.88258C40.334 3.39881 41.0675 3.16473 41.9726 3.16473H44.6567C45.5619 3.16473 46.2953 3.41441 46.8259 3.88258C47.3409 4.35074 47.6062 5.02178 47.6062 5.89569V13.714C47.6062 13.8857 47.7466 14.0261 47.9183 14.0261H50.3996C50.5712 14.0261 50.7117 13.8857 50.7117 13.714V6.16098C50.7117 4.28832 50.1655 2.8214 49.0887 1.82265C48.0275 0.839506 46.5294 0.324524 44.6567 0.324524ZM88.04 6.66035C88.9139 7.22215 89.3665 8.28333 89.3665 9.81267C89.3665 11.3108 88.992 12.4032 88.2585 13.0586C87.5406 13.6984 86.417 14.0418 84.9345 14.0418H74.5569C74.3852 14.0418 74.2448 13.9013 74.2448 13.7296V0.65224C74.2448 0.48058 74.3852 0.34013 74.5569 0.34013H84.1074C85.4807 0.34013 86.5419 0.55861 87.2597 1.01117C88.2117 1.61978 88.6798 2.61853 88.6798 3.99181C88.6955 4.56922 88.6486 5.13102 88.5238 5.69282C88.4458 6.05174 88.2741 6.37946 88.04 6.66035ZM84.1543 5.44313C85.4339 5.44313 85.6212 4.91254 85.6212 4.35074C85.6212 3.74213 85.4339 3.18033 84.1386 3.18033H77.5219C77.4283 3.18033 77.3659 3.25836 77.3659 3.33639V5.28707C77.3659 5.38071 77.4439 5.44313 77.5219 5.44313H84.1543ZM77.3503 11.0143C77.3503 11.1079 77.4283 11.1703 77.5063 11.1703H84.6536C85.7928 11.1703 86.261 10.7334 86.261 9.67222C86.261 9.00118 86.0581 8.31454 84.56 8.31454H77.4907C77.3971 8.31454 77.3347 8.39256 77.3347 8.47059V11.0143H77.3503ZM94.6099 0.34013H92.0818C91.9102 0.34013 91.7697 0.48058 91.7697 0.65224V13.714C91.7697 13.8857 91.9102 14.0261 92.0818 14.0261H94.6099C94.7816 14.0261 94.922 13.8857 94.922 13.714V0.65224C94.922 0.48058 94.7816 0.34013 94.6099 0.34013ZM4.14489 0.324524H1.6168C1.44514 0.324524 1.30469 0.464973 1.30469 0.636634V13.7452C1.30469 13.9169 1.44514 14.0574 1.6168 14.0574H4.16049C4.33215 14.0574 4.4726 13.9169 4.4726 13.7452V0.636634C4.457 0.464973 4.31655 0.324524 4.14489 0.324524C4.14489 0.340129 4.14489 0.340129 4.14489 0.324524Z" fill="#1476FC"/>
<path d="M58.6231 2.79013H58.6387H66.4571C67.3778 2.80574 68.0644 3.00861 68.5638 3.38314C68.5794 3.38314 68.595 3.38314 68.595 3.38314C68.595 3.38314 68.595 3.36754 68.595 3.35193C68.0176 2.27515 67.1593 1.37003 66.0981 0.76142C65.5363 0.44931 64.8965 0.277649 64.2567 0.277649H58.4515C56.6724 0.324465 55.2835 0.855051 54.316 1.90062C53.3797 2.91498 52.8803 4.28826 52.8179 6.02047C52.8179 6.03607 52.8335 6.03607 52.8335 6.03607C52.8335 6.03607 52.8491 6.03607 52.8491 6.02047C54.0819 4.03857 56.2667 2.79013 58.6231 2.79013Z" fill="url(#paint0_linear_26_3602)"/>
<path d="M70.6396 1.916C69.0478 0.168187 66.4105 0.261821 65.9267 0.293032C65.9111 0.293032 65.9111 0.308638 65.9111 0.308638C65.9111 0.308638 65.9111 0.32424 65.9267 0.32424C67.9242 1.30739 69.2975 3.22686 69.594 5.42724C69.7189 6.33236 69.6565 8.14259 69.6565 8.14259C69.6252 10.6083 68.252 12.8555 66.0828 14.0103C66.0672 14.0103 66.0672 14.0259 66.0672 14.0415L66.0828 14.0571C66.551 14.0883 69.079 14.1351 70.6396 12.4185C71.6227 11.3417 72.1377 9.8592 72.1377 7.98654V6.36357C72.1533 4.4753 71.6383 2.99278 70.6396 1.916Z" fill="url(#paint1_linear_26_3602)"/>
<path d="M66.1764 13.6045C67.2532 12.9802 68.1271 12.0439 68.6577 10.9203C68.6577 10.9047 68.6577 10.8891 68.6421 10.8891C68.6421 10.8891 68.6265 10.8891 68.6109 10.8891C68.1115 11.3104 67.4092 11.5289 66.4417 11.5445H58.4829C57.3905 11.5133 56.6258 11.248 56.1265 10.7174C55.5803 10.1244 55.2994 9.2037 55.2994 7.98648V6.36351C55.2994 4.67811 55.8612 3.91344 56.0797 3.69497C56.0797 3.67936 56.0797 3.66376 56.0797 3.66376C56.0797 3.66376 56.064 3.66376 56.0484 3.66376C54.9717 4.13192 54.0509 4.88099 53.3799 5.84853C52.9742 6.45714 52.7557 7.15938 52.7713 7.89284C52.7713 9.01644 52.9898 11.0452 54.3162 12.4653C55.3774 13.6045 56.9848 14.1038 58.4517 14.0882H64.4286C65.0372 14.057 65.6458 13.901 66.1764 13.6045Z" fill="url(#paint2_linear_26_3602)"/>
</g>
<defs>
<linearGradient id="paint0_linear_26_3602" x1="53.472" y1="3.17941" x2="68.9252" y2="3.17941" gradientUnits="userSpaceOnUse">
<stop stop-color="#A5D270"/>
<stop offset="0.5" stop-color="#5DA4B6"/>
<stop offset="0.7739" stop-color="#2F87E2"/>
<stop offset="1" stop-color="#1476FC"/>
</linearGradient>
<linearGradient id="paint1_linear_26_3602" x1="68.3048" y1="0.621354" x2="73.1022" y2="12.1342" gradientUnits="userSpaceOnUse">
<stop offset="0.017" stop-color="#FFD522"/>
<stop offset="0.1518" stop-color="#E0C437"/>
<stop offset="0.5612" stop-color="#7B8C7E"/>
<stop offset="0.9015" stop-color="#2379E9"/>
<stop offset="1" stop-color="#1476FC"/>
</linearGradient>
<linearGradient id="paint2_linear_26_3602" x1="52.9606" y1="7.33815" x2="62.5346" y2="16.5951" gradientUnits="userSpaceOnUse">
<stop stop-color="#FC4B38"/>
<stop offset="0.065" stop-color="#FC4B38"/>
<stop offset="0.5" stop-color="#7E6985"/>
<stop offset="0.9526" stop-color="#1476FC"/>
</linearGradient>
<clipPath id="clip0_26_3602">
<rect width="94.7253" height="13.8889" fill="white" transform="translate(0.914551 0.277771)"/>
</clipPath>
</defs>
</svg>
