<svg width="246" height="56" viewBox="0 0 246 56" fill="none" xmlns="http://www.w3.org/2000/svg">
<path d="M23.4092 31.2417V37.229H0.0336914V7.94971H23.3476L23.4093 13.7446H7.61134V19.0638H22.1167L14.8658 25.7156H7.61134V31.2382L23.4092 31.2381V31.2417Z" fill="#15508B"/>
<path d="M46.2111 7.94995H38.3538L25.29 37.2293H33.3796V37.2257V37.2293L42.1227 17.0852L50.4919 37.2293H58.2075L46.2111 7.94995Z" fill="#15508B"/>
<path d="M109.127 7.95002C109.127 7.95002 103.583 15.7637 103.274 16.1522C103.132 15.9452 97.5046 7.95002 97.5046 7.95002H88.3804L99.803 22.7967V37.2295L106.578 37.2294V22.8365L118.306 7.94629L109.127 7.94642V7.95002Z" fill="#15508B"/>
<path d="M199.111 7.94995H191.882V37.2293H213.293V31.2383H199.111V7.94995Z" fill="#15508B"/>
<path d="M223.729 31.2383V7.94995H216.5V37.2293H237.911V31.2383H223.729Z" fill="#15508B"/>
<path d="M78.9071 20.0083H70.8865C69.1401 20.0083 67.7277 18.5958 67.7277 16.853C67.7277 15.092 69.1727 13.6724 70.9373 13.6978L82.9773 13.8793L86.1869 8.13159H68.8205C64.0859 8.13159 60.2444 11.9622 60.2444 16.6896C60.2444 21.417 64.0822 25.2475 68.8205 25.2475H76.7721C78.5041 25.2475 79.9092 26.649 79.9092 28.381C79.9092 30.113 78.504 31.5145 76.7721 31.5145H59.874V37.2222H78.9107C83.2133 37.2222 86.699 33.7402 86.699 29.4485V27.7782C86.6952 23.4902 83.2096 20.0083 78.9071 20.0083Z" fill="#15508B"/>
<path d="M137.347 20.0083H129.326C127.579 20.0083 126.167 18.5958 126.167 16.853C126.167 15.092 127.612 13.6724 129.377 13.6978L141.417 13.8793L144.626 8.13159H127.26C122.525 8.13159 118.684 11.9622 118.684 16.6896C118.684 21.417 122.522 25.2475 127.26 25.2475H135.211C136.943 25.2475 138.349 26.649 138.349 28.381C138.349 30.113 136.943 31.5145 135.211 31.5145H118.313V37.2222H137.35C141.653 37.2222 145.138 33.7402 145.138 29.4485V27.7782C145.135 23.4902 141.649 20.0083 137.347 20.0083Z" fill="#15508B"/>
<path d="M176.23 8.13525H166.169L156.434 17.8587V8.13525H149.321V37.2257H156.434V27.8981L159.088 25.2475L168.979 37.2293H178.198L164.143 20.2005L176.23 8.13525Z" fill="#15508B"/>
<path d="M179.794 37.2293H187.368V13.302L179.794 18.7701V37.2293ZM179.794 8.13525V15.771L187.368 10.3029V8.13525H179.794Z" fill="#15508B"/>
<path d="M10.3497 44.5239L9.72497 46.9526H4.40501C3.13092 46.9526 2.4689 48.6454 2.4689 50.3085C2.4689 51.9281 3.09353 53.5171 4.40501 53.5171H10.3497L9.72497 55.946H4.13013C1.4323 55.946 0.0336914 53.017 0.0336914 50.1323C0.0336914 47.3061 1.36989 44.5239 4.13013 44.5239H10.3497Z" fill="black"/>
<path d="M20.7275 52.0897H24.9758L23.0778 47.3502L19.7057 55.946H17.2705L21.96 44.5242H24.2706L28.96 55.946H26.5248L25.9127 54.4153H19.8783L20.7275 52.0897Z" fill="black"/>
<path d="M39.0393 44.5242V49.9118H43.1728C43.8724 49.9118 44.2348 49.1607 44.2348 48.41C44.2348 47.674 43.885 46.9528 43.1728 46.9528H36.729L37.3533 44.5242H43.1982C45.4709 44.5242 46.6697 46.5556 46.6697 48.5426C46.6697 50.0439 45.9833 51.5454 44.547 52.1044L46.9571 55.9463H44.2348L42.1244 52.3401H39.0393V55.9463H36.729V44.5242H39.0393Z" fill="black"/>
<path d="M57.3747 53.5173H64.4432V55.946H55.0645V44.5242H64.4432V46.9528H57.3747V49.0285H63.3818V51.4568H57.3747V53.5173Z" fill="black"/>
<path d="M74.8504 53.5173H81.9193V55.946H72.54V44.5242H81.9193V46.9528H74.8504V49.0285H80.8575V51.4568H74.8504V53.5173Z" fill="black"/>
<path d="M92.3141 44.5239V49.9116H96.4479C97.1472 49.9116 97.5092 49.1605 97.5092 48.4097C97.5092 47.6738 97.1598 46.9526 96.4479 46.9526H90.0034L90.6282 44.5239H96.4728C98.7461 44.5239 99.9449 46.5553 99.9449 48.5424C99.9449 50.0437 99.2577 51.5451 97.8218 52.1042L100.232 55.946H97.5092L95.3988 52.3398H92.3141V55.946H90.0034V44.5239H92.3141Z" fill="black"/>
<path d="M145.585 44.5242L144.96 46.9528H139.64C138.366 46.9528 137.704 48.6456 137.704 50.3088C137.704 51.9284 138.328 53.5173 139.64 53.5173H145.585L144.96 55.9463H139.365C136.667 55.9463 135.269 53.0173 135.269 50.1326C135.269 47.3063 136.605 44.5242 139.365 44.5242H145.585Z" fill="black"/>
<path d="M173.505 44.5242V53.5173H177.139C178.413 53.5173 179.074 51.825 179.074 50.1618C179.074 48.5426 178.451 46.9528 177.139 46.9528H171.194V44.5242H177.413C180.111 44.5242 181.51 47.4536 181.51 50.3383C181.51 53.1643 180.174 55.9463 177.413 55.9463H171.194V44.5242H173.505Z" fill="black"/>
<path d="M191.68 53.5173H198.749V55.946H189.37V44.5242H198.749V46.9528H191.68V49.0285H197.687V51.4568H191.68V53.5173Z" fill="black"/>
<path d="M218.909 44.524V55.9461H216.599V49.3809L213.652 55.5784H212.103L209.155 49.6316V55.9461H206.845V44.2297H209.155L212.902 52.3103L216.599 44.524H218.909Z" fill="black"/>
<path d="M233.313 55.946H231.003V52.0016L226.307 44.5239H228.992L232.177 49.8817L235.361 44.5239H238.046L233.313 52.0603V55.946Z" fill="black"/>
<path d="M120.351 52.0897H124.599L122.7 47.3502L119.329 55.946H116.894L121.583 44.5242H123.894L128.583 55.946H126.148L125.536 54.4153H119.501L120.351 52.0897Z" fill="black"/>
<path d="M155.577 52.0897H159.826L157.927 47.3502L154.555 55.946H152.12L156.81 44.5242H159.12L163.81 55.946H161.375L160.762 54.4153H154.728L155.577 52.0897Z" fill="black"/>
<g clip-path="url(#clip0_26_4685)">
<path d="M243.881 6.53844V6.53753H243.882C243.882 5.31714 243.385 4.21044 242.583 3.40816C241.781 2.60679 240.675 2.10983 239.456 2.10983V2.11167H239.454H239.453V2.10983C238.233 2.10983 237.126 2.60679 236.323 3.40907C235.522 4.21136 235.025 5.31714 235.025 6.53661H235.027V6.53936V6.54028H235.025C235.025 7.35448 235.246 8.11917 235.629 8.77384C236.398 10.0859 237.823 10.9671 239.451 10.968V10.9661H239.454H239.455V10.968C240.675 10.968 241.782 10.471 242.584 9.66873C242.716 9.53669 242.839 9.39824 242.951 9.25429C243.533 8.50427 243.881 7.5617 243.881 6.53844ZM237.48 8.80501V4.13067H239.887C240.334 4.13067 240.675 4.16918 240.911 4.2462C241.147 4.3223 241.337 4.46351 241.482 4.67164C241.627 4.87886 241.698 5.13101 241.698 5.42808C241.698 5.68848 241.642 5.91128 241.533 6.09925C241.422 6.28721 241.27 6.43942 241.077 6.5577C240.953 6.63197 240.784 6.6934 240.57 6.74108C240.742 6.79884 240.867 6.85661 240.946 6.91437C240.999 6.95288 241.076 7.03448 241.177 7.15918C241.278 7.28571 241.346 7.38107 241.38 7.44984L242.079 8.80501H240.446L239.674 7.37557C239.576 7.19219 239.489 7.07116 239.412 7.01523C239.308 6.94371 239.19 6.90703 239.058 6.90703H238.93V8.80409H237.48V8.80501ZM238.931 6.02406H239.541C239.606 6.02406 239.733 6.00297 239.923 5.9608C240.019 5.94154 240.097 5.89203 240.158 5.81409C240.218 5.73616 240.249 5.64538 240.249 5.54361C240.249 5.39232 240.201 5.27679 240.105 5.19611C240.008 5.1145 239.83 5.07416 239.566 5.07416H238.931V6.02406ZM245.084 6.53753H245.087V6.53844C245.087 7.83952 244.645 9.03882 243.903 9.99331C243.757 10.1804 243.601 10.3573 243.437 10.5214C242.419 11.5392 241.012 12.1691 239.455 12.17V12.1728H239.454H239.451V12.17C237.38 12.1691 235.569 11.0496 234.592 9.38266C234.104 8.54828 233.823 7.57637 233.823 6.54028H233.82V6.53936V6.53661H233.823C233.823 4.97972 234.453 3.57228 235.471 2.55544C236.488 1.53769 237.896 0.90778 239.453 0.90778V0.905029H239.454H239.456V0.90778C241.012 0.908697 242.42 1.53769 243.437 2.55544C244.454 3.57228 245.084 4.98063 245.084 6.53753Z" fill="black"/>
</g>
<defs>
<clipPath id="clip0_26_4685">
<rect width="11.2668" height="11.2668" fill="white" transform="translate(233.82 0.905029)"/>
</clipPath>
</defs>
</svg>
