<svg width="49" height="18" viewBox="0 0 49 18" fill="none" xmlns="http://www.w3.org/2000/svg">
<path d="M7.42259 0.3241C8.50059 0.1441 9.61125 0.160099 10.6893 0.368099C11.2201 0.456099 11.7101 0.708099 12.1674 0.968099C12.686 1.2721 13.2168 1.5521 13.7558 1.8241C15.0462 2.6641 16.1038 3.8641 16.704 5.2721C17.047 6.0521 17.2512 6.8881 17.3369 7.7321C17.5411 8.8401 17.4268 9.9921 17.0552 11.0561C16.7612 12.1121 16.0793 12.9921 15.5362 13.9241C15.4586 14.0481 15.3524 14.1601 15.2544 14.2721C14.5521 15.1001 13.7191 15.8521 12.686 16.2681C12.7309 16.2081 12.7554 16.1441 12.7677 16.0721C12.6493 16.0961 12.5349 16.1281 12.4165 16.1641C12.4818 16.0801 12.5839 16.0321 12.6778 15.9721C13.0127 15.7561 13.3353 15.5241 13.6415 15.2681C13.6905 15.2241 13.764 15.2001 13.7844 15.1281C13.6619 15.1761 13.5843 15.2921 13.4741 15.3641C11.8571 16.5081 9.83175 17.1401 7.83092 16.9681C5.76884 16.8041 3.80475 15.8241 2.42458 14.3121C1.46908 13.2761 0.774918 12.0121 0.423751 10.6641C0.00725117 9.1161 0.0521678 7.4441 0.583001 5.9241C0.889251 5.0441 1.33842 4.2081 1.93867 3.4881C2.88192 2.3321 4.09058 1.3641 5.48708 0.780099C6.12817 0.616099 6.76109 0.424099 7.42259 0.320099M7.52467 0.796099C6.05875 1.0521 4.68267 1.7321 3.56383 2.6921C2.36333 3.7161 1.45683 5.0681 0.975001 6.5521C0.803501 7.3961 0.619751 8.2561 0.627918 9.1201C0.811668 10.4041 1.20775 11.6841 1.955 12.7681C2.46542 13.5161 3.14325 14.1521 3.91092 14.6441C3.95175 14.6681 3.99667 14.6881 4.0375 14.7041C3.58833 14.3961 3.2045 14.0081 2.8125 13.6361C1.5385 12.3721 0.823918 10.5961 0.828001 8.8201C0.819835 7.3001 1.30575 5.7841 2.1755 4.5241C2.54708 4.1481 2.79617 3.6801 3.1555 3.2841C4.33558 2.1801 5.83417 1.4241 7.41033 1.0361C9.12942 0.7881 10.922 1.0721 12.49 1.8041C13.9682 2.4921 15.2544 3.6001 16.0833 4.9881C16.7163 6.0361 17.0633 7.2481 17.0919 8.4641C17.1123 8.0201 17.1532 7.5601 17.0225 7.1241C16.8592 6.4641 16.7081 5.7881 16.3896 5.1841C15.822 4.2561 15.2422 3.3041 14.4092 2.5801C13.7763 2.0321 13.0372 1.6041 12.2491 1.3001C11.5672 1.1201 10.8771 0.960099 10.187 0.792099C9.30908 0.636099 8.40259 0.648099 7.52467 0.796099ZM7.72884 1.9761C6.39359 2.2961 5.16042 2.9721 4.111 3.8241C3.80883 4.1041 3.523 4.4081 3.35967 4.7881C3.32292 4.8721 3.3025 4.9681 3.24942 5.0481C3.26575 5.0481 3.29025 5.0441 3.30658 5.0401C3.5965 4.6441 3.90275 4.2601 4.27025 3.9321C5.30742 2.9881 6.6835 2.4361 8.08408 2.3241C9.66025 2.1841 11.2732 2.5681 12.6125 3.3841C13.0698 3.6401 13.4986 3.9441 13.8661 4.3201C14.5194 4.9801 14.989 5.8161 15.2585 6.6961C15.5443 7.5041 15.7771 8.3641 15.6668 9.2321C15.5198 10.1481 15.4994 11.1001 15.1156 11.9681C14.7889 12.4641 14.4868 12.9721 14.1519 13.4561C13.0535 14.6761 11.6448 15.6761 10.0237 16.0641C9.87258 16.0801 9.73375 16.1641 9.5745 16.1481C9.73375 16.1841 9.87667 16.0921 10.0318 16.0921C11.6039 15.8081 13.0698 15.0121 14.1601 13.8721C15.1809 12.8081 15.871 11.4241 16.0548 9.9681C16.0588 9.3681 16.0548 8.7721 16.0548 8.1721C16.0752 7.8321 15.9772 7.5041 15.8955 7.1721C15.4708 5.5961 14.45 4.2081 13.1311 3.2321C12.7432 2.9521 12.3471 2.6761 11.8979 2.4961C10.5953 1.9401 9.13758 1.8121 7.73292 1.9761M5.66267 6.2961C5.03383 7.0721 4.73575 8.0961 4.86642 9.0761C4.944 9.6641 5.17675 10.2201 5.49525 10.7201C5.45442 10.6921 5.37275 10.6241 5.33192 10.5961C5.23392 10.5601 5.23392 10.6721 5.28292 10.7201C5.52792 11.1881 5.93217 11.5601 6.36092 11.8761C6.7325 12.0761 7.08367 12.3161 7.48383 12.4721C7.9575 12.6361 8.45975 12.7481 8.962 12.7081C9.54183 12.6521 10.1339 12.5521 10.6607 12.2881C11.2078 12.0281 11.6652 11.6121 12.0694 11.1721C12.3553 10.8881 12.3838 10.4681 12.6003 10.1441C12.8412 9.7481 12.8861 9.2761 12.8902 8.8241C12.8983 8.3401 12.8003 7.8601 12.6574 7.4001C12.588 7.0801 12.4043 6.8001 12.2246 6.5321C11.6488 5.7361 10.8118 5.1041 9.83175 4.8761C8.31683 4.4961 6.62225 5.0961 5.66675 6.3001L5.66267 6.2961ZM42.6168 3.5281C43.9848 5.9241 45.3404 8.3321 46.7043 10.7321C47.2555 11.7121 47.8231 12.6801 48.3621 13.6681C47.4597 13.6641 46.5613 13.6761 45.663 13.6641C44.6585 11.8641 43.6254 10.0801 42.6209 8.2801C41.8655 9.5401 41.1468 10.8201 40.4118 12.0841C40.1097 12.6081 39.7993 13.1281 39.5094 13.6601C38.6233 13.6761 37.7332 13.6641 36.8471 13.6681C37.4024 12.6881 37.9659 11.7081 38.5212 10.7281C39.8851 8.3281 41.2571 5.9281 42.6209 3.5281H42.6168ZM31.9512 3.6041C32.7148 3.5881 33.4783 3.5841 34.2419 3.6041C34.2337 5.6721 34.2337 7.7401 34.2337 9.8081C34.2256 10.3121 34.2338 10.8121 34.2297 11.3161C35.2178 11.3201 36.2101 11.3161 37.1982 11.3201C36.7532 12.1001 36.2795 12.8761 35.8344 13.6601C34.54 13.6681 33.2415 13.6641 31.9389 13.6601C31.943 12.0641 31.943 10.4641 31.9512 8.8721C31.9471 7.1121 31.9593 5.3561 31.9512 3.6041ZM21.7428 5.8921C22.6493 4.4921 24.3031 3.5921 26.0058 3.5921C27.6759 3.5641 29.3215 4.3961 30.2729 5.7401C30.9222 6.6441 31.2488 7.7641 31.1917 8.8681C31.1263 10.4881 30.1912 12.0361 28.7825 12.8881C27.7004 13.5641 26.3488 13.8081 25.0871 13.5681C23.4538 13.2721 22.0164 12.1481 21.3549 10.6601C20.6567 9.1401 20.8037 7.2801 21.7428 5.8921ZM25.4668 6.0001C24.7114 6.1601 24.0336 6.6561 23.662 7.3201C23.3149 7.9201 23.2251 8.6561 23.4129 9.3201C23.5967 10.0041 24.0703 10.6041 24.6951 10.9561C25.3198 11.3041 26.0834 11.4001 26.7735 11.2161C27.4718 11.0321 28.0842 10.5681 28.4436 9.9521C28.7947 9.3481 28.8928 8.6041 28.7049 7.9281C28.5171 7.2401 28.0312 6.6281 27.3901 6.2801C26.8143 5.9641 26.1202 5.8721 25.475 6.0041L25.4668 6.0001Z" fill="#231F1F"/>
<path d="M7.42259 0.3241C8.50059 0.1441 9.61125 0.160099 10.6893 0.368099C11.2201 0.456099 11.7101 0.708099 12.1674 0.968099C12.686 1.2721 13.2168 1.5521 13.7558 1.8241C15.0462 2.6641 16.1038 3.8641 16.704 5.2721C17.047 6.0521 17.2512 6.8881 17.3369 7.7321C17.5411 8.8401 17.4268 9.9921 17.0552 11.0561C16.7612 12.1121 16.0793 12.9921 15.5362 13.9241C15.4586 14.0481 15.3524 14.1601 15.2544 14.2721C14.5521 15.1001 13.7191 15.8521 12.686 16.2681C12.7309 16.2081 12.7554 16.1441 12.7677 16.0721C12.6493 16.0961 12.5349 16.1281 12.4165 16.1641C12.4818 16.0801 12.5839 16.0321 12.6778 15.9721C13.0127 15.7561 13.3353 15.5241 13.6415 15.2681C13.6905 15.2241 13.764 15.2001 13.7844 15.1281C13.6619 15.1761 13.5843 15.2921 13.4741 15.3641C11.8571 16.5081 9.83175 17.1401 7.83092 16.9681C5.76884 16.8041 3.80475 15.8241 2.42458 14.3121C1.46908 13.2761 0.774918 12.0121 0.423751 10.6641C0.00725117 9.1161 0.0521678 7.4441 0.583001 5.9241C0.889251 5.0441 1.33842 4.2081 1.93867 3.4881C2.88192 2.3321 4.09058 1.3641 5.48708 0.780099C6.12817 0.616099 6.76109 0.424099 7.42259 0.320099M7.72884 1.9761C6.39359 2.2961 5.16042 2.9721 4.111 3.8241C3.80883 4.1041 3.523 4.4081 3.35967 4.7881C3.32292 4.8721 3.3025 4.9681 3.24942 5.0481C3.26575 5.0481 3.29025 5.0441 3.30658 5.0401C3.5965 4.6441 3.90275 4.2601 4.27025 3.9321C5.30742 2.9881 6.6835 2.4361 8.08408 2.3241C9.66025 2.1841 11.2732 2.5681 12.6125 3.3841C13.0698 3.6401 13.4986 3.9441 13.8661 4.3201C14.5194 4.9801 14.989 5.8161 15.2585 6.6961C15.5443 7.5041 15.7771 8.3641 15.6668 9.2321C15.5198 10.1481 15.4994 11.1001 15.1156 11.9681C14.7889 12.4641 14.4868 12.9721 14.1519 13.4561C13.0535 14.6761 11.6448 15.6761 10.0237 16.0641C9.87258 16.0801 9.73375 16.1641 9.5745 16.1481C9.73375 16.1841 9.87667 16.0921 10.0318 16.0921C11.6039 15.8081 13.0698 15.0121 14.1601 13.8721C15.1809 12.8081 15.871 11.4241 16.0548 9.9681C16.0588 9.3681 16.0548 8.7721 16.0548 8.1721C16.0752 7.8321 15.9772 7.5041 15.8955 7.1721C15.4708 5.5961 14.45 4.2081 13.1311 3.2321C12.7432 2.9521 12.3471 2.6761 11.8979 2.4961C10.5953 1.9401 9.13758 1.8121 7.73292 1.9761M7.52467 0.796099C6.05875 1.0521 4.68267 1.7321 3.56383 2.6921C2.36333 3.7161 1.45683 5.0681 0.975001 6.5521C0.803501 7.3961 0.619751 8.2561 0.627918 9.1201C0.811668 10.4041 1.20775 11.6841 1.955 12.7681C2.46542 13.5161 3.14325 14.1521 3.91092 14.6441C3.95175 14.6681 3.99667 14.6881 4.0375 14.7041C3.58833 14.3961 3.2045 14.0081 2.8125 13.6361C1.5385 12.3721 0.823918 10.5961 0.828001 8.8201C0.819835 7.3001 1.30575 5.7841 2.1755 4.5241C2.54708 4.1481 2.79617 3.6801 3.1555 3.2841C4.33558 2.1801 5.83417 1.4241 7.41033 1.0361C9.12942 0.7881 10.922 1.0721 12.49 1.8041C13.9682 2.4921 15.2544 3.6001 16.0833 4.9881C16.7163 6.0361 17.0633 7.2481 17.0919 8.4641C17.1123 8.0201 17.1532 7.5601 17.0225 7.1241C16.8592 6.4641 16.7081 5.7881 16.3896 5.1841C15.822 4.2561 15.2422 3.3041 14.4092 2.5801C13.7763 2.0321 13.0372 1.6041 12.2491 1.3001C11.5672 1.1201 10.8771 0.960099 10.187 0.792099C9.30908 0.636099 8.40259 0.648099 7.52467 0.796099ZM5.66267 6.2961C5.03383 7.0721 4.73575 8.0961 4.86642 9.0761C4.944 9.6641 5.17675 10.2201 5.49525 10.7201C5.45442 10.6921 5.37275 10.6241 5.33192 10.5961C5.23392 10.5601 5.23392 10.6721 5.28292 10.7201C5.52792 11.1881 5.93217 11.5601 6.36092 11.8761C6.7325 12.0761 7.08367 12.3161 7.48383 12.4721C7.9575 12.6361 8.45975 12.7481 8.962 12.7081C9.54183 12.6521 10.1339 12.5521 10.6607 12.2881C11.2078 12.0281 11.6652 11.6121 12.0694 11.1721C12.3553 10.8881 12.3838 10.4681 12.6003 10.1441C12.8412 9.7481 12.8861 9.2761 12.8902 8.8241C12.8983 8.3401 12.8003 7.8601 12.6574 7.4001C12.588 7.0801 12.4043 6.8001 12.2246 6.5321C11.6488 5.7361 10.8118 5.1041 9.83175 4.8761C8.31683 4.4961 6.62225 5.0961 5.66675 6.3001L5.66267 6.2961ZM42.6168 3.5281C43.9848 5.9241 45.3404 8.3321 46.7042 10.7321C47.2555 11.7121 47.8231 12.6801 48.3621 13.6681C47.4597 13.6641 46.5613 13.6761 45.663 13.6641C44.6585 11.8641 43.6254 10.0801 42.6209 8.2801C41.8655 9.5401 41.1468 10.8201 40.4118 12.0841C40.1097 12.6081 39.7993 13.1281 39.5094 13.6601C38.6233 13.6761 37.7332 13.6641 36.8471 13.6681C37.4024 12.6881 37.9659 11.7081 38.5212 10.7281C39.8851 8.3281 41.2571 5.9281 42.6209 3.5281H42.6168ZM31.9512 3.6041C32.7148 3.5881 33.4783 3.5841 34.2419 3.6041C34.2338 5.6721 34.2337 7.7401 34.2337 9.8081C34.2256 10.3121 34.2338 10.8121 34.2297 11.3161C35.2178 11.3201 36.2101 11.3161 37.1983 11.3201C36.7532 12.1001 36.2795 12.8761 35.8344 13.6601C34.54 13.6681 33.2415 13.6641 31.9389 13.6601C31.943 12.0641 31.943 10.4641 31.9512 8.8721C31.9471 7.1121 31.9593 5.3561 31.9512 3.6041ZM21.7428 5.8921C22.6493 4.4921 24.3031 3.5921 26.0058 3.5921C27.6759 3.5641 29.3215 4.3961 30.2729 5.7401C30.9222 6.6441 31.2488 7.7641 31.1917 8.8681C31.1263 10.4881 30.1912 12.0361 28.7825 12.8881C27.7004 13.5641 26.3488 13.8081 25.0871 13.5681C23.4538 13.2721 22.0164 12.1481 21.3549 10.6601C20.6567 9.1401 20.8037 7.2801 21.7428 5.8921ZM25.4668 6.0001C24.7114 6.1601 24.0336 6.6561 23.662 7.3201C23.3149 7.9201 23.2251 8.6561 23.4129 9.3201C23.5967 10.0041 24.0703 10.6041 24.6951 10.9561C25.3198 11.3041 26.0834 11.4001 26.7735 11.2161C27.4718 11.0321 28.0842 10.5681 28.4436 9.9521C28.7947 9.3481 28.8928 8.6041 28.7049 7.9281C28.5171 7.2401 28.0312 6.6281 27.3901 6.2801C26.8143 5.9641 26.1202 5.8721 25.475 6.0041L25.4668 6.0001Z" stroke="#231F1F" stroke-width="0.2"/>
<path d="M5.6545 6.3001C6.61 5.0961 8.30458 4.4961 9.8195 4.8761C10.7995 5.1001 11.6366 5.7361 12.2123 6.5321C12.392 6.8001 12.5758 7.0801 12.6452 7.4001C12.7881 7.8601 12.8902 8.3401 12.8779 8.8241C12.8738 9.2721 12.8289 9.7481 12.588 10.1441C12.3757 10.4681 12.343 10.8881 12.0572 11.1721C11.6529 11.6121 11.1956 12.0281 10.6484 12.2881C10.1217 12.5521 9.52958 12.6521 8.94975 12.7081C8.44342 12.7481 7.94525 12.6401 7.47158 12.4721C7.0755 12.3161 6.72025 12.0761 6.34867 11.8761C5.91992 11.5601 5.51567 11.1921 5.27067 10.7201C5.22575 10.6721 5.22575 10.5601 5.31967 10.5961C5.3605 10.6241 5.44217 10.6921 5.483 10.7201C5.16858 10.2201 4.93175 9.6641 4.85417 9.0761C4.7235 8.0961 5.02158 7.0721 5.65042 6.2961M7.51242 5.2761C7.46342 5.2961 7.40625 5.3201 7.36542 5.3601C8.48425 4.8921 9.83175 5.0121 10.8403 5.6681C11.1058 5.9081 11.4528 6.0641 11.6407 6.3721C12.0123 6.8721 12.3389 7.4161 12.4982 8.0161C12.7473 9.4241 12.1143 10.9401 10.9302 11.7761C10.6158 12.0201 10.236 12.1721 9.86442 12.3161C9.59083 12.4161 9.28458 12.4001 9.00283 12.4841C9.18658 12.4881 9.37442 12.5721 9.55817 12.5201C9.88483 12.4361 10.2197 12.3601 10.5259 12.2041C11.0731 11.8801 11.6284 11.5241 11.9837 10.9881C12.0408 10.8921 12.1307 10.8081 12.1429 10.6921L12.1674 10.6481C12.1674 10.6481 12.1838 10.6281 12.1878 10.6161C12.4002 10.3201 12.4328 9.9521 12.5227 9.6081C12.735 8.8601 12.6452 8.0441 12.3348 7.3321C11.9306 6.4281 11.167 5.6921 10.2483 5.2921C9.74192 5.0641 9.1825 5.0041 8.63533 4.9761C8.24333 4.9961 7.87175 5.1241 7.50833 5.2641M10.285 6.0681C10.579 6.3241 10.8567 6.5921 11.0976 6.8921C11.5508 7.4561 11.8979 8.1681 11.8122 8.9001C11.7673 9.4481 11.4488 9.9241 11.1548 10.3761C10.8893 10.7641 10.5953 11.1521 10.2115 11.4441C10.0237 11.5921 9.77867 11.6521 9.55817 11.7601C9.354 11.8561 9.16617 11.9801 8.94567 12.0361C9.26825 12.1001 9.58267 11.9801 9.88075 11.8801C10.677 11.5761 11.3303 10.9721 11.7346 10.2401C12.0408 9.6081 12.1062 8.8921 12.0204 8.2041C11.8612 7.5841 11.5304 7.0201 11.1058 6.5361C10.9343 6.3681 10.7383 6.1881 10.4851 6.1681C10.4157 6.1441 10.3585 6.1001 10.2932 6.0681M5.33192 9.5521C5.68308 10.9361 7.01017 12.0481 8.48017 12.0801C8.1045 11.9601 7.74108 11.8041 7.38175 11.6401C7.03058 11.4041 6.63042 11.2241 6.32417 10.9201C5.85867 10.4761 5.44217 9.9401 5.29517 9.3121C5.27475 9.3921 5.30333 9.4721 5.33192 9.5521Z" fill="#D7DF26"/>
<path d="M5.6545 6.3001C6.61 5.0961 8.30458 4.4961 9.8195 4.8761C10.7995 5.1001 11.6366 5.7361 12.2123 6.5321C12.392 6.8001 12.5758 7.0801 12.6452 7.4001C12.7881 7.8601 12.8902 8.3401 12.8779 8.8241C12.8738 9.2721 12.8289 9.7481 12.588 10.1441C12.3757 10.4681 12.343 10.8881 12.0572 11.1721C11.6529 11.6121 11.1956 12.0281 10.6484 12.2881C10.1217 12.5521 9.52958 12.6521 8.94975 12.7081C8.44342 12.7481 7.94525 12.6401 7.47158 12.4721C7.0755 12.3161 6.72025 12.0761 6.34867 11.8761C5.91992 11.5601 5.51567 11.1921 5.27067 10.7201C5.22575 10.6721 5.22575 10.5601 5.31967 10.5961C5.3605 10.6241 5.44217 10.6921 5.483 10.7201C5.16858 10.2201 4.93175 9.6641 4.85417 9.0761C4.7235 8.0961 5.02158 7.0721 5.65042 6.2961M7.51242 5.2761C7.46342 5.2961 7.40625 5.3201 7.36542 5.3601C8.48425 4.8921 9.83175 5.0121 10.8403 5.6681C11.1058 5.9081 11.4528 6.0641 11.6407 6.3721C12.0123 6.8721 12.3389 7.4161 12.4982 8.0161C12.7473 9.4241 12.1143 10.9401 10.9302 11.7761C10.6158 12.0201 10.236 12.1721 9.86442 12.3161C9.59083 12.4161 9.28458 12.4001 9.00283 12.4841C9.18658 12.4881 9.37442 12.5721 9.55817 12.5201C9.88483 12.4361 10.2197 12.3601 10.5259 12.2041C11.0731 11.8801 11.6284 11.5241 11.9837 10.9881C12.0408 10.8921 12.1307 10.8081 12.1429 10.6921L12.1674 10.6481C12.1674 10.6481 12.1838 10.6281 12.1878 10.6161C12.4002 10.3201 12.4328 9.9521 12.5227 9.6081C12.735 8.8601 12.6452 8.0441 12.3348 7.3321C11.9306 6.4281 11.167 5.6921 10.2483 5.2921C9.74192 5.0641 9.1825 5.0041 8.63533 4.9761C8.24333 4.9961 7.87175 5.1241 7.50833 5.2641M10.285 6.0681C10.579 6.3241 10.8567 6.5921 11.0976 6.8921C11.5508 7.4561 11.8979 8.1681 11.8122 8.9001C11.7673 9.4481 11.4488 9.9241 11.1548 10.3761C10.8893 10.7641 10.5953 11.1521 10.2115 11.4441C10.0237 11.5921 9.77867 11.6521 9.55817 11.7601C9.354 11.8561 9.16617 11.9801 8.94567 12.0361C9.26825 12.1001 9.58267 11.9801 9.88075 11.8801C10.677 11.5761 11.3303 10.9721 11.7346 10.2401C12.0408 9.6081 12.1062 8.8921 12.0204 8.2041C11.8612 7.5841 11.5304 7.0201 11.1058 6.5361C10.9343 6.3681 10.7383 6.1881 10.4851 6.1681C10.4157 6.1441 10.3585 6.1001 10.2932 6.0681M5.33192 9.5521C5.68308 10.9361 7.01017 12.0481 8.48017 12.0801C8.1045 11.9601 7.74108 11.8041 7.38175 11.6401C7.03058 11.4041 6.63042 11.2241 6.32417 10.9201C5.85867 10.4761 5.44217 9.9401 5.29517 9.3121C5.27475 9.3921 5.30333 9.4721 5.33192 9.5521Z" stroke="#D7DF26" stroke-width="0.2"/>
<path d="M9.87259 12.3241C10.7995 12.0841 11.6325 11.5001 12.1552 10.7041C12.147 10.8201 12.0531 10.9041 11.9959 11.0001C11.6407 11.5361 11.0813 11.8881 10.5382 12.2161C10.2319 12.3721 9.89709 12.4481 9.57042 12.5321C9.38667 12.5881 9.19884 12.5041 9.01509 12.4961C9.29684 12.4121 9.60309 12.4241 9.87667 12.3241H9.87259Z" fill="#231F1F" stroke="#231F1F" stroke-width="0.2"/>
</svg>
