<svg width="65" height="23" viewBox="0 0 65 23" fill="none" xmlns="http://www.w3.org/2000/svg">
<path d="M53.5022 22.7778C59.5885 22.7778 64.5407 17.7929 64.5407 11.6667C64.5407 5.5368 59.5885 0.555542 53.5022 0.555542C47.4146 0.555542 42.4636 5.5368 42.4636 11.6667C42.4636 17.7929 47.4146 22.7778 53.5022 22.7778ZM53.5022 7.70462C55.6712 7.70462 57.4376 9.48191 57.4376 11.6654C57.4376 13.849 55.67 15.6239 53.501 15.6239C51.3307 15.6239 49.5667 13.849 49.5667 11.6642C49.5667 9.47828 51.3319 7.7022 53.501 7.7022L53.5022 7.70462ZM11.8555 22.7778C17.9418 22.7778 22.894 17.7929 22.894 11.6667C22.894 5.5368 17.9418 0.555542 11.8555 0.555542C5.77035 0.555542 0.816895 5.5368 0.816895 11.6667C0.816895 17.7929 5.77035 22.7778 11.8555 22.7778ZM11.8555 7.70462C14.0257 7.70462 15.7909 9.48191 15.7909 11.6654C15.7909 13.849 14.0257 15.6239 11.8555 15.6239C9.68644 15.6239 7.92244 13.849 7.92244 11.6642C7.92244 9.47828 9.68765 7.7022 11.8555 7.7022V7.70462ZM32.6728 7.45434L29.2838 0.700627H21.3489L28.7603 15.4751V22.4308H36.5864V15.4751L43.9979 0.700627H36.0593L32.674 7.45434H32.6728Z" fill="#EE2E24"/>
</svg>
