<svg width="72" height="23" viewBox="0 0 72 23" fill="none" xmlns="http://www.w3.org/2000/svg">
<g clip-path="url(#clip0_26_3562)">
<path d="M70.8981 7.27954C70.255 5.44053 68.5019 4.11996 66.4432 4.11996H66.4001C65.0617 4.11996 63.8553 4.67693 62.9968 5.5712C62.1368 4.67693 60.9304 4.11996 59.5934 4.11996H59.5503C58.3737 4.11996 57.2983 4.55079 56.4724 5.26366V4.90113C56.444 4.54002 56.147 4.25629 55.7802 4.25629H52.622C52.2357 4.25629 51.9239 4.56837 51.9239 4.95584V22.1061C51.9239 22.4938 52.236 22.8056 52.622 22.8056H55.7802C56.1322 22.8056 56.4219 22.5426 56.4681 22.2024L56.4667 9.89065C56.4667 9.84756 56.4681 9.8076 56.4727 9.76735C56.5231 9.21775 56.9256 8.76621 57.5617 8.70953H58.1439C58.4097 8.73333 58.6342 8.82687 58.8108 8.96803C59.0858 9.18628 59.2385 9.52217 59.2385 9.89065L59.2504 22.1418C59.2504 22.5295 59.5639 22.843 59.9486 22.843H63.1067C63.4795 22.843 63.7828 22.546 63.8006 22.1761L63.7992 9.87449C63.7978 9.4703 63.9849 9.10493 64.3131 8.8881C64.4749 8.78407 64.6697 8.71434 64.8939 8.69337H65.4761C66.1595 8.75289 66.5724 9.27132 66.571 9.87449L66.5829 22.1092C66.5829 22.4969 66.8964 22.8087 67.2811 22.8087H70.4392C70.8239 22.8087 71.1373 22.4967 71.1373 22.1092V8.95074C71.1373 8.05335 71.0364 7.67154 70.8981 7.27954ZM49.5177 4.30108H47.7113V1.3657C47.7113 1.01366 47.4262 0.728516 47.0741 0.728516C47.0325 0.728516 46.9925 0.734468 46.9537 0.741838C44.9511 1.29144 45.3522 4.06497 41.6966 4.30108H41.3414C41.2879 4.30108 41.2374 4.30845 41.1884 4.31894H41.1855L41.1884 4.32035C40.8763 4.39008 40.6416 4.66644 40.6416 4.99921V8.15765C40.6416 8.54229 40.9551 8.85578 41.3411 8.85578H43.247L43.2442 22.2478C43.2442 22.6296 43.5532 22.9386 43.935 22.9386H47.0574C47.4378 22.9386 47.7468 22.6296 47.7468 22.2478L47.7482 8.85578H49.5175C49.9021 8.85578 50.2156 8.54229 50.2156 8.15765V4.99949C50.2161 4.61457 49.9027 4.30108 49.5177 4.30108Z" fill="#54C1F0"/>
<path d="M38.1546 4.30086H34.9965C34.6118 4.30086 34.2998 4.61435 34.2998 4.99899V11.5293C34.2924 11.9335 33.9656 12.2572 33.56 12.2572H32.238C31.8281 12.2572 31.4968 11.9276 31.4968 11.5174L31.4849 4.99899C31.4849 4.61435 31.1714 4.30086 30.7867 4.30086H27.6283C27.2419 4.30086 26.9302 4.61435 26.9302 4.99899V12.1563C26.9302 14.8748 28.8686 16.8133 31.5886 16.8133C31.5886 16.8133 33.6297 16.8133 33.6921 16.8252C34.0605 16.8669 34.3471 17.1759 34.3471 17.5562C34.3471 17.9321 34.0662 18.2396 33.7023 18.2856C33.6844 18.2884 33.668 18.2929 33.6487 18.296L29.0302 18.3125C28.6439 18.3125 28.3321 18.626 28.3321 19.0106V22.1674C28.3321 22.5537 28.6442 22.8655 29.0302 22.8655H34.1938C36.9151 22.8655 38.8522 20.9284 38.8522 18.2085V4.99927C38.8528 4.61435 38.541 4.30086 38.1546 4.30086ZM7.86326 4.30029H0.960198C0.581513 4.30029 0.275391 4.60755 0.275391 4.9851V8.07949C0.275391 8.08544 0.276808 8.09139 0.276808 8.09735C0.276808 8.11209 0.275391 8.12711 0.275391 8.14043V22.1455C0.275391 22.5259 0.560538 22.8363 0.914279 22.8451H4.13197C4.5166 22.8451 4.8301 22.533 4.8301 22.1469L4.842 17.3473H7.86354C10.3919 17.3473 12.1538 15.5931 12.1538 13.0543V8.59933C12.1535 6.0605 10.3916 4.30029 7.86326 4.30029ZM7.58548 12.0367C7.58548 12.4451 7.25413 12.7779 6.84569 12.7779L4.84172 12.7793V8.87399H6.84569C7.25413 8.87399 7.58548 9.20364 7.58548 9.61379V12.0367ZM20.1872 4.31815H15.8052C15.4174 4.31815 15.1039 4.61237 15.1039 4.9732V6.20165C15.1039 6.20902 15.1053 6.21809 15.1053 6.22546C15.1053 6.23425 15.1039 6.24332 15.1039 6.25211V7.93521C15.1039 8.31702 15.4367 8.62881 15.8465 8.62881H20.0194C20.3491 8.68068 20.6107 8.92133 20.6478 9.29718V9.70421C20.6107 10.0622 20.3522 10.3235 20.0373 10.3533H17.971C15.2227 10.3533 13.2649 12.179 13.2649 14.743V18.4151C13.2649 20.9641 14.948 22.7779 17.6767 22.7779H23.4035C24.4316 22.7779 25.2649 21.9996 25.2649 21.0412V9.05851C25.2649 6.1529 23.7675 4.31815 20.1872 4.31815ZM20.6895 17.9953C20.6895 18.0356 20.6836 18.0741 20.6776 18.1112C20.6702 18.1461 20.6602 18.1804 20.6478 18.2138C20.5498 18.4902 20.2734 18.6906 19.9452 18.6906H18.6305C18.2207 18.6906 17.8862 18.3785 17.8862 17.9953V17.3995C17.8862 17.3921 17.8848 17.3848 17.8848 17.3771L17.8862 15.7921V15.296L17.8876 15.2915C17.8891 14.9097 18.2204 14.6007 18.6303 14.6007H19.9449C20.3565 14.6007 20.6892 14.9111 20.6892 15.296V17.9953H20.6895Z" fill="#233266"/>
</g>
<defs>
<clipPath id="clip0_26_3562">
<rect width="70.8617" height="22.2222" fill="white" transform="translate(0.275391 0.722229)"/>
</clipPath>
</defs>
</svg>
