<svg width="105" height="27" viewBox="0 0 105 27" fill="none" xmlns="http://www.w3.org/2000/svg">
<g clip-path="url(#clip0_26_3647)">
<path d="M24.9663 12.5776C24.9663 9.30077 20.1891 3.8635 16.1131 1.73209C15.032 1.16662 14.0093 0.83313 13.1328 0.83313C12.0809 0.83313 10.7953 1.31161 9.46588 2.10907C8.18027 2.87754 6.85083 3.9505 5.65287 5.13945C4.4403 6.3429 3.35922 7.67684 2.57032 8.96729C1.78142 10.2577 1.29932 11.5192 1.29932 12.5631C1.29932 16.71 8.93995 24.3076 13.1328 24.3076C14.1847 24.3076 15.4703 23.8292 16.7851 23.0317C18.0707 22.2632 19.4148 21.1903 20.6127 20.0013C21.8107 18.8124 22.9064 17.4639 23.6807 16.188C24.4842 14.883 24.9663 13.6216 24.9663 12.5776Z" fill="#494949"/>
<path d="M17.0185 8.72119C15.8059 7.44525 14.5057 6.2418 13.147 5.12534C12.0075 4.19738 10.8388 3.37092 9.67004 2.71844C8.45748 3.44341 7.20108 4.45837 6.07617 5.57482L13.1324 12.578L17.0185 8.72119Z" fill="#40C9FF"/>
<path d="M15.9514 2.35567C14.9288 1.8192 13.9646 1.51471 13.1319 1.51471C12.1384 1.51471 10.9259 1.97869 9.68408 2.71816C10.8528 3.37063 12.0216 4.21159 13.1611 5.12506L15.9514 2.35567Z" fill="#9661BA"/>
<path d="M16.814 16.2319L13.1324 12.5781L6.07618 5.57489C4.93666 6.70584 3.91402 7.96729 3.16895 9.18524C5.53564 13.2306 10.0207 17.2904 13.1617 19.8423L16.814 16.2319Z" fill="#FFA233"/>
<path d="M16.5799 22.4373C16.3024 22.2343 14.9437 21.2773 13.1614 19.8274C10.0204 17.29 5.53536 13.2301 3.16866 9.18481C2.4382 10.4028 1.9707 11.5917 1.9707 12.5777C1.9707 16.4925 9.18767 23.6407 13.1175 23.6407C14.1402 23.6407 15.3382 23.1912 16.5799 22.4373Z" fill="#FF5A7E"/>
<path d="M24.2938 12.5777C24.2938 9.48935 19.7795 4.37107 15.9519 2.35565L13.1615 5.12503C14.5202 6.24149 15.8058 7.44494 17.0184 8.72088L13.1323 12.5777L16.8139 16.2316L13.1762 19.8419C14.9585 21.2919 16.3025 22.2488 16.5947 22.4518C17.8073 21.7268 19.0637 20.7119 20.2032 19.5954C21.3427 18.4645 22.3654 17.203 23.1104 15.9851C23.8409 14.7526 24.2938 13.5637 24.2938 12.5777Z" fill="#FFD91D"/>
<path d="M30.6766 17.4199C30.5508 17.3672 30.4609 17.2795 30.3711 17.1917C30.1914 16.946 30.2093 16.6301 30.425 16.4195C30.5328 16.2966 30.6945 16.244 30.8563 16.244C30.9461 16.244 31.054 16.2615 31.1438 16.2966C32.0603 16.6827 33.0487 16.8934 34.0551 16.8758C35.7803 16.8758 36.6429 16.3142 36.6429 15.2085C36.6429 14.9277 36.535 14.6644 36.3014 14.4889C36.0678 14.2783 35.7803 14.1379 35.4748 14.0326C35.1513 13.9273 34.684 13.7868 34.091 13.6289C33.4261 13.4709 32.7791 13.2779 32.1502 13.0497C31.665 12.8742 31.2337 12.5758 30.8742 12.2073C30.5148 11.8387 30.3351 11.3297 30.3351 10.7154C30.3351 10.1889 30.4789 9.66239 30.7844 9.22362C31.1079 8.74974 31.5571 8.38117 32.0963 8.17056C32.6713 7.9073 33.3722 7.76689 34.1629 7.76689C35.1693 7.74934 36.1577 7.9073 37.1101 8.24077C37.3617 8.31097 37.5414 8.55668 37.5234 8.81995C37.5234 8.9779 37.4695 9.11831 37.3617 9.24117C37.2539 9.36402 37.0921 9.43423 36.9304 9.43423C36.8405 9.43423 36.7687 9.41668 36.6968 9.38157C35.924 9.11831 35.1333 8.99545 34.3246 8.99545C33.5519 8.99545 32.9229 9.13586 32.4197 9.43423C31.9345 9.71504 31.6829 10.1187 31.6829 10.6452C31.665 10.9612 31.7908 11.2771 32.0244 11.4877C32.276 11.7158 32.5635 11.8914 32.9049 11.9967C33.3722 12.1546 33.8394 12.2775 34.3246 12.3828C34.9716 12.5232 35.6006 12.7162 36.2116 12.9269C36.6788 13.1024 37.1101 13.4007 37.4336 13.7868C37.775 14.173 37.9368 14.6819 37.9368 15.3489C37.9368 15.8754 37.775 16.3844 37.4695 16.8056C37.1281 17.2444 36.6608 17.5954 36.1397 17.806C35.5107 18.0517 34.8278 18.1746 34.1629 18.157C32.9768 18.1219 31.7728 17.8762 30.6766 17.4199ZM39.8417 17.8587C39.7159 17.7358 39.644 17.5778 39.644 17.4023V8.03015C39.644 7.85465 39.7159 7.67914 39.8417 7.55628C39.9675 7.43342 40.1292 7.36322 40.3089 7.36322C40.6863 7.36322 40.9918 7.66159 40.9918 8.03015V11.786C41.3332 11.3999 41.7466 11.0665 42.1958 10.8207C42.6631 10.575 43.1842 10.4522 43.7234 10.4697C44.2265 10.4522 44.7117 10.5926 45.143 10.8383C45.5384 11.084 45.8619 11.435 46.0596 11.8562C46.2752 12.295 46.383 12.7864 46.383 13.2779V17.3672C46.383 17.5427 46.3111 17.7007 46.1853 17.8236C46.0596 17.9464 45.8798 18.0166 45.7001 18.0166C45.3407 18.0166 45.0352 17.7358 45.0352 17.3848V13.4183C45.0352 12.2424 44.4961 11.6632 43.4178 11.6632C42.9506 11.6632 42.4834 11.786 42.106 12.0493C41.6927 12.3301 41.3153 12.6636 41.0098 13.0497V17.3672C41.0098 17.5427 40.9379 17.7007 40.8121 17.8236C40.6863 17.9464 40.5066 18.0166 40.3269 18.0166C40.1472 18.0517 39.9675 17.9815 39.8417 17.8587ZM52.3314 16.6476C52.7267 16.4546 53.0682 16.1913 53.3557 15.8754V14.6644H51.7383C50.2467 14.6644 49.5099 15.0505 49.5099 15.8052C49.492 16.1211 49.6357 16.4195 49.8694 16.6301C50.103 16.8407 50.5163 16.946 51.0734 16.946C51.5047 16.9636 51.936 16.8583 52.3314 16.6476ZM49.3662 17.8587C49.0068 17.7007 48.7013 17.4374 48.4856 17.104C48.27 16.7705 48.1621 16.3668 48.1621 15.9632C48.1442 15.2962 48.4676 14.6468 49.0247 14.2607C49.5998 13.8395 50.4444 13.6289 51.5586 13.6289H53.3377V13.506C53.3377 12.8742 53.176 12.4179 52.8525 12.1371C52.529 11.8562 52.0258 11.7158 51.3609 11.7158C51.0195 11.7158 50.696 11.7334 50.3546 11.8036C50.0311 11.8738 49.7076 11.9616 49.3841 12.0669C49.3302 12.0844 49.2584 12.0844 49.1865 12.102C48.881 12.102 48.6473 11.8563 48.6473 11.5579C48.6473 11.3122 48.7911 11.084 49.0427 11.0138C49.8514 10.6803 50.714 10.4873 51.5946 10.4873C52.2774 10.4873 52.8525 10.6277 53.3197 10.8909C53.769 11.1367 54.1284 11.4877 54.362 11.944C54.5777 12.3828 54.6855 12.8567 54.6855 13.3305V17.4199C54.6855 17.5954 54.6136 17.7534 54.4878 17.8762C54.3621 17.9991 54.1823 18.0693 54.0026 18.0693C53.6432 18.0693 53.3377 17.7885 53.3377 17.4374V17.0513C52.6009 17.7885 51.6664 18.1395 50.5522 18.1395C50.1569 18.1219 49.7436 18.0342 49.3662 17.8587ZM57.1475 17.8587C57.0217 17.7358 56.9498 17.5778 56.9498 17.4023V11.2069C56.9498 11.0314 57.0217 10.8558 57.1475 10.733C57.2733 10.6101 57.4351 10.5399 57.6148 10.5399C57.9921 10.5399 58.2976 10.8383 58.2976 11.2069V11.8211C58.9805 10.9261 59.7533 10.4697 60.6159 10.4697H60.6878C60.8675 10.4697 61.0292 10.5399 61.155 10.6628C61.2808 10.7856 61.3347 10.9612 61.3347 11.1191C61.3347 11.2946 61.2628 11.4526 61.137 11.5754C61.0112 11.6983 60.8315 11.7509 60.6518 11.7509H60.5799C60.1307 11.7509 59.6814 11.8738 59.286 12.0844C58.8907 12.3126 58.5492 12.6285 58.2976 13.0146V17.4023C58.2976 17.5778 58.2258 17.7358 58.1 17.8587C57.9742 17.9815 57.7945 18.0517 57.6148 18.0517C57.4351 18.0517 57.2553 17.9815 57.1475 17.8587ZM67.6425 13.6815C67.6245 13.2603 67.4987 12.8567 67.2651 12.5056C67.0674 12.2073 66.7799 11.9616 66.4384 11.8036C65.8094 11.5052 65.0726 11.5052 64.4616 11.8036C64.1202 11.9616 63.8506 12.2073 63.6529 12.5056C63.4193 12.8567 63.2935 13.2779 63.2935 13.6815H67.6425ZM62.9341 17.1215C62.2512 16.4546 61.9277 15.5244 61.9277 14.2958C61.9277 13.6464 62.0535 12.9971 62.3231 12.4003C62.5747 11.8387 62.9701 11.3473 63.4912 11.0138C64.0303 10.6628 64.6773 10.4873 65.45 10.4873C66.1688 10.4873 66.8158 10.6628 67.337 10.9787C67.8581 11.2946 68.2714 11.7509 68.541 12.295C68.8285 12.8566 68.9543 13.4709 68.9543 14.1028C68.9723 14.4538 68.6848 14.7346 68.3253 14.7521H63.2576C63.3295 15.4191 63.599 15.9456 64.0303 16.3317C64.4616 16.7003 65.0726 16.8934 65.8454 16.8934C66.2048 16.8934 66.5822 16.8583 66.9236 16.7705C67.2291 16.7003 67.5346 16.5774 67.8401 16.437C67.93 16.4019 68.0198 16.3844 68.1097 16.3844C68.2714 16.3844 68.4152 16.437 68.523 16.5423C68.6488 16.6476 68.7027 16.7881 68.7027 16.946C68.7027 17.1566 68.5769 17.3321 68.3074 17.4725C67.5346 17.9289 66.6361 18.1395 65.7196 18.1044C64.5515 18.1219 63.617 17.7885 62.9341 17.1215ZM72.836 17.4901C72.0633 17.0689 71.4163 16.4546 70.985 15.6823C70.5357 14.8926 70.3201 13.9799 70.3201 12.9269C70.3201 11.8738 70.5357 10.9612 70.985 10.1714C71.4163 9.41668 72.0453 8.78484 72.836 8.36362C73.6447 7.9424 74.5612 7.71424 75.4957 7.73179C76.1067 7.71424 76.6997 7.80199 77.2928 7.95995C77.8319 8.11791 78.371 8.34607 78.8742 8.62688C79.0898 8.73219 79.2156 8.9428 79.1977 9.17096C79.1977 9.46933 78.9461 9.71504 78.6226 9.71504H78.6046C78.5148 9.71504 78.4249 9.69749 78.3351 9.66239C77.9217 9.45178 77.5084 9.27627 77.0591 9.15341C76.5919 9.03056 76.1067 8.9779 75.6215 8.9779C74.7769 8.9779 74.058 9.15341 73.465 9.48688C72.8899 9.8028 72.4227 10.2942 72.1172 10.8909C71.5241 12.1722 71.5241 13.6289 72.1172 14.9101C72.4047 15.4893 72.872 15.9807 73.465 16.3142C74.058 16.6476 74.7769 16.8232 75.6215 16.8232C76.1067 16.8232 76.5919 16.7705 77.0591 16.6476C77.4904 16.5248 77.9217 16.3493 78.3351 16.1387C78.4249 16.1036 78.5148 16.086 78.6046 16.086C78.7664 16.086 78.9101 16.1387 79.0359 16.244C79.1438 16.3493 79.1977 16.4897 79.1977 16.6301C79.2156 16.8583 79.0898 17.0689 78.8742 17.1742C78.371 17.455 77.8499 17.6831 77.2928 17.8411C76.6997 17.9991 76.1067 18.0693 75.4957 18.0693C74.5612 18.1219 73.6447 17.9113 72.836 17.4901ZM81.1205 17.8587C80.9947 17.7358 80.9229 17.5778 80.9408 17.4023V8.03015C80.9408 7.85465 81.0127 7.67914 81.1385 7.55628C81.2643 7.43342 81.426 7.36322 81.6058 7.36322C81.9831 7.36322 82.2886 7.66159 82.2886 8.03015V11.786C82.6301 11.3999 83.0434 11.0665 83.4927 10.8207C83.9599 10.575 84.4811 10.4522 85.0202 10.4697C85.5234 10.4522 86.0086 10.5926 86.4399 10.8383C86.8352 11.084 87.1587 11.4526 87.3564 11.8562C87.572 12.295 87.6799 12.7864 87.6799 13.2779V17.3672C87.6799 17.5427 87.608 17.7007 87.4822 17.8236C87.3564 17.9464 87.1767 18.0166 86.997 18.0166C86.6376 18.0166 86.3321 17.7358 86.3321 17.3848V13.4183C86.3321 12.2424 85.7929 11.6632 84.7147 11.6632C84.2475 11.6632 83.7802 11.786 83.4028 12.0493C82.9895 12.3301 82.6121 12.6636 82.3066 13.0673V17.3848C82.3066 17.5603 82.2347 17.7182 82.1089 17.8411C81.9831 17.964 81.8034 18.0342 81.6237 18.0342C81.4081 18.0517 81.2463 17.9815 81.1205 17.8587ZM93.5923 16.6476C93.9876 16.4546 94.3291 16.1913 94.6166 15.8754V14.6644H92.9992C91.5076 14.6644 90.7708 15.0505 90.7708 15.8052C90.7529 16.1211 90.8966 16.4195 91.1303 16.6301C91.3639 16.8407 91.7772 16.946 92.3343 16.946C92.7836 16.9636 93.2149 16.8583 93.5923 16.6476ZM90.645 17.8587C90.2856 17.7007 89.9801 17.4374 89.7645 17.104C89.5488 16.753 89.423 16.3668 89.441 15.9632C89.423 15.2962 89.7465 14.6468 90.3036 14.2607C90.8787 13.8395 91.7233 13.6289 92.8375 13.6289H94.6166V13.506C94.6166 12.8742 94.4549 12.4179 94.1314 12.1371C93.8079 11.8562 93.3047 11.7158 92.6398 11.7158C92.2984 11.7158 91.9749 11.7334 91.6334 11.8036C91.31 11.8738 90.9865 11.9616 90.663 12.0669C90.6091 12.0844 90.5372 12.0844 90.4653 12.102C90.1598 12.102 89.9262 11.8563 89.9262 11.5579C89.9262 11.3122 90.07 11.084 90.3216 11.0138C91.1303 10.6803 91.9929 10.4873 92.8734 10.4873C93.5563 10.4873 94.1314 10.6277 94.5986 10.8909C95.0479 11.1367 95.4073 11.4877 95.6409 11.944C95.8566 12.3828 95.9824 12.8567 95.9824 13.3305V17.4199C95.9824 17.5954 95.9105 17.7534 95.7847 17.8762C95.6589 17.9991 95.4792 18.0693 95.2995 18.0693C94.9401 18.0693 94.6346 17.7885 94.6346 17.4374V17.0513C93.8978 17.7885 92.9813 18.157 91.8491 18.1395C91.4358 18.1219 91.0224 18.0342 90.645 17.8587ZM102.218 17.3497C102.218 17.5778 102.11 17.7358 101.877 17.8587C101.499 18.0342 101.068 18.1219 100.655 18.1219C99.2171 18.1219 98.4983 17.4901 98.4983 16.2264V11.7509H97.6536C97.4919 11.7509 97.3482 11.6983 97.2403 11.593C97.1325 11.4877 97.0786 11.3473 97.0786 11.1893C97.0606 10.891 97.3122 10.6452 97.6177 10.6277H98.5163V8.03015C98.5163 7.67914 98.8038 7.38077 99.1812 7.38077C99.3609 7.38077 99.5406 7.45097 99.6664 7.57383C99.7922 7.69669 99.8641 7.85465 99.8641 8.03015V10.6277H101.535C101.859 10.6277 102.11 10.891 102.11 11.2069C102.11 11.3473 102.056 11.4877 101.949 11.593C101.841 11.6983 101.697 11.7685 101.535 11.7509H99.8641V16.1036C99.8641 16.4721 99.9539 16.7179 100.134 16.8232C100.349 16.9285 100.583 16.9811 100.817 16.9811C101.014 16.9811 101.212 16.946 101.41 16.8934L101.535 16.8583C101.589 16.8407 101.643 16.8407 101.715 16.8407C101.859 16.8407 101.985 16.8934 102.074 16.9987C102.146 17.0864 102.218 17.2093 102.218 17.3497Z" fill="#494949"/>
</g>
<defs>
<clipPath id="clip0_26_3647">
<rect width="104.356" height="26.3889" fill="white" transform="translate(0.261719 0.166565)"/>
</clipPath>
</defs>
</svg>
