<svg width="95" height="29" viewBox="0 0 95 29" fill="none" xmlns="http://www.w3.org/2000/svg">
<g clip-path="url(#clip0_26_3566)">
<path d="M9.39683 28.1024C9.37795 28.091 9.35907 28.072 9.34019 28.053C9.00795 27.6385 6.96162 25.0487 4.87754 21.725C4.2508 20.6678 3.84682 19.8387 3.92233 19.6258C4.12621 19.0706 7.76203 18.7663 8.88336 19.2683C9.22315 19.4204 9.2156 19.622 9.2156 19.7399C9.2156 20.2495 9.18917 21.6109 9.18917 21.6109C9.18917 21.8923 9.4157 22.1205 9.69509 22.1205C9.97448 22.1205 10.201 21.8923 10.201 21.6071L10.1972 18.2073C10.1972 17.9107 9.88009 17.8384 9.81968 17.827C9.23448 17.8232 8.04897 17.8194 6.77284 17.8194C3.96009 17.8194 3.33335 17.9373 2.85386 17.6217C1.8156 16.9447 0.124167 12.3356 0.0826368 9.74206C0.0260041 6.08368 2.17427 2.91587 5.19468 1.34527C6.4557 0.702583 7.88285 0.341309 9.38928 0.341309C14.1728 0.341309 18.1107 3.98828 18.6355 8.68105V8.69246C18.7299 9.82572 12.5418 10.0691 11.3186 9.73826C11.1298 9.68882 11.0845 9.49487 11.0845 9.41121C11.0845 8.54795 11.0769 6.12171 11.0769 6.12171C11.0769 5.84029 10.8504 5.61212 10.571 5.61212C10.2916 5.61212 10.0651 5.84029 10.0651 6.12551L10.0764 10.5977C10.084 10.8791 10.3181 10.9552 10.3822 10.9666H14.2219C16.272 10.9666 17.1329 11.2062 17.703 11.6473C18.0843 11.9401 18.2315 12.503 18.1032 13.2331C16.9554 19.7209 9.67244 27.764 9.39683 28.1024ZM29.1428 12.9479C30.9814 13.7427 32.1179 14.625 32.1179 16.5645C32.1179 18.542 30.6341 19.8197 28.3386 19.8197C26.4772 19.8197 24.9859 18.9679 24.2421 17.4848L24.1213 17.2452L26.3073 15.9636L26.4508 16.1994C26.9416 17.0132 27.4929 17.3593 28.2933 17.3593C28.9804 17.3593 29.4448 17.0512 29.4448 16.5911C29.4448 16.0815 29.1088 15.8913 28.0743 15.435L27.5495 15.2068C26.145 14.6022 24.8462 13.7617 24.8462 11.7272C24.8462 9.89798 26.2318 8.62401 28.2178 8.62401C29.7204 8.62401 30.7549 9.21346 31.4647 10.476L31.5968 10.7118L29.4788 12.0884L29.3315 11.826C28.9766 11.1872 28.6444 11.0579 28.2215 11.0579C27.7798 11.0579 27.4929 11.305 27.4929 11.6891C27.4929 12.1303 27.7043 12.3242 28.6217 12.7235L29.1428 12.9479ZM44.6261 13.3206L46.1703 8.97007H48.8207L44.8942 19.9985H44.3052L41.9229 14.8341C41.8134 14.5984 41.6963 14.3055 41.5982 14.0355C41.4962 14.3055 41.3792 14.5984 41.2697 14.8379L38.793 20.0023H38.2078L34.217 8.97388H37.0487L38.608 13.3244C38.7061 13.602 38.8081 13.9405 38.8987 14.2523C39.0044 13.929 39.1328 13.5792 39.2649 13.2978L41.315 8.88261H41.8813L43.9616 13.2978C44.0938 13.5792 44.2222 13.929 44.3279 14.2523C44.4223 13.9367 44.528 13.5982 44.6261 13.3206ZM51.9091 19.6828V8.7457H54.5822V19.6828H51.9091ZM63.3527 16.0054V13.5602H68.3175V18.4621L68.2155 18.5458C67.6492 19.0173 66.1428 19.8159 64.1002 19.8159C60.657 19.8159 58.2557 17.5114 58.2557 14.2105C58.2557 10.9704 60.5739 8.62021 63.7718 8.62021C65.5274 8.62021 66.8186 9.12219 67.7096 10.149L67.8833 10.3505L66.0597 12.1759L65.8634 11.9706C65.3537 11.442 64.8251 11.1111 63.7755 11.1111C62.1407 11.1111 60.9968 12.3851 60.9968 14.2105C60.9968 16.1119 62.2162 17.3402 64.1078 17.3402C64.7345 17.3402 65.3877 17.23 65.8332 17.055V16.0016L63.3527 16.0054ZM76.9068 16.0054V13.5602H81.8716V18.4621L81.7696 18.5458C81.1995 19.0173 79.6969 19.8159 77.6543 19.8159C74.2111 19.8159 71.8098 17.5114 71.8098 14.2105C71.8098 10.9704 74.128 8.62021 77.3221 8.62021C79.0815 8.62021 80.3689 9.12219 81.2599 10.149L81.4336 10.3505L79.61 12.1759L79.4099 11.9706C78.9002 11.442 78.3717 11.1111 77.3183 11.1111C75.6835 11.1111 74.5395 12.3851 74.5395 14.2105C74.5395 16.1119 75.759 17.3402 77.6505 17.3402C78.2773 17.3402 78.9304 17.23 79.376 17.055V16.0016L76.9068 16.0054ZM91.6766 8.7457H94.4705L90.6345 16.0244V19.6828H87.9464V16.1804L83.8575 8.74951H86.8401L88.7279 12.2368C88.9318 12.617 89.1432 13.119 89.3055 13.5259C89.4603 13.1228 89.6604 12.6247 89.8643 12.2406L91.6766 8.7457Z" fill="#FC8019"/>
</g>
<defs>
<clipPath id="clip0_26_3566">
<rect width="94.4444" height="27.7778" fill="white" transform="translate(0.0258789 0.333344)"/>
</clipPath>
</defs>
</svg>
