<svg width="98" height="28" viewBox="0 0 98 28" fill="none" xmlns="http://www.w3.org/2000/svg">
<path d="M0.152344 13.6672C0.15211 6.22498 6.1848 0.191513 13.627 0.190968C21.0691 0.190735 27.1026 6.22342 27.1032 13.6656C27.1035 21.1078 21.0708 27.1416 13.6286 27.1418H13.627C6.18527 27.1418 0.152344 21.1091 0.152344 13.6672Z" fill="#BC2030"/>
<path d="M10.0615 10.1497H15.3354C15.413 10.1497 15.4772 10.0877 15.4815 10.0086C15.4929 9.55304 15.4772 9.0972 15.4345 8.64363C15.4303 8.56823 15.3691 8.50943 15.295 8.50864L9.06995 8.48993C8.94463 8.49204 8.84445 8.59751 8.84621 8.72552C8.84721 8.78464 8.87028 8.8414 8.91067 8.88392L9.90234 10.0802C9.94495 10.1227 10.0021 10.1468 10.0615 10.1473" fill="white"/>
<path d="M21.261 8.49151H18.4087C18.4509 9.04296 18.4611 9.59686 18.4385 10.1497H21.261C21.3884 10.1486 21.491 10.0444 21.491 9.91586V8.72269C21.4906 8.5946 21.3878 8.49064 21.261 8.48993" fill="white"/>
<path d="M21.2606 5.88148H6.86186C6.7747 5.8828 6.69804 5.93979 6.67162 6.0228C6.63589 6.1079 6.65539 6.20628 6.72126 6.27135L7.68306 7.4407C7.72656 7.4834 7.78489 7.50701 7.84579 7.50646H15.5733C15.792 7.51268 15.9819 7.65989 16.0418 7.87039V7.86371C16.3266 8.76402 16.3904 10.2611 16.0418 10.9358C15.8664 11.2773 15.6288 11.429 15.2544 11.4365H11.4628C11.3757 11.4365 11.2972 11.4886 11.2631 11.5688C11.2299 11.649 11.2484 11.7412 11.3097 11.8026L12.2221 12.8965C12.2617 12.9378 12.3165 12.961 12.3738 12.9607H13.4452C13.4544 12.9615 13.4634 12.9615 13.4724 12.9607H14.2414C14.2553 12.96 14.2695 12.96 14.2836 12.9607C14.3805 12.9697 14.5479 13.0753 14.7076 13.1938C16.323 14.4897 17.768 15.7531 17.768 17.5054C17.768 18.7539 17.0363 19.7118 16.0616 20.2924C15.9219 20.3764 15.7774 20.4523 15.6288 20.5196C15.5393 20.5602 15.4467 20.5993 15.3558 20.634C15.3423 20.6378 15.3292 20.6445 15.3159 20.6489C15.1658 20.7041 15.0128 20.7511 14.8577 20.7902C14.85 20.7938 14.8418 20.7964 14.8333 20.7976C14.7292 20.8233 14.6245 20.8465 14.5204 20.8655H14.5076C14.4924 20.8655 14.4774 20.8722 14.462 20.8737C14.3677 20.8886 14.2746 20.9025 14.1792 20.9115C13.9025 20.9379 13.6324 20.9522 13.3749 20.9522C11.007 20.9522 9.26434 19.7686 7.50106 17.0186C7.46968 16.968 7.41958 16.932 7.36117 16.9187L5.88716 16.5858C5.84941 16.5779 5.8098 16.5794 5.77251 16.5901C5.72388 16.6033 5.68124 16.6321 5.6511 16.6725C5.59634 16.7457 5.59044 16.8444 5.63572 16.924C7.88518 20.8182 10.1945 22.4788 13.3585 22.4788C13.6701 22.4788 13.9972 22.4625 14.3271 22.4299C14.5107 22.4121 14.6883 22.3872 14.8628 22.3562C14.8801 22.3523 14.8971 22.3503 14.9138 22.3479C14.9511 22.3412 14.9881 22.3322 15.0243 22.3248C15.082 22.3132 15.1382 22.3014 15.1951 22.2881C15.21 22.2881 15.2239 22.2798 15.2396 22.2762C15.7468 22.1552 16.2345 21.965 16.6899 21.7111C16.7238 21.6933 16.7552 21.6733 16.7896 21.6548C16.8246 21.6363 16.8696 21.6075 16.9082 21.5808C16.9467 21.5543 16.9778 21.5378 17.0095 21.5157L17.117 21.4456C17.1567 21.4181 17.1951 21.3893 17.2337 21.361C17.2604 21.3405 17.2893 21.322 17.3152 21.3019C18.6138 20.3152 19.2939 18.8508 19.2939 17.5047C19.2939 15.4794 18.2084 14.1702 16.7609 12.9186L16.7522 12.9113C16.713 12.878 16.6737 12.844 16.6367 12.8106L16.4515 12.6531C16.8603 12.4136 17.1904 12.0602 17.4016 11.6362C17.9462 10.5813 17.9034 8.78693 17.524 7.50577H21.2637C21.3891 7.50577 21.4909 7.40421 21.4914 7.27881V6.11015C21.4914 5.98398 21.3896 5.88171 21.2637 5.88148" fill="white"/>
<path d="M45.9917 10.3101V22.6044H43.7178C43.2595 22.6044 42.9585 22.3991 42.8144 21.9881L42.6016 21.2763C42.3707 21.5005 42.1249 21.7087 41.8656 21.9C41.6121 22.0855 41.34 22.2442 41.0536 22.3736C40.753 22.5078 40.4397 22.6114 40.1182 22.683C39.7582 22.7598 39.3909 22.7974 39.0229 22.7953C38.4097 22.8075 37.8014 22.6885 37.2381 22.4458C36.7355 22.2211 36.2897 21.8869 35.9332 21.4682C35.5697 21.0321 35.2966 20.5281 35.1299 19.9854C34.9395 19.3791 34.8446 18.7467 34.8488 18.1112V10.3101H38.5238V18.1112C38.5238 18.7203 38.6626 19.1887 38.9395 19.5168C39.2165 19.8448 39.6239 20.0119 40.1614 20.0184C40.5528 20.0216 40.9399 19.9344 41.2926 19.7639C41.6641 19.5796 42.0094 19.3463 42.3184 19.0697V10.3101H45.9917Z" fill="#040606"/>
<path d="M55.9402 13.606C55.6954 13.3211 55.3857 13.0993 55.0369 12.9594C54.7125 12.8373 54.3686 12.7749 54.0219 12.7756C53.6985 12.7714 53.3783 12.8401 53.0853 12.9765C52.786 13.1226 52.5304 13.3455 52.3444 13.6222C52.1108 13.9741 51.9437 14.366 51.8526 14.7784C51.7246 15.342 51.6649 15.919 51.6747 16.4969C51.6657 17.0459 51.7135 17.5942 51.8174 18.1332C51.8875 18.5117 52.0222 18.875 52.215 19.2085C52.3594 19.4569 52.5708 19.6603 52.8254 19.7946C53.0728 19.9155 53.3451 19.9763 53.6204 19.9724C53.8656 19.9753 54.1101 19.9498 54.349 19.896C54.5583 19.8483 54.7606 19.7749 54.9517 19.6771C55.1376 19.5786 55.3106 19.4565 55.4666 19.3148C55.6378 19.159 55.7982 18.9913 55.9465 18.8131L55.9402 13.606ZM59.6163 4.85627V22.6045H57.3396C56.8806 22.6045 56.5796 22.3994 56.4362 21.9889L56.1509 21.0526C55.9113 21.3076 55.6539 21.5451 55.3801 21.7632C55.1104 21.9781 54.8182 22.1627 54.5087 22.3143C54.1889 22.4716 53.8523 22.5912 53.505 22.6704C53.1212 22.7559 52.7292 22.7978 52.3364 22.7953C51.7176 22.8005 51.1068 22.654 50.5575 22.3683C49.9984 22.0722 49.5156 21.6501 49.1473 21.1357C48.7232 20.5379 48.4082 19.8699 48.2167 19.1625C47.9798 18.2951 47.8661 17.399 47.8783 16.5001C47.8706 15.6336 47.9987 14.7718 48.2579 13.9455C48.4867 13.205 48.8505 12.5133 49.3308 11.9053C49.7824 11.342 50.3506 10.883 50.9963 10.5603C51.6636 10.2318 52.3989 10.0657 53.1425 10.0745C53.7829 10.0745 54.3204 10.1655 54.7547 10.3472C55.1871 10.5265 55.5876 10.7748 55.9402 11.0824V4.85848L59.6163 4.85627Z" fill="#040606"/>
<path d="M68.448 17.6015C67.8401 17.6199 67.2343 17.6831 66.635 17.7911C66.245 17.8589 65.8658 17.9789 65.5076 18.1473C65.2743 18.252 65.0755 18.4208 64.9335 18.6332C64.8271 18.8126 64.7713 19.0173 64.773 19.2256C64.773 19.6437 64.8875 19.9385 65.1173 20.109C65.3468 20.28 65.6813 20.3646 66.1212 20.364C66.5516 20.3741 66.9793 20.2893 67.3731 20.115C67.7776 19.9145 68.1429 19.6427 68.4512 19.312L68.448 17.6015ZM61.8326 12.0168C62.5544 11.374 63.3935 10.8772 64.3042 10.5536C65.2398 10.2277 66.2244 10.0653 67.2154 10.0725C67.9019 10.0627 68.5837 10.1856 69.2231 10.4349C69.7937 10.6585 70.311 11.0004 70.7396 11.4388C71.1606 11.8786 71.4857 12.4015 71.6936 12.9736C71.9204 13.597 72.0327 14.255 72.0257 14.9182V22.6047H70.3452C69.9978 22.6047 69.7347 22.5573 69.5565 22.463C69.3786 22.3626 69.2311 22.1711 69.1126 21.8697L68.8515 21.1941C68.543 21.4554 68.2468 21.6846 67.9621 21.8817C67.6834 22.0757 67.3877 22.2436 67.0786 22.3839C66.7682 22.524 66.442 22.6278 66.1072 22.692C65.7298 22.762 65.3465 22.7959 64.9628 22.7923C64.4448 22.7987 63.9289 22.7247 63.434 22.5725C63.0032 22.4418 62.605 22.2213 62.2651 21.9259C61.9398 21.6343 61.6862 21.2713 61.5243 20.8649C61.3426 20.3985 61.254 19.9012 61.2634 19.4003C61.2697 18.9321 61.3834 18.472 61.5958 18.0553C61.8166 17.6004 62.1982 17.1861 62.7451 16.8104C63.2923 16.4347 64.0259 16.1218 64.9538 15.8676C65.8812 15.614 67.0448 15.4723 68.4512 15.4414V14.9191C68.4512 14.2003 68.3029 13.6808 68.0062 13.3601C67.71 13.0395 67.2893 12.8797 66.7445 12.8805C66.3834 12.8699 66.0232 12.9173 65.6775 13.0217C65.4219 13.1074 65.1742 13.215 64.9366 13.3419C64.7183 13.4605 64.5065 13.5679 64.3011 13.6634C64.0692 13.7629 63.8187 13.8114 63.5662 13.8048C63.3384 13.8124 63.1142 13.7458 62.9269 13.6149C62.7566 13.494 62.6116 13.3405 62.4993 13.1644L61.8326 12.0168Z" fill="#040606"/>
<path d="M80.725 17.6013C80.1163 17.6197 79.51 17.683 78.9109 17.791C78.5212 17.8587 78.1424 17.9788 77.7846 18.1472C77.5508 18.2518 77.3517 18.4206 77.2094 18.6331C77.1037 18.8127 77.0486 19.0175 77.0495 19.2254C77.0495 19.6435 77.164 19.9383 77.3928 20.1088C77.622 20.2798 77.9565 20.3645 78.3967 20.3638C78.825 20.3732 79.2499 20.2881 79.6419 20.1148C80.0468 19.9143 80.4125 19.6425 80.7207 19.3118L80.725 17.6013ZM74.0993 12.0166C74.8215 11.3738 75.6607 10.877 76.5721 10.5534C77.5075 10.2276 78.4923 10.0651 79.4829 10.0723C80.1693 10.0623 80.8512 10.1851 81.4905 10.4347C82.0619 10.658 82.5788 11.0002 83.0075 11.4386C83.4289 11.8784 83.7543 12.401 83.9622 12.9734C84.1892 13.5968 84.3016 14.2549 84.2942 14.918V22.6045H82.6172C82.2685 22.6045 82.0054 22.5571 81.8279 22.4629C81.6504 22.3625 81.5028 22.171 81.3845 21.8696L81.126 21.1939C80.8195 21.4553 80.524 21.6841 80.238 21.8815C79.9594 22.0751 79.6635 22.2435 79.3544 22.3837C79.0441 22.5239 78.7176 22.6273 78.3828 22.6918C78.0053 22.7618 77.622 22.7958 77.2383 22.7922C76.7193 22.7999 76.202 22.727 75.7053 22.5756C75.2749 22.4444 74.8765 22.224 74.5372 21.9289C74.2125 21.6366 73.9595 21.2735 73.7984 20.8678C73.616 20.4015 73.527 19.9037 73.5374 19.4032C73.5435 18.9352 73.6567 18.4753 73.8685 18.0582C74.0897 17.6037 74.4726 17.1886 75.0189 16.8129C75.5651 16.4377 76.301 16.1237 77.2275 15.8706C78.1514 15.6176 79.3175 15.4754 80.725 15.444V14.9218C80.725 14.2032 80.5764 13.6836 80.2803 13.3631C79.9837 13.0425 79.5627 12.8826 79.0172 12.8833C78.6563 12.8726 78.296 12.9207 77.9502 13.0246C77.6946 13.1108 77.4472 13.2182 77.2094 13.3448C76.9923 13.4635 76.781 13.5702 76.5749 13.6661C76.3429 13.7658 76.0925 13.8144 75.84 13.8077C75.6122 13.8154 75.3876 13.7484 75.2006 13.6179C75.0304 13.4961 74.8852 13.3434 74.7729 13.1672L74.0993 12.0166Z" fill="#040606"/>
<path d="M90.0375 11.6382C90.2715 11.4197 90.5168 11.2139 90.7725 11.0218C91.0246 10.8317 91.2974 10.6709 91.5855 10.5409C91.8862 10.4065 92.1995 10.3033 92.5211 10.2328C92.8816 10.155 93.2497 10.1178 93.6187 10.1201C94.2309 10.1086 94.8395 10.2276 95.402 10.4696C95.9059 10.6929 96.3533 11.0253 96.7133 11.4425C97.0789 11.8771 97.3519 12.381 97.5163 12.9245C97.7028 13.529 97.7943 14.159 97.7887 14.7913V22.6042H94.116V14.7913C94.116 14.189 93.9784 13.7208 93.7018 13.386C93.4254 13.0515 93.018 12.8841 92.4802 12.8841C92.0881 12.881 91.7006 12.9682 91.3477 13.1391C90.9759 13.3226 90.6305 13.5559 90.3215 13.8328V22.6042H86.6465V10.3088H88.9224C89.38 10.3088 89.6813 10.516 89.8261 10.9266L90.0375 11.6382Z" fill="#040606"/>
</svg>
