<svg width="165" height="37" viewBox="0 0 165 37" fill="none" xmlns="http://www.w3.org/2000/svg">
<path d="M16.2465 20.5304V24.522H0.662781V5.00244H16.2054L16.2466 8.86569H5.71454V12.4118H15.3848L10.5509 16.8464H5.71454V20.5281L16.2465 20.528V20.5304Z" fill="white"/>
<path d="M31.4477 5.00244H26.2095L17.5003 24.522H22.8933V24.5196V24.522L28.7221 11.0926L34.3016 24.522H39.4453L31.4477 5.00244Z" fill="white"/>
<path d="M73.3918 5.00249C73.3918 5.00249 69.6955 10.2116 69.4898 10.4706C69.3954 10.3326 65.6435 5.00249 65.6435 5.00249H59.5606L67.1757 14.9003V24.5221L71.6926 24.522V14.9268L79.511 5L73.3918 5.00008V5.00249Z" fill="white"/>
<path d="M133.381 5.00244H128.562V24.522H142.836V20.528H133.381V5.00244Z" fill="white"/>
<path d="M149.793 20.528V5.00244H144.973V24.522H159.247V20.528H149.793Z" fill="white"/>
<path d="M53.2451 13.0413H47.8981C46.7338 13.0413 45.7922 12.0997 45.7922 10.9378C45.7922 9.76382 46.7555 8.81739 47.9319 8.83432L55.9586 8.95532L58.0984 5.12354H46.5207C43.3643 5.12354 40.8033 7.67726 40.8033 10.8289C40.8033 13.9804 43.3619 16.5342 46.5207 16.5342H51.8218C52.9765 16.5342 53.9132 17.4685 53.9132 18.6231C53.9132 19.7778 52.9764 20.7121 51.8218 20.7121H40.5564V24.5173H53.2475C56.1159 24.5173 58.4397 22.1959 58.4397 19.3348V18.2213C58.4372 15.3626 56.1135 13.0413 53.2451 13.0413Z" fill="white"/>
<path d="M92.2045 13.0413H86.8573C85.6931 13.0413 84.7515 12.0997 84.7515 10.9378C84.7515 9.76382 85.7148 8.81739 86.8912 8.83432L94.9179 8.95532L97.0576 5.12354H85.4801C82.3237 5.12354 79.7627 7.67726 79.7627 10.8289C79.7627 13.9804 82.3212 16.5342 85.4801 16.5342H90.7811C91.9358 16.5342 92.8725 17.4685 92.8725 18.6231C92.8725 19.7778 91.9357 20.7121 90.7811 20.7121H79.5158V24.5173H92.2069C95.0753 24.5173 97.3991 22.1959 97.3991 19.3348V18.2213C97.3966 15.3626 95.0728 13.0413 92.2045 13.0413Z" fill="white"/>
<path d="M118.127 5.12598H111.419L104.93 11.6083V5.12598H100.188V24.5196H104.93V18.3012L106.699 16.5341L113.293 24.522H119.439L110.069 13.1695L118.127 5.12598Z" fill="white"/>
<path d="M120.503 24.522H125.553V8.57045L120.503 12.2158V24.522ZM120.503 5.12598V10.2165L125.553 6.57111V5.12598H120.503Z" fill="white"/>
<path d="M7.54003 29.385L7.12353 31.0041H3.5769C2.7275 31.0041 2.28615 32.1326 2.28615 33.2414C2.28615 34.3211 2.70258 35.3804 3.5769 35.3804H7.54003L7.12353 36.9997H3.39364C1.59509 36.9997 0.662682 35.0471 0.662682 33.124C0.662682 31.2398 1.55348 29.385 3.39364 29.385H7.54003Z" fill="white"/>
<path d="M14.4587 34.4289H17.2909L16.0256 31.2692L13.7775 36.9998H12.154L15.2803 29.3853H16.8208L19.947 36.9998H18.3235L17.9155 35.9794H13.8925L14.4587 34.4289Z" fill="white"/>
<path d="M26.6665 29.3853V32.977H29.4221C29.8885 32.977 30.1302 32.4763 30.1302 31.9758C30.1302 31.4852 29.8969 31.0043 29.4221 31.0043H25.1263L25.5425 29.3853H29.4391C30.9542 29.3853 31.7534 30.7395 31.7534 32.0642C31.7534 33.0651 31.2958 34.0661 30.3383 34.4388L31.945 37H30.1302L28.7232 34.5958H26.6665V37H25.1263V29.3853H26.6665Z" fill="white"/>
<path d="M38.8902 35.3807H43.6025V36.9998H37.35V29.3853H43.6025V31.0043H38.8902V32.3881H42.8949V34.007H38.8902V35.3807Z" fill="white"/>
<path d="M50.5406 35.3807H55.2532V36.9998H49.0004V29.3853H55.2532V31.0043H50.5406V32.3881H54.5454V34.007H50.5406V35.3807Z" fill="white"/>
<path d="M62.1829 29.385V32.9768H64.9387C65.405 32.9768 65.6463 32.476 65.6463 31.9755C65.6463 31.4849 65.4133 31.0041 64.9387 31.0041H60.6424L61.0589 29.385H64.9553C66.4708 29.385 67.27 30.7393 67.27 32.064C67.27 33.0649 66.8119 34.0658 65.8547 34.4385L67.4614 36.9997H65.6463L64.2393 34.5956H62.1829V36.9997H60.6424V29.385H62.1829Z" fill="white"/>
<path d="M97.6968 29.3853L97.2806 31.0043H93.7336C92.8842 31.0043 92.4431 32.1329 92.4431 33.2416C92.4431 34.3214 92.8593 35.3807 93.7336 35.3807H97.6968L97.2806 37H93.5504C91.7518 37 90.8194 35.0473 90.8194 33.1242C90.8194 31.24 91.7102 29.3853 93.5504 29.3853H97.6968Z" fill="white"/>
<path d="M116.31 29.3853V35.3807H118.733C119.582 35.3807 120.023 34.2524 120.023 33.1437C120.023 32.0642 119.607 31.0043 118.733 31.0043H114.77V29.3853H118.916C120.715 29.3853 121.647 31.3382 121.647 33.2613C121.647 35.1453 120.756 37 118.916 37H114.77V29.3853H116.31Z" fill="white"/>
<path d="M128.427 35.3807H133.14V36.9998H126.887V29.3853H133.14V31.0043H128.427V32.3881H132.432V34.007H128.427V35.3807Z" fill="white"/>
<path d="M146.58 29.3851V36.9999H145.04V32.6231L143.075 36.7547H142.042L140.077 32.7902V36.9999H138.537V29.189H140.077L142.575 34.576L145.04 29.3851H146.58Z" fill="white"/>
<path d="M156.182 36.9997H154.642V34.3701L151.511 29.385H153.301L155.425 32.9568L157.548 29.385H159.338L156.182 34.4093V36.9997Z" fill="white"/>
<path d="M80.8738 34.4289H83.7061L82.4404 31.2692L80.1926 36.9998H78.5692L81.6955 29.3853H83.2359L86.3622 36.9998H84.7387L84.3306 35.9794H80.3077L80.8738 34.4289Z" fill="white"/>
<path d="M104.358 34.4289H107.191L105.925 31.2692L103.677 36.9998H102.054L105.18 29.3853H106.72L109.847 36.9998H108.223L107.815 35.9794H103.792L104.358 34.4289Z" fill="white"/>
<g clip-path="url(#clip0_1_2493)">
<path d="M163.227 4.06152V4.06091H163.229C163.229 3.24731 162.897 2.50952 162.362 1.97466C161.828 1.44041 161.09 1.10911 160.278 1.10911V1.11033H160.276H160.276V1.10911C159.463 1.10911 158.724 1.44041 158.189 1.97527C157.655 2.51013 157.324 3.24731 157.324 4.06029H157.325V4.06213V4.06274H157.324C157.324 4.60554 157.471 5.11534 157.727 5.55178C158.239 6.4265 159.189 7.01392 160.274 7.01453V7.01331H160.276H160.277V7.01453C161.09 7.01453 161.828 6.68323 162.363 6.14837C162.451 6.06035 162.533 5.96805 162.608 5.87208C162.996 5.37207 163.227 4.74369 163.227 4.06152ZM158.96 5.57256V2.45634H160.565C160.863 2.45634 161.09 2.48201 161.248 2.53336C161.405 2.58409 161.532 2.67823 161.628 2.81698C161.725 2.95513 161.773 3.12323 161.773 3.32128C161.773 3.49487 161.735 3.64341 161.663 3.76872C161.589 3.89403 161.487 3.9955 161.358 4.07435C161.276 4.12387 161.163 4.16482 161.02 4.19661C161.135 4.23512 161.218 4.27363 161.271 4.31213C161.306 4.33781 161.358 4.39221 161.425 4.47534C161.493 4.5597 161.538 4.62327 161.56 4.66911L162.026 5.57256H160.938L160.423 4.6196C160.358 4.49735 160.299 4.41666 160.248 4.37937C160.179 4.3317 160.1 4.30724 160.012 4.30724H159.927V5.57195H158.96V5.57256ZM159.928 3.7186H160.334C160.378 3.7186 160.463 3.70454 160.589 3.67642C160.653 3.66358 160.705 3.63058 160.746 3.57862C160.785 3.52666 160.806 3.46615 160.806 3.39829C160.806 3.29744 160.774 3.22042 160.71 3.16663C160.646 3.11222 160.527 3.08533 160.351 3.08533H159.928V3.7186ZM164.03 4.06091H164.032V4.06152C164.032 4.9289 163.737 5.72843 163.242 6.36476C163.145 6.48946 163.041 6.60743 162.932 6.71685C162.253 7.39535 161.315 7.81529 160.277 7.8159V7.81774H160.276H160.274V7.8159C158.894 7.81529 157.686 7.06894 157.035 5.95766C156.709 5.40141 156.522 4.75347 156.522 4.06274H156.521V4.06213V4.06029H156.522C156.522 3.02237 156.942 2.08408 157.621 1.40618C158.299 0.727681 159.238 0.307742 160.276 0.307742V0.305908H160.276H160.278V0.307742C161.315 0.308353 162.254 0.727681 162.932 1.40618C163.61 2.08408 164.03 3.02298 164.03 4.06091Z" fill="white"/>
</g>
<defs>
<clipPath id="clip0_1_2493">
<rect width="7.51122" height="7.51122" fill="white" transform="translate(156.521 0.305908)"/>
</clipPath>
</defs>
</svg>
