<svg width="82" height="29" viewBox="0 0 82 29" fill="none" xmlns="http://www.w3.org/2000/svg">
<g clip-path="url(#clip0_26_3473)">
<path d="M81.0281 6.24951V25.3016L78.3916 27.8754V9.23131L81.0281 6.24951Z" fill="#E79225"/>
<path d="M63.7497 6.26521L61.019 9.23131L61.1603 9.41963L78.2821 9.35686L78.439 9.23131L81.0285 6.24951L63.7497 6.26521Z" fill="#FFF16D"/>
<path d="M61.019 9.23141H78.439V27.8912H61.019V9.23141Z" fill="url(#paint0_linear_26_3473)"/>
<path d="M75.7865 15.9484C75.4413 15.0852 74.9234 14.3005 74.2486 13.6257C73.6051 12.9666 72.8832 12.4644 72.0671 12.1348C71.2668 11.8052 70.4036 11.6326 69.462 11.6326C68.5204 11.6326 67.6415 11.8052 66.8412 12.1348C66.0251 12.4644 65.3032 12.9666 64.6597 13.6257C63.9849 14.3005 63.4827 15.0852 63.1375 15.9484C62.7922 16.8115 62.6353 17.7531 62.6353 18.7889C62.6353 19.7933 62.8079 20.7349 63.1531 21.6138C63.4984 22.4926 64.0006 23.2773 64.6754 23.9678C65.3032 24.6113 66.0251 25.0978 66.8255 25.4273C67.6258 25.7569 68.5204 25.9295 69.4777 25.9295C70.4036 25.9295 71.2668 25.7569 72.0671 25.4273C72.8675 25.0978 73.6051 24.6113 74.2486 23.9678C74.9234 23.2773 75.4413 22.4926 75.7865 21.6295C76.1318 20.7663 76.3044 19.809 76.3044 18.8046C76.3044 17.7531 76.1318 16.8115 75.7865 15.9484ZM72.1927 22.1003C71.5179 22.9006 70.6233 23.3087 69.462 23.3087C68.3007 23.3087 67.3904 22.9006 66.7156 22.1003C66.0408 21.2999 65.7112 20.1856 65.7112 18.7732C65.7112 17.3294 66.0565 16.2151 66.7156 15.3991C67.3904 14.583 68.285 14.1907 69.462 14.1907C70.6233 14.1907 71.5179 14.5987 72.1927 15.3991C72.8518 16.2151 73.1971 17.3294 73.1971 18.7732C73.1971 20.1856 72.8675 21.2999 72.1927 22.1003Z" fill="white"/>
<path d="M59.308 4.69577V4.78993L61.5365 21.9117L60.2339 25.5213L60.0613 25.3957L57.77 8.98014L57.8171 8.76043L59.2452 4.78993L59.308 4.69577Z" fill="#009ADA"/>
<path d="M42.1552 7.08096L59.3083 4.69553L57.8645 8.80726L57.6605 9.02698L41.6216 11.381L41.7001 8.44631L42.1552 7.08096Z" fill="#91C9ED"/>
<path d="M57.8645 8.80734L60.2343 25.5211L43.3322 27.8908L41.0566 11.7421L42.0453 10.9731L57.8645 8.80734Z" fill="url(#paint1_linear_26_3473)"/>
<path d="M54.9928 12.0087C54.9143 11.4908 54.7417 11.0985 54.4592 10.8317C54.2238 10.6276 53.9413 10.5178 53.6117 10.5178C53.5333 10.5178 53.4391 10.5178 53.3449 10.5335C52.9055 10.5963 52.576 10.8003 52.3719 11.1298C52.215 11.3652 52.1522 11.6634 52.1522 12.0087C52.1522 12.1342 52.1679 12.2755 52.1836 12.4167L52.7957 16.7639L47.9306 17.4858L47.3186 13.1386C47.2401 12.6364 47.0675 12.2441 46.785 11.9773C46.5496 11.7576 46.2671 11.6477 45.9532 11.6477C45.8748 11.6477 45.7963 11.6477 45.7178 11.6634C45.2627 11.7262 44.9174 11.9302 44.6977 12.2598C44.5408 12.4952 44.478 12.7934 44.478 13.1386C44.478 13.2642 44.4937 13.4054 44.5094 13.5624L46.1729 24.8775C46.2514 25.3954 46.424 25.7877 46.7379 26.0545C46.9733 26.2585 47.2558 26.3527 47.6011 26.3527C47.6952 26.3527 47.7894 26.3527 47.8835 26.337C48.3073 26.2742 48.6212 26.0702 48.8252 25.7406C48.9664 25.5052 49.0292 25.2228 49.0292 24.8932C49.0292 24.7676 49.0135 24.6264 48.9978 24.4851L48.323 20.0125L53.188 19.2905L53.8628 23.7632C53.9413 24.2811 54.1139 24.6735 54.4121 24.9246C54.6475 25.1286 54.93 25.2384 55.2596 25.2384C55.338 25.2384 55.4322 25.2384 55.5264 25.2228C55.9658 25.16 56.2954 24.956 56.4994 24.6264C56.6406 24.391 56.7191 24.1085 56.7191 23.7632C56.7191 23.6377 56.7034 23.4964 56.6877 23.3552L54.9928 12.0087Z" fill="white"/>
<path d="M26.1009 0.333282L19.9961 14.8342L20.8279 21.2059L20.8749 21.1902L27.7331 5.76329L27.7017 5.43372L26.2265 0.5373L26.1009 0.333282Z" fill="#66BF6B"/>
<path d="M26.1006 0.33313L27.6856 5.65328L27.717 5.76314L42.8143 12.5271L42.8614 12.4957L41.5745 7.41097L26.1006 0.33313Z" fill="#98D0A0"/>
<path d="M27.6853 5.65305L42.861 12.4955L36.0029 28.0479L20.8271 21.2055L27.6853 5.65305Z" fill="url(#paint2_linear_26_3473)"/>
<path d="M38.263 13.7511C37.9334 12.8722 37.4783 12.1189 36.8819 11.4912C36.2855 10.8634 35.5636 10.3612 34.7162 10.0003C33.8687 9.63934 33.0213 9.46671 32.1581 9.46671H32.111C31.2322 9.46671 30.369 9.67072 29.5216 10.0474C28.627 10.4397 27.8581 10.9733 27.1989 11.6795C26.5398 12.37 26.0062 13.2175 25.5982 14.1905C25.1901 15.1478 24.9704 16.1208 24.9233 17.0781V17.4077C24.9233 18.2552 25.0646 19.0869 25.3628 19.903C25.6766 20.7661 26.1318 21.5037 26.7281 22.1315C27.3245 22.7592 28.0621 23.2614 28.9409 23.6224C29.7727 23.9833 30.6201 24.156 31.4833 24.156H31.499C32.3621 24.156 33.2253 23.9676 34.0727 23.6067C34.9673 23.2144 35.752 22.6651 36.4111 21.9589C37.0702 21.2683 37.6195 20.4366 38.0275 19.4636C38.4356 18.4906 38.6553 17.5332 38.7024 16.5759V16.2934C38.7181 15.4303 38.5768 14.5828 38.263 13.7511ZM35.2341 18.2708C34.6691 19.6205 33.9001 20.5464 32.9742 21.0486C32.472 21.3154 31.9541 21.4567 31.4362 21.4567C30.9811 21.4567 30.4946 21.3468 30.0081 21.1428C28.9409 20.6877 28.2818 19.9658 27.9993 18.93C27.9051 18.5847 27.8581 18.2238 27.8581 17.8471C27.8581 17.0938 28.0464 16.2621 28.423 15.3675C29.0037 13.9865 29.7727 13.0449 30.6986 12.527C31.2008 12.2445 31.7187 12.1189 32.2366 12.1189C32.7074 12.1189 33.1782 12.2288 33.6804 12.4328C34.7319 12.8879 35.391 13.6098 35.6735 14.6456C35.7677 14.9752 35.8147 15.3361 35.8147 15.7128C35.8147 16.4975 35.6264 17.3449 35.2341 18.2708Z" fill="white"/>
<path d="M18.7876 2.79715L21.2672 19.401L20.1372 25.2391L19.9803 25.0351L17.5635 8.99614V8.68227L18.6306 3.07964L18.7876 2.79715Z" fill="#760D16"/>
<path d="M0.677246 11.3816L1.85427 5.51215L18.7877 2.79715L17.6421 8.77643V9.16877L0.881264 11.5385L0.677246 11.3816Z" fill="#EF463E"/>
<path d="M17.6421 8.77655L20.1374 25.2392L3.37656 27.86L0.677246 11.3817L17.6421 8.77655Z" fill="url(#paint3_linear_26_3473)"/>
<path d="M15.8375 22.6181C15.712 22.4612 15.5237 22.3513 15.304 22.2729C15.0842 22.1944 14.8174 22.163 14.4879 22.163C14.1897 22.163 13.8444 22.1944 13.4678 22.2572L9.04218 23.0105C9.08926 22.6652 9.26189 22.2258 9.56007 21.6765C9.88964 21.0645 10.3918 20.3269 11.0353 19.4794C11.255 19.1812 11.4276 18.9615 11.5532 18.8046C11.6316 18.6947 11.7572 18.5535 11.9141 18.3495C12.9342 17.0155 13.5463 15.9326 13.7974 15.0852C13.9386 14.5987 14.0171 14.1122 14.0485 13.6257C14.0642 13.4844 14.0642 13.3589 14.0642 13.2333C14.0642 12.8881 14.0328 12.5428 13.97 12.1975C13.9229 11.8837 13.8444 11.6326 13.7346 11.4285C13.6247 11.2245 13.4992 11.0676 13.3422 10.9734C13.1696 10.8636 12.9028 10.8165 12.5733 10.8165C12.3065 10.8165 11.9769 10.8479 11.5846 10.9107L6.46842 11.7895C5.85637 11.8994 5.38556 12.072 5.10307 12.3545C4.86767 12.5742 4.75781 12.8567 4.75781 13.1705C4.75781 13.249 4.75781 13.3432 4.77351 13.4373C4.85197 13.8768 5.07169 14.1906 5.43264 14.3476C5.65235 14.4417 5.90345 14.4888 6.21732 14.4888C6.42134 14.4888 6.65675 14.4731 6.90784 14.426L11.1765 13.6727C11.1765 13.7512 11.1922 13.8297 11.1922 13.8925C11.1922 14.1592 11.1451 14.426 11.051 14.6771C10.9254 15.0381 10.6115 15.5403 10.0937 16.1837C9.95241 16.3564 9.7327 16.6388 9.43452 16.9998C8.27319 18.3965 7.45712 19.5893 6.95492 20.578C6.59397 21.2685 6.35857 21.9276 6.21732 22.6024C6.13885 22.9948 6.09177 23.3557 6.09177 23.7167C6.09177 23.9678 6.10747 24.2189 6.15455 24.4543C6.21732 24.7995 6.29579 25.082 6.40565 25.3017C6.5155 25.5215 6.67244 25.6941 6.84507 25.7882C7.0177 25.8824 7.2531 25.9138 7.59836 25.9138C8.02209 25.9138 8.60276 25.851 9.34036 25.7255L13.9857 24.9251C14.8018 24.7839 15.3824 24.5798 15.712 24.313C15.9788 24.0933 16.12 23.7952 16.12 23.4499C16.12 23.3557 16.1043 23.2616 16.0886 23.1674C16.0572 22.9634 15.9788 22.7751 15.8375 22.6181Z" fill="white"/>
</g>
<defs>
<linearGradient id="paint0_linear_26_3473" x1="931.947" y1="35.9335" x2="931.947" y2="1818.87" gradientUnits="userSpaceOnUse">
<stop offset="0.00562" stop-color="#FFE513"/>
<stop offset="1" stop-color="#FDB924"/>
</linearGradient>
<linearGradient id="paint1_linear_26_3473" x1="127.586" y1="266.32" x2="1869.03" y2="1678.67" gradientUnits="userSpaceOnUse">
<stop offset="0.00562" stop-color="#008CD2"/>
<stop offset="1" stop-color="#00649D"/>
</linearGradient>
<linearGradient id="paint2_linear_26_3473" x1="1122.57" y1="627.76" x2="1122.57" y2="2189.8" gradientUnits="userSpaceOnUse">
<stop stop-color="#26A146"/>
<stop offset="1" stop-color="#008A52"/>
</linearGradient>
<linearGradient id="paint3_linear_26_3473" x1="851.747" y1="165.414" x2="1110.44" y2="1788.92" gradientUnits="userSpaceOnUse">
<stop stop-color="#D92231"/>
<stop offset="1" stop-color="#BA2234"/>
</linearGradient>
<clipPath id="clip0_26_3473">
<rect width="80.3755" height="27.7778" fill="white" transform="translate(0.664551 0.333344)"/>
</clipPath>
</defs>
</svg>
