<svg width="98" height="21" viewBox="0 0 98 21" fill="none" xmlns="http://www.w3.org/2000/svg">
<path d="M15.5201 5.36911L15.4325 8.18378L8.0915 16.1635C11.158 16.1635 13.1024 16.1335 14.2237 16.0712C13.8987 17.5856 13.6344 18.8237 13.3682 20.6797C11.8936 20.5552 9.59458 20.5241 7.29443 20.5241C4.73039 20.5241 2.4894 20.5548 0.690918 20.6797L0.750854 17.8331L8.0915 9.88535C4.8779 9.88535 3.69824 9.91571 2.37225 9.94684C2.66609 8.52394 2.87276 6.9473 3.07903 5.36911C5.40799 5.46174 6.32182 5.49209 9.35873 5.49209C12.1598 5.49248 13.7508 5.46174 15.5201 5.36911ZM23.8641 4.53311C19.0867 4.53311 15.4325 8.80144 15.4325 13.9065C15.4325 17.7413 17.6432 20.6797 21.9473 20.6797C26.7531 20.6797 30.3793 16.4106 30.3793 11.2756C30.3797 7.47311 28.2266 4.53311 23.8641 4.53311ZM22.419 16.5772C21.3573 16.5772 20.7389 15.6171 20.7389 13.7306C20.7389 10.9159 21.8885 8.6586 23.3044 8.6586C24.3354 8.6586 24.9546 9.58722 24.9546 11.5036C24.9542 14.2872 23.8349 16.5772 22.419 16.5772ZM91.3886 4.32139C86.5501 4.32139 82.8469 8.64615 82.8469 13.8155C82.8469 17.7024 85.0868 20.6797 89.4473 20.6797C94.3158 20.6797 97.9898 16.3546 97.9898 11.153C97.9902 7.29914 95.8107 4.32139 91.3886 4.32139ZM89.8338 16.5609C88.7717 16.5609 88.1536 15.6007 88.1536 13.7143C88.1536 10.8996 89.3037 8.64264 90.7192 8.64264C91.7498 8.64264 92.3702 9.57049 92.3702 11.4873C92.3694 14.272 91.2489 16.5609 89.8338 16.5609ZM55.1727 10.1014C55.5564 7.47311 55.3502 5.09083 52.432 5.09083C50.3089 5.09083 48.0095 6.88503 46.3881 9.88535C46.7423 7.41006 46.5352 5.09083 43.6462 5.09083C41.4648 5.09083 39.1062 6.97727 37.4841 10.1014C37.897 8.06002 37.809 5.73962 37.6907 5.24495C36.0106 5.52362 34.5371 5.67774 32.4728 5.73962C32.5319 7.16292 32.4432 9.01744 32.1777 10.7821L31.4998 15.4209C31.2343 17.2466 30.9393 19.3498 30.6443 20.6801H36.1281C36.1581 19.8749 36.3647 18.6073 36.5118 17.4938L36.9836 14.3086C37.3665 12.2349 39.0171 9.79272 40.2847 9.79272C41.0219 9.79272 40.9931 10.5038 40.7864 11.8337L40.2555 15.4205C39.9893 17.2462 39.6955 19.3495 39.4001 20.6797H44.9426C44.9726 19.8745 45.1493 18.6069 45.2964 17.4934L45.7677 14.3082C46.1515 12.2345 47.8032 9.79233 49.0701 9.79233C49.808 9.79233 49.7788 10.4719 49.6597 11.4005L48.3357 20.6793H53.3941L55.1727 10.1014ZM81.6579 15.8237L81.0683 19.474C80.1541 19.9687 78.4439 20.6805 76.4688 20.6805C73.1077 20.6805 72.4305 18.8863 72.9602 15.0819L73.8156 8.9575H72.1615L72.6286 4.99314L74.4344 4.90596L75.1128 2.02941L80.2125 0.111053L79.5644 4.90557H83.0731C82.9555 5.40024 82.5414 8.12306 82.4254 8.95712H79.0036L78.2369 14.6176C78.0306 16.0712 78.1493 16.5974 79.1503 16.5974C79.889 16.5967 80.9788 16.1635 81.6579 15.8237ZM62.3133 17.7954C64.1694 17.5654 65.4467 15.7762 65.7538 13.991L65.8055 13.5127C65.0081 13.3344 63.8553 13.1986 62.7375 13.3352C61.673 13.4648 60.7872 13.9073 60.3109 14.5479C59.9516 15.008 59.771 15.5583 59.8512 16.2145C59.9723 17.1972 61.0593 17.9483 62.3133 17.7954ZM60.7335 20.6225C58.1138 20.9444 56.3885 19.9045 55.8705 17.5393C55.5455 16.051 55.9966 14.3557 56.7855 13.3441C57.8422 12.0213 59.564 11.172 61.6653 10.9156C63.3563 10.7058 64.7812 10.8093 66.1138 11.0615L66.1691 10.833C66.2072 10.4676 66.2457 10.1029 66.1924 9.66623C66.0542 8.54496 65.17 7.87709 62.9866 8.14564C61.5135 8.32662 60.112 8.85865 59.0238 9.46424L57.9652 6.26543C59.4402 5.41853 61.2994 4.77402 63.4272 4.51287C67.4915 4.01431 70.3475 5.31034 70.7133 8.29003C70.8102 9.08244 70.8219 9.92232 70.7219 10.6844C70.2 14.3685 69.8656 17.1408 69.7189 18.9988C69.6952 19.2864 69.6971 19.7807 69.7228 20.4812L64.6792 20.4766C64.7866 20.1862 64.8828 19.7924 64.9684 19.2985C65.0252 18.9735 65.0657 18.5637 65.091 18.0671C64.025 19.5297 62.5596 20.3983 60.7335 20.6225Z" fill="#E23744"/>
</svg>
